
<svg xmlns="http://www.w3.org/2000/svg" version="1.1" xmlns:xlink="http://www.w3.org/1999/xlink" preserveAspectRatio="none" x="0px" y="0px" width="77px" height="71px" viewBox="0 0 77 71">
<defs>
<g id="Symbol_4_0_Layer0_0_FILL">
<path fill="#FFFFFF" stroke="none" d="
M 48.6 6.3
Q 48.6 0 42.3 0
L 6.3 0
Q 0 0 0 6.3
L 0 38.6
Q 0 44.9 6.3 44.9
L 9.4 44.9 3.6 54.45 19.35 44.9 28.2 44.9 28.2 52.25
Q 28.2 57.25 33.2 57.25
L 61.8 57.25
Q 66.8 57.25 66.8 52.25
L 66.8 26.55
Q 66.8 21.55 61.8 21.55
L 48.6 21.55 48.6 6.3
M 43.4 9.9
L 43.4 21.55 33.2 21.55
Q 28.2 21.55 28.2 26.55
L 28.2 40.85 9.5 40.85
Q 4.45 40.85 4.45 35.8
L 4.45 9.9
Q 4.45 4.85 9.5 4.85
L 38.35 4.85
Q 43.4 4.85 43.4 9.9
M 45.85 29.85
Q 47.85 29.05 49.85 29.85
L 56.45 48.45 51.95 48.45 50.8 43.7 50.75 43.65 44.35 43.65 43.2 48.45 38.65 48.45 45.85 29.85
M 48 32.55
Q 47.6 31.65 47.1 32.55
L 45.1 40.65 50 40.65 48 32.55
M 21.75 24.7
Q 22.1 24.35 22.4 24 25 21.15 25 17.1 25 13.05 22.4 10.2 19.85 7.35 16.2 7.35 12.55 7.35 9.95 10.2 7.4 13.05 7.4 17.1 7.4 21.15 9.95 24 12.55 26.85 16.2 26.85 16.95 26.85 17.65 26.75
L 23.4 29.75 24.95 26.55 21.75 24.7
M 18.85 21.35
Q 17.7 23 16.1 23 14.45 23 13.3 21.35 12.15 19.7 12.15 17.35 12.15 15 13.3 13.35 14.45 11.65 16.1 11.65 17.7 11.65 18.85 13.35 20 15 20 17.35 20 19.7 18.85 21.35 Z"/>
</g>
</defs>

<g transform="matrix( 1, 0, 0, 1, 6.3,8.85) ">
<g transform="matrix( 1, 0, 0, 1, 0,0) ">
<use xlink:href="#Symbol_4_0_Layer0_0_FILL"/>
</g>
</g>
</svg>
