
<svg xmlns="http://www.w3.org/2000/svg" version="1.1" xmlns:xlink="http://www.w3.org/1999/xlink" preserveAspectRatio="none" x="0px" y="0px" width="77px" height="71px" viewBox="0 0 77 71">
<defs>
<g id="Symbol_7_0_Layer0_0_FILL">
<path fill="#FFFFFF" stroke="none" d="
M 5.8 22.1
L 7.2 18.2 16.4 18.2 18.05 22.1 23.75 22.1 14.5 0.2 8.1 0.2 0 22.1 5.8 22.1
M 8.8 13.8
L 11.5 6.3 14.6 13.8 8.8 13.8
M 40.75 7.25
Q 41.65 5.45 41.25 2.4 36.55 -0.65 32.4 0.2 30 0.65 28.35 2.55 26.65 4.55 26.9 6.8 27.25 9.55 30.15 11.55 31.65 12.7 33.95 13.95 36.2 15.2 36.4 16.1 36.55 17 35.4 17.65 34.25 18.25 31.3 17.6 28.3 16.95 27.1 15.7 26.45 17.8 27.1 20.45 28.4 21.65 30.5 22.1 32.15 22.4 34.3 22.3 39.3 22.1 41.15 19.05 42.85 16.3 41.4 13.65 39.9 11 37.2 10.1 34.5 9.2 33.7 8.45 32.9 7.7 32.9 7.05 32.95 6.3 33.5 5.75 34.05 5.2 36 5.35 37.9 5.45 40.75 7.25
M 69.45 22.05
L 69.45 0.15 65.55 0.15 59.65 8.3
Q 58.8 9.2 57.95 8.3
L 52.05 0.15 47.85 0.15 47.85 22.05 53 22.05 53 9.5 57.9 15.45
Q 58.4 15.85 59.1 15.45
L 63.85 9.15 63.85 22.05 69.45 22.05 Z"/>
</g>
</defs>

<g transform="matrix( 1, 0, 0, 1, 2.9,25.7) ">
<g transform="matrix( 1, 0, 0, 1, 0,0) ">
<use xlink:href="#Symbol_7_0_Layer0_0_FILL"/>
</g>
</g>
</svg>
