
<svg xmlns="http://www.w3.org/2000/svg" version="1.1" xmlns:xlink="http://www.w3.org/1999/xlink" preserveAspectRatio="none" x="0px" y="0px" width="77px" height="71px" viewBox="0 0 77 71">
<defs>
<g id="Symbol_8_0_Layer0_0_FILL">
<path fill="#FFFFFF" stroke="none" d="
M 73.7 43.25
Q 74.65 41.75 73.7 41.1
L 40.65 37 39.6 31.9 35.65 27.9 36.9 34.55 11.2 42.7 3.7 3.5 33.8 4.05 33.15 1.05 0.9 0
Q -0.15 0 0 1.25
L 8.55 47.95 8.65 50.5 50.7 56.15 73.7 43.25
M 46.2 43.05
L 47.65 42.35 49.4 42.7 48 43.35 46.2 43.05
M 50.55 42.25
L 48.75 41.95 50.2 41.25 51.95 41.6 50.55 42.25
M 41.2 42.5
L 42.65 41.8 44.4 42.15 43 42.8 41.2 42.5
M 42.3 40.45
L 40.9 41.1 39.1 40.8 40.55 40.1 42.3 40.45
M 40.85 42.7
L 42.6 43.05 41.2 43.7 39.4 43.4 40.85 42.7
M 45.55 41.7
L 43.75 41.4 45.2 40.7 46.95 41.05 45.55 41.7
M 42.65 44.85
L 44.1 44.15 45.85 44.5 44.45 45.15 42.65 44.85
M 42.6 45.9
L 41.2 46.55 39.4 46.25 40.85 45.55 42.6 45.9
M 47.6 43.6
L 46.2 44.25 44.4 43.95 45.85 43.25 47.6 43.6
M 26.3 46.8
L 27.75 46.1 29.5 46.45 28.1 47.1 26.3 46.8
M 29.85 46.2
L 28.05 45.9 29.5 45.2 31.25 45.55 29.85 46.2
M 39.75 41.55
L 38.35 42.2 36.55 41.9 38 41.2 39.75 41.55
M 37.95 42.45
L 36.55 43.1 34.75 42.8 36.2 42.1 37.95 42.45
M 34.8 44
L 33 43.7 34.45 43 36.2 43.35 34.8 44
M 32.75 47.7
L 30.95 47.4 32.4 46.7 34.15 47.05 32.75 47.7
M 32.95 44.75
L 31.55 45.4 29.75 45.1 31.2 44.4 32.95 44.75
M 34.5 46.8
L 32.7 46.5 34.15 45.8 35.9 46.15 34.5 46.8
M 35.85 45
L 37.6 45.35 36.2 46 34.4 45.7 35.85 45
M 37.75 48.25
L 35.95 47.95 37.4 47.25 39.15 47.6 37.75 48.25
M 39.45 44.6
L 37.65 44.3 39.1 43.6 40.85 43.95 39.45 44.6
M 37.7 47.05
L 39.15 46.35 40.9 46.7 39.5 47.35 37.7 47.05
M 60.4 6.8
Q 59.75 6.3 58.9 6 47.15 1.65 35.2 6 34.85 6.1 34.6 6.2 32.05 6.95 32.9 10.3 35.75 25.45 45 33.6 47.7 36.3 50.4 33.5 58.8 24.5 61.95 10.55 62.5 8.1 60.4 6.8
M 55.95 9
Q 56.2 9.1 56.45 9.25 58.8 10.15 58.15 12.5 55.8 22.85 49.6 29.45 47.6 31.55 45.6 29.55 38.75 23.5 36.65 12.3 36.1 10 38.25 9.05 38.3 9 38.35 9 47.2 5.8 55.95 9
M 55.4 10
Q 55.15 9.85 54.95 9.75 47.15 6.9 39.3 9.75 39.25 9.75 39.2 9.8 37.3 10.65 37.8 12.7 39.65 22.65 45.75 28 47.5 29.8 49.3 27.9 54.8 22.05 56.9 12.85 57.45 10.8 55.4 10 Z"/>
</g>

<path id="Symbol_8_0_Layer0_0_1_STROKES" stroke="#FFFFFF" stroke-width="0.5" stroke-linejoin="round" stroke-linecap="round" fill="none" d="
M 23.45 8.85
Q 23.95 8.9 24.45 9 24.9 9.1 25.35 9.25 26 9.45 26.65 9.8 27.05 9.95 27.45 10.2 27.9 10.45 28.35 10.75 29.1 11.3 29.8 11.95 29.9 12.05 30 12.15 30.8 12.95 31.4 13.8 31.9 14.5 32.25 15.25 33.05 16.8 33.3 18.55 33.45 19.45 33.45 20.45 33.45 21.5 33.3 22.45 33.1 23.6 32.7 24.7 32.45 25.35 32.1 26 31.35 27.35 30.25 28.55 30.1 28.65 30 28.75 29.25 29.5 28.5 30.1 27.55 30.75 26.55 31.2 25.05 31.85 23.4 32.1 22.55 32.2 21.7 32.2 21.1 32.2 20.6 32.15 19.15 32.05 17.85 31.6 16.6 31.15 15.5 30.45 14.6 29.85 13.75 29.05 13.55 28.9 13.4 28.75 12.35 27.7 11.65 26.55 10.9 25.4 10.55 24.15 10.3 23.55 10.2 22.9 9.95 21.75 9.95 20.45 9.95 19.45 10.1 18.55 10.25 17.55 10.55 16.65 10.95 15.55 11.55 14.5 11.8 14.05 12.15 13.65 12.7 12.85 13.4 12.15
L 13.45 12.15
Q 14 11.55 14.6 11.1 15.05 10.75 15.5 10.5 15.95 10.15 16.5 9.95 16.75 9.75 17.05 9.65 17.2 9.55 17.4 9.5 18.35 9.1 19.45 8.9 20 8.8 20.65 8.75 21.15 8.7 21.7 8.7 21.85 8.7 22 8.7 22.75 8.7 23.45 8.85 23 9.4 22.6 10 23.1 10.2 23.55 10.4 24 9.7 24.45 9
M 20.25 10.9
Q 20.8 11.2 21.35 11.55 22 10.8 22.6 10 22 9.75 21.4 9.55 20.85 10.25 20.25 10.9 19.6 10.5 19 10.2 18.55 10.55 18.15 10.85 18.65 11.4 19.2 11.95 19.75 11.45 20.25 10.9 Z
M 21.35 11.55
Q 21.85 11.8 22.3 12.15 22.95 11.3 23.55 10.4 24.1 10.65 24.65 10.95 25 10.1 25.35 9.25
M 20.65 8.75
Q 20.4 8.95 20.2 9.15 20.8 9.3 21.4 9.55 21.7 9.1 22 8.7
M 26.65 9.8
Q 26.3 10.75 25.9 11.65 26.35 11.9 26.8 12.2 27.1 11.2 27.45 10.2
M 24.65 10.95
Q 25.25 11.25 25.9 11.65 25.35 12.8 24.75 13.85 25.25 14.25 25.8 14.7 26.3 13.5 26.8 12.2 27.35 12.6 27.95 13.05 28.2 11.9 28.35 10.75
M 27.1 15.8
Q 27.85 16.45 28.65 17.2 29.2 15.75 29.5 14.3 28.75 13.6 27.95 13.05 27.6 14.45 27.1 15.8 26.45 15.2 25.8 14.7 25.15 16.05 24.45 17.25 25.1 17.9 25.8 18.55 26.55 17.2 27.1 15.8 Z
M 24.65 10.95
Q 24.15 12 23.55 13 24.15 13.4 24.75 13.85 24.05 15.05 23.3 16.1 23.85 16.7 24.45 17.25 23.85 18.3 23.15 19.3 23.8 19.95 24.45 20.6 25.2 19.6 25.8 18.55 26.55 19.2 27.3 19.9 28.05 18.55 28.65 17.2 29.4 17.95 30.2 18.8 30.75 17.35 31.1 15.85 30.3 15.05 29.5 14.3 29.7 13.15 29.8 11.95
M 22.2 15
Q 22.9 14.05 23.55 13 22.95 12.55 22.3 12.15 21.65 13 20.95 13.8 21.55 14.4 22.2 15 22.7 15.55 23.3 16.1 22.6 17 21.85 17.85 22.45 18.6 23.15 19.3 22.15 20.55 21.1 21.65 21.7 22.35 22.35 23.05 23.5 21.85 24.45 20.6 25.15 21.25 25.95 21.9 26.65 20.9 27.3 19.9 28.1 20.65 28.95 21.4 29.65 20.15 30.2 18.8 30.95 19.65 31.75 20.55 32.15 18.9 32.25 17.2 31.7 16.5 31.1 15.85 31.3 14.85 31.4 13.8
M 22.2 15
Q 21.5 15.85 20.8 16.6 21.3 17.25 21.85 17.85 20.85 18.95 19.7 19.9 20.35 20.8 21.1 21.65 20.2 22.5 19.3 23.2 19.9 23.95 20.6 24.7 21.5 23.9 22.35 23.05 23.05 23.7 23.8 24.35 25 23.1 25.95 21.9 26.8 22.6 27.7 23.25 28.4 22.35 28.95 21.4 29.85 22.2 30.8 23.05 31.4 21.8 31.75 20.55 32.5 21.45 33.3 22.45
M 27.7 23.25
Q 28.75 24 29.85 24.7 30.4 23.9 30.8 23.05 31.75 23.85 32.7 24.7
M 32.25 15.25
Q 32.3 16.25 32.25 17.2 32.8 17.85 33.3 18.55
M 19.45 8.9
Q 19.8 9 20.2 9.15 19.6 9.65 19 10.2 18.2 9.8 17.4 9.5
M 15.5 10.5
Q 15.7 11.45 16 12.35 16.65 11.95 17.35 11.45 16.9 10.7 16.5 9.95
M 17.05 9.65
Q 17.6 10.25 18.15 10.85 17.75 11.15 17.35 11.45 17.75 12.2 18.2 12.9 18.7 12.45 19.2 11.95 19.65 12.4 20.1 12.9 20.75 12.25 21.35 11.55
M 18.2 12.9
Q 18.5 13.45 18.9 13.95 19.5 13.45 20.1 12.9 20.5 13.3 20.95 13.8 20.3 14.45 19.7 15.1 20.2 15.85 20.8 16.6 19.85 17.6 18.75 18.5 19.2 19.2 19.7 19.9 18.85 20.6 17.9 21.25 18.55 22.25 19.3 23.2 18.2 24.05 17 24.7 17.6 25.55 18.4 26.35 19.55 25.55 20.6 24.7 21.25 25.35 22 26 22.95 25.2 23.8 24.35 24.65 25.05 25.6 25.75 26.75 24.55 27.7 23.25
M 18.9 13.95
Q 19.25 14.55 19.7 15.1 18.75 16 17.75 16.75 18.2 17.65 18.75 18.5 17.95 19.15 17.05 19.75 17.45 20.5 17.9 21.25 16.8 21.95 15.65 22.5 16.2 23.65 17 24.7 15.55 25.45 13.95 25.95 14.65 27.1 15.6 28.1 17.05 27.25 18.4 26.35 19.05 27.05 19.85 27.7 20.95 26.85 22 26 22.85 26.75 23.8 27.45 24.75 26.6 25.6 25.75 26.65 26.5 27.8 27.25 29 26.05 29.85 24.7 30.95 25.4 32.1 26
M 14.85 13.05
Q 15 14 15.25 14.95 15.95 14.55 16.6 14.1 16.25 13.25 16 12.35 15.4 12.7 14.85 13.05 14.7 12.1 14.6 11.1
M 18.2 12.9
Q 17.4 13.55 16.6 14.1 16.8 14.75 17.1 15.35 18 14.7 18.9 13.95
M 17.75 16.75
Q 17.4 16.05 17.1 15.35 16.35 15.8 15.65 16.25 15.9 17.05 16.2 17.85 17 17.35 17.75 16.75 Z
M 15.25 14.95
Q 15.45 15.6 15.65 16.25 14.75 16.75 13.85 17.15 14 18.05 14.25 18.95 15.25 18.45 16.2 17.85 16.6 18.8 17.05 19.75 16.05 20.4 14.95 21 15.25 21.75 15.65 22.5 14.3 23.1 12.85 23.6 13.3 24.85 13.95 25.95 12.85 26.3 11.65 26.55
M 13.45 12.15
Q 13.4 12.95 13.45 13.75 14.15 13.4 14.85 13.05
M 12.15 13.65
Q 12.1 14 12.05 14.35 12.75 14.05 13.45 13.75 13.5 14.75 13.65 15.7 14.45 15.35 15.25 14.95
M 11.55 14.5
Q 11.8 14.4 12.05 14.35 11.95 15.35 11.9 16.35 12.8 16.05 13.65 15.7 13.7 16.45 13.85 17.15 12.9 17.6 11.9 18 11.9 18.95 12 19.9 13.15 19.5 14.25 18.95 14.55 20 14.95 21 13.7 21.6 12.4 22.15 12.6 22.85 12.85 23.6 11.7 23.9 10.55 24.15
M 10.55 16.65
Q 11.25 16.5 11.9 16.35 11.85 17.15 11.9 18 11 18.3 10.1 18.55
M 10.2 22.9
Q 11.35 22.55 12.4 22.15 12.15 21.05 12 19.9 11 20.2 9.95 20.45
M 15.6 28.1
Q 16.35 28.8 17.2 29.45 18.6 28.6 19.85 27.7 20.75 28.4 21.8 29.05 22.85 28.25 23.8 27.45 24.85 28.15 26.05 28.85 27 28.05 27.8 27.25 28.95 27.9 30.25 28.55
M 17.85 31.6
Q 18.6 31.15 19.35 30.7 18.15 30.15 17.2 29.45 16.4 29.95 15.5 30.45
M 15.6 28.1
Q 14.7 28.6 13.75 29.05
M 26.05 28.85
Q 27.2 29.5 28.5 30.1
M 21.8 29.05
Q 22.85 29.7 24.05 30.25 25.1 29.55 26.05 28.85
M 23.4 32.1
Q 22.5 31.9 21.65 31.65 21.1 31.9 20.6 32.15
M 26.55 31.2
Q 25.25 30.75 24.05 30.25 22.95 30.95 21.65 31.65 20.4 31.25 19.35 30.7 20.6 29.9 21.8 29.05"/>
</defs>

<g transform="matrix( 1, 0, 0, 1, 1.75,8.7) ">
<g transform="matrix( 1, 0, 0, 1, 0,0) ">
<use xlink:href="#Symbol_8_0_Layer0_0_FILL"/>

<use xlink:href="#Symbol_8_0_Layer0_0_1_STROKES"/>
</g>
</g>
</svg>
