
<svg xmlns="http://www.w3.org/2000/svg" version="1.1" xmlns:xlink="http://www.w3.org/1999/xlink" preserveAspectRatio="none" x="0px" y="0px" width="77px" height="71px" viewBox="0 0 77 71">
<defs>
<g id="Symbol_9_0_Layer0_0_FILL">
<path fill="#FFFFFF" stroke="none" d="
M 62.3 60.8
L 65.55 60.7
Q 70 60.35 70.2 56 70.1 51.3 65.75 50.4
L 58.4 50.4 58.4 65.9 62.3 65.9 62.3 60.8
M 62.3 53.75
L 65.35 53.75
Q 66.05 53.95 66.05 55.15 66.05 56.05 65.5 56.45 65.4 56.5 65.25 56.55
L 62.3 56.55 62.3 53.75
M 4.35 50.45
L 0 50.45 0 66 4.35 66 4.35 50.45
M 39.6 50.35
L 39.6 66.05 43.25 66.05 43.25 57.05 46.8 61.3
Q 47.15 61.6 47.65 61.3
L 51.05 56.8 51.05 66.05 55.05 66.05 55.05 50.35 52.25 50.35 48.05 56.2
Q 47.45 56.8 46.8 56.2
L 42.6 50.35 39.6 50.35
M 21.85 60.5
Q 22.05 58.15 21.7 55.7 20.9 50.65 16.55 50.55
L 7.85 50.55 7.85 65.95 16.25 65.95
Q 21.7 65.5 21.85 60.5
M 12.25 61.45
L 12.25 55.15 15.35 55.15
Q 17.55 55.2 17.7 57.65 17.75 58.45 17.7 59.3 17.55 61.55 15.25 61.45
L 12.25 61.45
M 37 54.35
Q 36.45 51.3 33.2 50.8
L 24.6 50.8 24.6 66.15 28.5 66.15 28.5 60.3 30.9 60.3 34.35 65.55
Q 34.65 66.25 35.5 65.95 36.35 65.65 36.9 65.1 37.45 64.55 37.1 63.7
L 33.75 58.9
Q 37.45 58.3 37 54.35
M 32.15 56.45
Q 32 56.5 31.85 56.55
L 28.45 56.55 28.45 53.75 31.95 53.75
Q 32.75 53.95 32.8 55.15 32.8 56.05 32.15 56.45
M 29.15 30.85
L 25.2 30.85 20.15 44.45 23.75 44.45 24.6 42.05 30.35 42.05 31.35 44.45 34.9 44.45 29.15 30.85
M 29.2 39.3
L 25.6 39.3 27.3 34.65 29.2 39.3
M 29 21.9
L 34.7 21.9 25.45 0 19.05 0 10.95 21.9 16.75 21.9 18.15 18 27.35 18 29 21.9
M 22.45 6.1
L 25.55 13.6 19.75 13.6 22.45 6.1
M 49.35 33.95
L 49.35 30.4 34.15 30.4 34.15 33.95 39.4 33.95 39.4 44.35 43.75 44.35 43.75 33.95 49.35 33.95
M 54.1 13.2
L 54.1 8.7 44.95 8.7 44.95 4.65 54.1 4.65 54.1 0.25 39.75 0.25 39.75 21.9 45.2 21.9 45.2 13.2 54.1 13.2 Z"/>
</g>
</defs>

<g transform="matrix( 1, 0, 0, 1, 5.25,2.3) ">
<g transform="matrix( 1, 0, 0, 1, 0,0) ">
<use xlink:href="#Symbol_9_0_Layer0_0_FILL"/>
</g>
</g>
</svg>
