
<svg xmlns="http://www.w3.org/2000/svg" version="1.1" xmlns:xlink="http://www.w3.org/1999/xlink" preserveAspectRatio="none" x="0px" y="0px" width="77px" height="71px" viewBox="0 0 77 71">
<defs>
<g id="Symbol_10_0_Layer0_0_FILL">
<path fill="#EEEEEE" stroke="none" d="
M 42.6 8.1
L 42.6 5.4 5.4 5.4 5.4 51.2 42.6 51.2 42.6 22.35
Q 38.85 25.15 35.7 28.9 32.5 32.65 28.5 37.45 24.45 42.25 21.7 42.25 18.9 42.2 16.85 40.25 14.8 38.3 12.2 34.9 9.6 31.45 8.15 28.3 6.7 25.15 7.45 23 8.3 20.55 10.3 19.85 12.6 18.95 14.85 20.4 17.05 21.85 19.4 25.15 20.3 26.55 21.2 26.8 22.1 27 23.8 24.85 32.25 15.65 42.6 8.1 Z"/>

<path fill="#32BCEE" stroke="none" d="
M 42.6 8.1
Q 44.05 7.05 45.55 6 46.95 4.95 48.2 4.35
L 48.2 0 0 0 0 57.2 48.2 57.2 48.2 18.8
Q 47.15 19.35 46.45 19.75 44.5 20.85 42.6 22.35
L 42.6 51.2 5.4 51.2 5.4 5.4 42.6 5.4 42.6 8.1
M 54.6 9.55
Q 54.65 7.2 51.55 6.45 50.05 6.3 48.2 7.2 47 7.75 45.7 8.75 44.15 9.9 42.6 11.1 30.85 19.6 27.6 23.3 24.4 27 22.5 29 20.55 30.95 18.7 28.1
L 15.35 23.9
Q 13.4 21.4 11.5 21.9 9.55 22.35 9.2 23.45 8.8 24.5 9.95 27.2 11.05 29.9 16.1 36.25 21.1 42.55 26.4 35.9 31.7 29.25 42.3 20.2 44.1 18.75 45.6 17.9 47.1 17 48.45 16.15 49.75 15.3 50.9 14.65 52 13.95 53.25 12.9 54.5 11.85 54.6 9.55 Z"/>

<path fill="#FFFFFF" stroke="none" d="
M 56.8 9.7
Q 57.15 4.1 52.1 3.5 51.4 3.5 50.55 3.6 49.45 3.75 48.2 4.35 46.95 4.95 45.55 6 44.05 7.05 42.6 8.1 32.25 15.65 23.8 24.85 22.1 27 21.2 26.8 20.3 26.55 19.4 25.15 17.05 21.85 14.85 20.4 12.6 18.95 10.3 19.85 8.3 20.55 7.45 23 6.7 25.15 8.15 28.3 9.6 31.45 12.2 34.9 14.8 38.3 16.85 40.25 18.9 42.2 21.7 42.25 24.45 42.25 28.5 37.45 32.5 32.65 35.7 28.9 38.85 25.15 42.6 22.35 44.5 20.85 46.45 19.75 47.15 19.35 48.2 18.8 49.45 18.1 51.2 17.15 53.9 15.55 55.3 13.75 56.65 11.9 56.8 9.7
M 51.55 6.45
Q 54.65 7.2 54.6 9.55 54.5 11.85 53.25 12.9 52 13.95 50.9 14.65 49.75 15.3 48.45 16.15 47.1 17 45.6 17.9 44.1 18.75 42.3 20.2 31.7 29.25 26.4 35.9 21.1 42.55 16.1 36.25 11.05 29.9 9.95 27.2 8.8 24.5 9.2 23.45 9.55 22.35 11.5 21.9 13.4 21.4 15.35 23.9
L 18.7 28.1
Q 20.55 30.95 22.5 29 24.4 27 27.6 23.3 30.85 19.6 42.6 11.1 44.15 9.9 45.7 8.75 47 7.75 48.2 7.2 50.05 6.3 51.55 6.45 Z"/>
</g>
</defs>

<g transform="matrix( 1, 0, 0, 1, 14.8,7.8) ">
<g transform="matrix( 1, 0, 0, 1, 0,0) ">
<use xlink:href="#Symbol_10_0_Layer0_0_FILL"/>
</g>
</g>
</svg>
