
<svg xmlns="http://www.w3.org/2000/svg" version="1.1" xmlns:xlink="http://www.w3.org/1999/xlink" preserveAspectRatio="none" x="0px" y="0px" width="77px" height="71px" viewBox="0 0 77 71">
<defs>
<g id="Symbol_11_0_Layer0_0_FILL">
<path fill="#FFFFFF" stroke="none" d="
M 64.8 40.6
L 64.8 5
Q 64.8 0 59.8 0
L 5 0
Q 0 0 0 5
L 0 40.6
Q 0 45.6 5 45.6
L 59.8 45.6
Q 64.8 45.6 64.8 40.6
M 59.6 14.1
L 59.6 35.85
Q 59.6 39.5 55.4 39.5
L 9.6 39.5
Q 5.4 39.5 5.4 35.85
L 5.4 13.9 33.6 36.2 59.6 14.1
M 55.4 6.2
Q 57.6 6.2 58.65 7.2
L 33.15 28.2 6.65 6.95
Q 7.7 6.2 9.6 6.2
L 55.4 6.2 Z"/>
</g>
</defs>

<g transform="matrix( 1, 0, 0, 1, 6.6,15.2) ">
<g transform="matrix( 1, 0, 0, 1, 0,0) ">
<use xlink:href="#Symbol_11_0_Layer0_0_FILL"/>
</g>
</g>
</svg>
