<?xml version="1.0" encoding="UTF-8" standalone="no"?>
<svg
   xmlns:dc="http://purl.org/dc/elements/1.1/"
   xmlns:cc="http://creativecommons.org/ns#"
   xmlns:rdf="http://www.w3.org/1999/02/22-rdf-syntax-ns#"
   xmlns:svg="http://www.w3.org/2000/svg"
   xmlns="http://www.w3.org/2000/svg"
   xmlns:sodipodi="http://sodipodi.sourceforge.net/DTD/sodipodi-0.dtd"
   xmlns:inkscape="http://www.inkscape.org/namespaces/inkscape"
   width="41.513229"
   height="36.748638"
   viewBox="0 0 10.983708 9.7230768"
   version="1.1"
   id="svg880"
   inkscape:version="1.0.2 (1.0.2+r75+1)"
   sodipodi:docname="icon_monitor-2.svg">
  <defs
     id="defs874" />
  <sodipodi:namedview
     id="base"
     pagecolor="#ffffff"
     bordercolor="#666666"
     borderopacity="1.0"
     inkscape:pageopacity="0.0"
     inkscape:pageshadow="2"
     inkscape:zoom="7.9195959"
     inkscape:cx="14.582074"
     inkscape:cy="35.311344"
     inkscape:document-units="mm"
     inkscape:current-layer="layer1"
     inkscape:document-rotation="0"
     showgrid="false"
     fit-margin-top="0"
     fit-margin-left="0"
     fit-margin-right="0"
     fit-margin-bottom="0"
     inkscape:window-width="1237"
     inkscape:window-height="969"
     inkscape:window-x="43"
     inkscape:window-y="27"
     inkscape:window-maximized="1"
     units="px" />
  <metadata
     id="metadata877">
    <rdf:RDF>
      <cc:Work
         rdf:about="">
        <dc:format>image/svg+xml</dc:format>
        <dc:type
           rdf:resource="http://purl.org/dc/dcmitype/StillImage" />
        <dc:title></dc:title>
      </cc:Work>
    </rdf:RDF>
  </metadata>
  <g
     inkscape:label="Layer 1"
     inkscape:groupmode="layer"
     id="layer1"
     transform="translate(-104.12125,-21.596795)">
    <path
       fill="#0b2b4a"
       stroke="none"
       d="m 108.74252,29.541261 v 0.58975 l -2.38708,0.58351 v 0.605352 h 6.38116 v -0.66776 l -2.37149,-0.546065 v -0.564787 h -1.62259 m 6.36244,-7.632429 q 0,-0.312037 -0.31204,-0.312037 h -10.35963 q -0.31204,0 -0.31204,0.312037 v 6.178336 q 0,0.312037 0.31204,0.312037 h 10.35963 q 0.31204,0 0.31204,-0.312037 v -6.178336 m -5.63227,2.296594 2.01264,-0.0156 q 0.17786,-0.0031 0.23402,0.159139 v 0.405648 q -0.0406,0.193463 -0.1841,0.187222 l -2.23418,0.05617 -0.24963,0.312037 v 2.652316 h -2.58991 v -0.461815 q -0.0218,-0.01248 -0.0437,-0.02496 -0.16538,-0.112333 -0.34636,-0.343241 -0.1841,-0.234028 -0.43061,-0.602232 -0.24651,-0.371324 -0.35884,-0.539824 -0.11546,-0.17162 -0.0125,-0.393167 0.10297,-0.224666 0.52734,-0.692722 0.42125,-0.468056 0.6428,-0.571028 0.21842,-0.106093 0.66464,-0.255871 l 0.44621,0.889306 v -0.686482 l 0.3682,0.0031 0.0156,0.714565 0.39005,-0.939232 1.1483,0.146658 m -1.23879,-1.900307 q 0.21843,0.265232 0.21843,0.642797 0,0.358843 -0.19659,0.614713 -0.0156,0.01248 -0.1529,0.262111 -0.13729,0.24963 -0.39628,0.24651 -0.25899,-0.0031 -0.39005,-0.243389 -0.13418,-0.240269 -0.15602,-0.265232 -0.19658,-0.25587 -0.19658,-0.614713 0,-0.377565 0.21842,-0.642797 0.21843,-0.265231 0.52735,-0.265231 0.30891,0 0.52422,0.265231 z"
       id="path1460"
       style="stroke-width:0.0624074;fill:#000000" />
  </g>
</svg>
