<?xml version="1.0" encoding="UTF-8"?><svg id="ISC_2023" xmlns="http://www.w3.org/2000/svg" viewBox="0 0 136.34 136.34"><defs><style>.cls-1{fill:#fff;}</style></defs><path class="cls-1" d="m69.42,134.2c.21.29.36.61.36.96,0,.43-.19.84-.51,1.17-.06,0-.12,0-.18,0-.33-.33-.52-.74-.52-1.17,0-.34.14-.66.36-.96h-.02c.07-.1.13-.22.22-.31l.04-.04h0s.06.06.06.06c.09.09.14.2.21.3h-.02Zm-.3-131.11l.06.05h0s.06-.05.06-.05c.35-.33.55-.77.55-1.22,0-.35-.15-.67-.36-.96h.02c-.07-.1-.12-.21-.21-.3l-.06-.06h0s-.04.05-.04.05c-.1.09-.15.21-.22.31h.02c-.22.29-.36.61-.36.96,0,.45.2.88.55,1.22Zm-31.08,98.27c0-1.15.39-2.23,1.09-3.12l-25.42-23.96h0s-11.28,10.63-11.28,10.63c3.45,13.65,11.02,25.65,21.3,34.62l15.42-15c-.72-.89-1.11-2-1.11-3.17Zm-24.39-31.63l.06.05h0s.06-.05.06-.05c.35-.33.55-.77.55-1.22,0-.35-.15-.67-.36-.96h.02c-.07-.1-.12-.21-.21-.3l-.06-.06h0s-.04.05-.04.05c-.1.09-.15.21-.22.31h.02c-.22.29-.36.61-.36.96,0,.45.2.88.55,1.22Zm-3.7-1.21c0-.33.03-.65.09-.96h0c.18-.99.65-1.89,1.36-2.63L1.57,55.37c-.79,4.15-1.22,8.43-1.22,12.81s.44,8.82,1.26,13.05l9.76-9.2c-.91-.95-1.41-2.18-1.42-3.5Zm86.96,38.3l14.62,14.23c-10.69,8.71-24.08,14.23-38.71,15.14.07-.34.11-.68.11-1.03,0-.33-.03-.65-.09-.96h0c-.18-.99-.65-1.9-1.36-2.63l6.12-5.96c-.97-.58-1.91-1.16-2.87-1.74l-5.56,5.41h0s-5.39-5.25-5.39-5.25c-.95.58-1.9,1.16-2.87,1.74l5.96,5.8c-.72.73-1.18,1.64-1.36,2.63h0c-.06.31-.09.64-.09.96,0,.38.05.75.13,1.1-14.83-.64-28.42-6.01-39.32-14.65l15.21-14.79h0s1.65-12.41,1.65-12.41l-1.64,1.55-25.4-23.94c.91-.95,1.41-2.18,1.42-3.5,0-.33-.03-.65-.09-.96h0c-.18-.99-.65-1.9-1.36-2.63l12.55-12.21c-.45-.96-.7-2.02-.7-3.1,0-.26.01-.52.04-.78l-14.2,13.81h0s-11.32-11.02-11.32-11.02c3.41-13.66,10.94-25.68,21.19-34.69l11.06,10.43c.81-.8,1.8-1.38,2.9-1.73l-11.46-10.8C37.05,6.1,50.78.68,65.75.08c-.1.27-.19.55-.24.84h0c-.06.31-.09.64-.09.96,0,1.32.51,2.55,1.42,3.5l-9.33,8.8,2.51.87,3.77-4.35c1.18-1.36,2.85-2.17,4.66-2.37l.72-.68h0s.7.66.7.66c1.9.15,3.67.98,4.89,2.4l3.77,4.35,2.36-.82-9.39-8.85c.91-.95,1.41-2.18,1.42-3.5,0-.33-.03-.65-.09-.96h0c-.05-.27-.12-.53-.21-.78,14.77.88,28.28,6.46,39.05,15.27l-10.81,10.19c1.11.32,2.12.89,2.95,1.68l10.33-9.74c10.16,9.16,17.54,21.35,20.75,35.14l-10.26,9.98h0s-13.97-13.6-13.97-13.6c.01.19.03.37.03.56,0,1.14-.27,2.24-.77,3.24l12.42,12.08c-.72.73-1.18,1.64-1.36,2.63h0c-.06.31-.09.64-.09.96,0,1.32.51,2.55,1.42,3.5l-25.4,23.94-1.92-1.81,1.71,12.87.21-.2Zm-49.13-35.72l1.66,8.62c.15.8.65,1.49,1.35,1.9.43.25.92.38,1.4.38.31,0,.62-.05.92-.15l5.21-1.8h0l.11-.04.1-.04.14-.05.67-.23,2.05-.71,1.25,1.44h0l4.49,5.19c.53.62,1.31.97,2.12.97s1.59-.35,2.12-.97l5.75-6.63,2.75.95h0s5.54,1.92,5.54,1.92c.3.1.61.15.92.15.49,0,.97-.13,1.4-.38.71-.41,1.2-1.1,1.35-1.9l1.66-8.62,8.62-1.66c.8-.15,1.49-.65,1.9-1.35.41-.71.49-1.55.22-2.32l-2.87-8.29,6.63-5.74c.62-.53.97-1.31.97-2.12,0-.46-.13-.91-.34-1.31-.01-.02-.03-.04-.04-.07-.16-.28-.35-.53-.59-.75l-6.63-5.74,2.87-8.29c.27-.77.19-1.62-.22-2.32-.29-.51-.74-.9-1.26-1.14,0,0-.01,0-.02-.01-.2-.09-.41-.16-.63-.2l-2.46-.47h0s-4.57-.88-4.57-.88l-1.43-.28h0l-.16-.03-.03-.14h0l-1.05-5.45h0s-.58-3.02-.58-3.02c-.15-.8-.65-1.49-1.35-1.9-.43-.25-.92-.38-1.4-.38-.31,0-.62.05-.92.15l-2.42.84-1.92.67h0l-3.95,1.37-5.75-6.63c-.53-.62-1.33-.92-2.12-.92s-1.59.31-2.12.92l-5.74,6.63-6.3-2.18-1.27-.44h0l-.73-.25c-.3-.1-.61-.15-.92-.15-.49,0-.97.13-1.4.38-.71.41-1.2,1.1-1.35,1.9l-1.34,6.93-.25,1.3h0l-.07.38-.42.08h0s-8.2,1.58-8.2,1.58c-.24.05-.46.13-.67.23-.02,0-.03.02-.05.03-.21.1-.39.23-.57.38h0c-.24.2-.45.43-.61.71-.41.71-.49,1.55-.22,2.32l2.27,6.55.58,1.69h0l.02.06-.7.61h0s-5.93,5.14-5.93,5.14c-.2.18-.37.39-.51.61-.03.05-.07.11-.1.16-.13.23-.23.47-.29.73,0,0,0,0,0,0h0c-.05.2-.07.41-.07.62,0,.81.35,1.59.97,2.12l6.63,5.74-2.87,8.29c-.27.77-.19,1.62.22,2.32.41.71,1.1,1.2,1.9,1.35l8.62,1.66Zm46.65,52.73c-.74-5.61-1.49-11.23-2.23-16.84,0-.03,0-.06-.01-.1-.55-4.16-1.1-8.32-1.65-12.48h0c-.11-.86-.23-1.72-.34-2.58-.27-2.02-.54-4.04-.8-6.05-.21.1-.43.18-.65.26-.05.02-.11.04-.16.06-.19.06-.38.12-.57.16-.12.03-.24.05-.36.07-.14.03-.29.06-.43.07-.28.03-.57.06-.85.06-.81,0-1.61-.13-2.38-.4l-5.44-1.88-3.77,4.35c-1.38,1.59-3.38,2.51-5.49,2.51s-4.11-.91-5.49-2.51l-3.77-4.35-2.11.73h0s-3.34,1.16-3.34,1.16c-.76.26-1.56.39-2.36.39-.21,0-.42-.02-.63-.04,0,0,0,0,0,0-.98-.09-1.94-.37-2.81-.84-1.69,12.75-3.38,25.51-5.07,38.26-.17,1.31.71,2.58,2.09,3.21.56.26,1.38.4,2.07.4.89,0,1.8-.24,2.56-.67,2.41-1.39,4.8-2.81,7.19-4.24h0s.01,0,.02-.01c.96-.57,1.92-1.13,2.87-1.71,0,0,0,0,0,0,2.99-1.81,5.96-3.65,8.9-5.53,2.86,1.82,5.75,3.6,8.66,5.36,0,0,0,0,0,0,3.43,2.08,6.88,4.12,10.35,6.12.77.44,1.65.67,2.54.67.67,0,1.18-.14,1.76-.4,1.33-.62,1.92-1.85,1.73-3.21Zm2.22-22.47c0,.3.09.59.26.85.17-.26.26-.55.26-.85,0-.3-.09-.59-.26-.85-.16.26-.26.55-.26.85Zm39.01-44.92l-8.72,8.48c.71.73,1.18,1.64,1.36,2.63h0c.06.31.09.63.09.96,0,1.32-.51,2.55-1.42,3.5l8.64,8.14c.69-3.9,1.07-7.9,1.07-11.99s-.36-7.91-1.03-11.73Zm-11.02,17.84l-25.41,23.95c.7.89,1.08,1.97,1.08,3.12,0,1.17-.39,2.27-1.11,3.17l14.8,14.4c10.18-9.13,17.59-21.28,20.84-35.04l-10.2-9.62h0Zm.06-4.55c.35-.33.55-.77.55-1.22,0-.35-.15-.67-.36-.96h.02c-.07-.1-.12-.21-.21-.3l-.06-.06h0s-.04.05-.04.05c-.1.09-.15.21-.22.31h.02c-.22.29-.36.61-.36.96,0,.45.2.88.55,1.22l.06.05h0s.06-.05.06-.05Zm-83.26,30.78c-.16.26-.26.55-.26.85,0,.3.09.59.26.85.17-.26.26-.55.26-.85,0-.3-.09-.59-.26-.85Zm50.86-34.07s-.07,0-.11,0c-.4,0-.74-.29-.79-.7-.12-.92-.4-1.88-.66-2.81l-.04-.15c-.12-.43.13-.87.55-.99.07-.02.15-.03.22-.03.35,0,.67.23.77.58l.04.15c.27.94.57,2,.71,3.03.06.44-.25.84-.69.9Zm2.02-3.05c-.08.03-.17.04-.25.04-.34,0-.65-.22-.76-.55-.32-.99-.69-1.96-1.08-2.89-.17-.41.02-.88.43-1.05.1-.04.21-.06.31-.06.31,0,.61.18.74.49.41.97.79,1.98,1.13,3.02.14.42-.09.87-.51,1.01Zm1.55-3.28c-.11.05-.23.08-.34.08-.3,0-.59-.17-.73-.46l-.2-.42c-.38-.79-.73-1.55-1.2-2.27-.24-.37-.14-.87.23-1.11.14-.09.29-.13.44-.13.26,0,.52.13.67.36.54.81.92,1.62,1.32,2.46l.2.42c.19.4.02.88-.38,1.07Zm1.1-3.42c-.13.07-.26.11-.4.11-.28,0-.55-.14-.7-.4-.43-.75-.99-1.54-1.74-2.47-.28-.34-.22-.85.12-1.13.15-.12.33-.18.5-.18.23,0,.47.1.63.3.81,1,1.41,1.85,1.89,2.68.22.38.09.88-.3,1.1Zm.73-3.57c-.15.12-.33.18-.51.18-.23,0-.47-.1-.62-.3-.68-.84-1.44-1.62-2.08-2.27-.31-.31-.31-.82,0-1.14.16-.16.36-.23.57-.23s.41.08.57.24c.68.68,1.47,1.49,2.2,2.39.28.35.23.85-.12,1.13Zm.22-3.95c-.16.17-.38.26-.59.26-.19,0-.39-.07-.54-.21-.84-.77-1.56-1.4-2.33-1.97-.36-.26-.43-.77-.17-1.12.16-.21.4-.33.65-.33.17,0,.33.05.48.16.83.61,1.58,1.27,2.46,2.07.33.3.35.81.05,1.13Zm-.28-3.6c-.16.21-.4.33-.65.33-.17,0-.33-.05-.48-.16-.96-.71-1.75-1.22-2.54-1.63-.39-.21-.54-.69-.34-1.08.14-.27.42-.43.71-.43.13,0,.25.03.37.09.87.46,1.72,1,2.75,1.76.36.26.43.77.17,1.12Zm-.71-3.53c-.15.25-.42.39-.69.39-.14,0-.28-.04-.41-.12-.74-.44-1.6-.81-2.44-1.16l-.32-.13c-.41-.17-.6-.64-.43-1.05.13-.31.43-.49.74-.49.1,0,.21.02.31.06l.31.13c.85.36,1.81.76,2.65,1.26.38.23.5.72.27,1.1Zm-1.13-3.48c-.12.32-.43.52-.75.52-.09,0-.19-.02-.28-.05-.98-.37-1.97-.69-2.93-.96-.43-.12-.68-.56-.56-.99.1-.35.42-.59.77-.59.07,0,.14,0,.22.03,1,.28,2.03.62,3.06,1,.42.15.63.62.47,1.03Zm-2.2-4.22c.43.1.7.53.6.97-.09.37-.42.62-.78.62-.06,0-.12,0-.18-.02l-.25-.06c-.93-.22-1.8-.43-2.72-.51-.44-.04-.77-.43-.72-.87.04-.41.39-.73.79-.73.03,0,.06,0,.09,0,1.04.1,1.96.32,2.94.55l.25.06Zm-2.06-2.95c.44.07.74.48.67.92-.06.4-.4.68-.79.68-.04,0-.08,0-.12,0-.97-.15-2.03-.18-3.03-.18-.44,0-.8-.36-.8-.81,0-.44.38-.79.81-.8,1.06,0,2.19.03,3.26.2Zm-2.48-2.68s0,0,0,0c.43,0,.8.34.82.78.01.44-.34.81-.78.82-1.05.03-2.09.1-3.08.2-.03,0-.06,0-.09,0-.4,0-.75-.31-.8-.72-.05-.44.27-.84.71-.89,1.04-.11,2.12-.19,3.22-.21Zm-3.04-2.51s.08,0,.12,0c.39,0,.73.29.79.69.06.44-.24.85-.68.91-1.11.16-2.04.32-2.97.6-.08.02-.15.03-.23.03-.35,0-.66-.22-.77-.57-.13-.42.11-.87.54-1,1.02-.31,2.02-.48,3.2-.65Zm-2.84-1.97c.37,0,.69.25.78.62.1.43-.17.86-.6.96-.87.2-1.77.56-2.64.9l-.23.09c-.1.04-.19.06-.29.06-.32,0-.62-.19-.75-.51-.16-.41.04-.88.46-1.04l.23-.09c.88-.35,1.88-.74,2.86-.97.06-.01.12-.02.18-.02Zm-3.19-1.57c.31,0,.6.18.73.48.18.41,0,.88-.41,1.06-.95.42-1.89.87-2.77,1.36-.12.07-.25.1-.38.1-.28,0-.56-.15-.71-.42-.21-.39-.07-.88.32-1.09.92-.5,1.89-.98,2.89-1.42.11-.05.22-.07.32-.07Zm-3.79-1.01c.13-.08.27-.12.41-.12.27,0,.54.14.69.39.23.38.11.87-.27,1.1l-.37.22c-.77.46-1.49.89-2.17,1.44-.15.12-.33.18-.5.18-.23,0-.47-.1-.63-.3-.28-.35-.22-.85.12-1.13.77-.62,1.54-1.08,2.35-1.57l.36-.22Zm-3.71-.54l.16-.12c.15-.11.32-.16.49-.16.24,0,.48.11.64.32.27.35.2.86-.15,1.13l-.16.12c-.35.27-.7.53-1.03.82-.38.34-.76.7-1.12,1.05-.16.15-.36.23-.56.23s-.42-.08-.57-.24c-.31-.32-.3-.83.01-1.14.38-.37.77-.74,1.18-1.11.37-.32.74-.6,1.12-.89Zm-3.93,33.47v-3.79h-7.86c-1.22,0-2.05-.28-2.48-.83-.43-.56-.64-1.59-.64-3.1v-1.84c0-1.51.21-2.54.64-3.1.43-.56,1.26-.83,2.48-.83h7.16c1.19,0,2,.27,2.45.8.45.54.67,1.48.67,2.85v.35l-2.59.8v-1.89h-8.26v3.57h7.86c1.23,0,2.07.28,2.5.83.43.56.65,1.59.65,3.1v2.28c0,1.51-.22,2.54-.65,3.1-.43.56-1.27.83-2.5.83h-7.79c-1.23,0-2.07-.28-2.5-.83-.43-.56-.65-1.59-.65-3.1v-.46l2.59-.71v1.97h8.91Zm.48-33.81c.16-.15.36-.22.55-.22.21,0,.42.08.58.25.31.32.29.83-.03,1.14-.71.68-1.37,1.47-2.05,2.28-.16.19-.39.29-.62.29-.18,0-.36-.06-.51-.18-.34-.28-.39-.79-.11-1.13.71-.86,1.41-1.68,2.18-2.42Zm-5.47,2.91c.56-.88,1.18-1.77,1.85-2.63.16-.21.4-.32.64-.32.17,0,.34.05.49.17.35.27.42.77.15,1.13-.63.83-1.23,1.68-1.77,2.52-.15.24-.41.37-.68.37-.15,0-.3-.04-.43-.13-.37-.24-.48-.74-.24-1.11Zm-3.5,1.08c.45-1.13,1.01-2.11,1.48-2.91.15-.25.42-.39.69-.39.14,0,.28.04.41.11.38.23.51.72.28,1.1-.63,1.07-1.05,1.87-1.38,2.69-.13.31-.43.5-.74.5-.1,0-.2-.02-.3-.06-.41-.17-.61-.63-.44-1.04Zm-3.03,1.32l.1-.33c.27-.88.58-1.87,1-2.75.14-.29.43-.46.73-.46.12,0,.23.02.34.08.4.19.57.67.38,1.07-.37.78-.65,1.67-.91,2.54l-.1.33c-.11.34-.42.56-.77.56-.08,0-.16-.01-.24-.04-.42-.13-.66-.58-.53-1.01Zm-2.17-1.42c.1-.36.42-.6.78-.6.07,0,.14,0,.2.03.43.11.68.55.57.98-.27,1.01-.49,2.02-.67,3.01-.07.39-.41.66-.79.66-.05,0-.09,0-.14-.01-.44-.08-.73-.49-.65-.93.18-1.03.41-2.08.69-3.14Zm-3.01,2.14c.06-.41.41-.74.82-.74.03,0,.06,0,.09,0,.44.06.75.41.69.85v.11c-.15,1-.28,1.94-.28,2.91,0,.44-.36.8-.8.8h0c-.44,0-.8-.36-.8-.8,0-1.09.13-2.08.28-3.14Zm1.19,14.29v16.63h-2.94v-16.63h2.94Zm-3.91-12.06c.02-.42.35-.76.78-.76.02,0,.04,0,.07,0,.44.03.78.4.76.85-.06.96.02,1.98.11,3.03.04.44-.29.83-.73.87-.02,0-.05,0-.07,0-.41,0-.76-.32-.8-.73-.1-1.11-.18-2.2-.12-3.27Zm-1.73,1.84s.07,0,.1,0c.4,0,.75.3.8.71.13,1.04.3,2.07.5,3.05.09.43-.19.86-.62.95-.06.01-.11.02-.16.02-.37,0-.71-.26-.79-.64-.21-1.02-.39-2.09-.52-3.18-.05-.44.26-.84.7-.89Zm-2.15,2.92c.07-.02.13-.03.2-.03.36,0,.68.24.78.61l.1.41c.22.87.42,1.69.75,2.5.17.41-.03.88-.44,1.04-.1.04-.2.06-.3.06-.32,0-.62-.19-.74-.5-.37-.91-.59-1.79-.82-2.71l-.1-.4c-.11-.43.15-.87.58-.98Zm-1.89,3.43c.09-.03.17-.04.26-.04.34,0,.65.21.76.55.28.82.71,1.66,1.12,2.47l.15.29c.2.4.04.88-.35,1.08-.12.06-.24.09-.36.09-.29,0-.58-.16-.72-.44l-.15-.29c-.42-.82-.9-1.76-1.21-2.69-.14-.42.08-.88.5-1.02Zm-1.39,3.39c.12-.07.26-.1.39-.1.28,0,.55.15.7.41.51.91,1.06,1.79,1.62,2.62.25.37.15.87-.21,1.12-.14.09-.3.14-.45.14-.26,0-.51-.12-.66-.35-.59-.87-1.16-1.79-1.69-2.74-.22-.39-.08-.88.31-1.09Zm-.87,3.52c.14-.11.31-.16.48-.16.25,0,.49.11.65.32l.18.25c.56.75,1.09,1.47,1.72,2.12.31.32.3.83-.02,1.14-.16.15-.36.23-.56.23s-.42-.08-.58-.25c-.7-.73-1.26-1.48-1.85-2.28l-.18-.25c-.26-.36-.19-.86.16-1.12Zm-.42,3.58c.15-.14.35-.21.54-.21.22,0,.43.09.59.26.35.39.71.75,1.06,1.11.36.33.75.67,1.14.99.34.29.38.79.1,1.13-.16.19-.39.29-.62.29-.18,0-.36-.06-.52-.19-.41-.34-.81-.69-1.22-1.07-.4-.4-.77-.78-1.13-1.19-.3-.33-.28-.84.05-1.13Zm0,3.61c.16-.18.38-.27.6-.27.19,0,.38.07.53.2.69.62,1.51,1.17,2.3,1.71l.15.1c.37.25.46.75.21,1.12-.15.23-.41.35-.67.35-.15,0-.31-.05-.45-.14l-.15-.1c-.8-.54-1.7-1.15-2.47-1.83-.33-.29-.36-.8-.07-1.13Zm.44,3.62c.15-.25.41-.38.68-.38.14,0,.29.04.42.12.89.55,1.79,1.06,2.68,1.51.4.2.55.68.35,1.08-.14.28-.42.44-.72.44-.12,0-.25-.03-.36-.09-.93-.47-1.88-1-2.8-1.58-.38-.23-.49-.73-.26-1.11Zm1.34,4.57c-.4-.18-.58-.66-.4-1.06.13-.3.43-.47.73-.47.11,0,.22.02.33.07l.4.18c.81.37,1.57.72,2.41.96.43.13.67.57.54,1-.1.35-.42.58-.77.58-.08,0-.15-.01-.23-.03-.95-.28-1.76-.65-2.62-1.04l-.39-.18Zm1.1,2.56c.12-.33.43-.53.76-.53.09,0,.18.01.27.05.82.29,1.75.48,2.65.67l.3.06c.43.09.71.51.62.95-.08.38-.41.64-.79.64-.05,0-.11,0-.16-.02l-.3-.06c-.91-.19-1.94-.4-2.87-.73-.42-.15-.64-.61-.49-1.03Zm1.79,3.19c.06-.39.41-.67.79-.67.04,0,.09,0,.13.01,1.03.17,2.06.29,3.05.37.44.03.77.42.74.86-.03.42-.38.74-.8.74-.02,0-.04,0-.06,0-1.04-.08-2.11-.21-3.19-.39-.44-.07-.73-.48-.66-.92Zm2.97,3.71c-.44-.02-.79-.39-.77-.84.02-.42.37-.77.78-.77.02,0,.04,0,.06,0,.54.02,1.08.05,1.64.05.46,0,.92-.02,1.4-.06.02,0,.04,0,.06,0,.41,0,.78.3.82.72.04.44-.28.83-.72.88-.53.05-1.05.07-1.55.07-.6,0-1.17-.02-1.7-.05Zm2.59,2.49s-.02,0-.03,0c-.43,0-.79-.34-.8-.77-.02-.44.33-.82.77-.83.98-.04,2.06-.24,3.01-.41.05,0,.1-.01.14-.01.38,0,.72.27.79.66.08.44-.21.85-.64.94-1,.18-2.14.39-3.24.44Zm2.78,2.17c-.37,0-.7-.25-.78-.63-.1-.43.18-.86.61-.96,1.02-.23,2.02-.49,2.98-.79.08-.03.16-.04.24-.04.34,0,.66.22.77.57.13.42-.1.87-.53,1.01-1,.31-2.05.59-3.11.83-.06.01-.12.02-.17.02Zm3.36,1.71c-.09.03-.18.05-.27.05-.33,0-.64-.2-.76-.53-.15-.42.07-.88.48-1.03l.44-.16c.83-.3,1.61-.58,2.38-.98.12-.06.25-.09.37-.09.29,0,.57.16.71.43.21.39.06.88-.34,1.08-.86.45-1.7.75-2.58,1.07l-.43.16Zm3.33,1.35c-.11.05-.22.07-.33.07-.31,0-.6-.18-.73-.47-.18-.4,0-.88.4-1.06.77-.35,1.61-.82,2.63-1.49.14-.09.29-.13.44-.13.26,0,.52.13.67.36.24.37.14.87-.23,1.11-1.1.72-2,1.23-2.85,1.61Zm3.4,1.1c-.25,0-.5-.12-.66-.34-.25-.36-.17-.86.2-1.12.85-.6,1.68-1.23,2.45-1.88.15-.13.33-.19.52-.19.23,0,.46.1.62.29.28.34.24.85-.1,1.13-.81.67-1.67,1.33-2.56,1.96-.14.1-.3.15-.46.15Zm4.06.24c-.15.14-.35.21-.54.21-.22,0-.44-.09-.6-.26-.3-.33-.27-.84.06-1.13.78-.71,1.52-1.37,2.18-2.13.16-.18.38-.27.6-.27.19,0,.38.07.53.2.33.29.37.8.08,1.13-.72.82-1.49,1.52-2.31,2.26Zm5.52-2.45c-.27.4-.56.81-.86,1.18-.34.41-.69.82-1.05,1.23-.16.18-.38.27-.6.27-.19,0-.38-.07-.54-.21-.33-.3-.36-.8-.06-1.13.35-.39.68-.78,1-1.17.27-.34.53-.72.78-1.08l.1-.14c.16-.23.41-.35.66-.35.16,0,.32.05.46.14.36.25.45.75.2,1.12l-.1.14Zm3.34-.86l-.14.26c-.44.82-.95,1.75-1.54,2.54-.16.21-.4.33-.65.33-.17,0-.33-.05-.48-.16-.36-.26-.43-.77-.17-1.12.52-.71.98-1.54,1.42-2.35l.14-.26c.15-.27.42-.42.71-.42.13,0,.26.03.38.1.39.21.53.7.32,1.09Zm3.14-1.12c-.38.98-.82,1.97-1.29,2.95-.14.28-.42.45-.72.45-.12,0-.24-.03-.35-.08-.4-.2-.56-.68-.37-1.07.46-.93.87-1.88,1.24-2.82.12-.32.43-.51.75-.51.1,0,.2.02.29.06.41.16.62.63.46,1.04Zm2.17,1.18l-.12.35c-.11.33-.43.55-.76.55-.09,0-.17-.01-.26-.04-.42-.14-.65-.6-.5-1.02l.12-.36c.29-.86.57-1.68.74-2.55.07-.38.41-.65.79-.65.05,0,.1,0,.15.01.44.08.72.5.64.94-.19.98-.49,1.85-.8,2.77Zm3.01-1.41c-.09.36-.42.6-.78.6-.07,0-.13,0-.2-.03-.43-.11-.69-.55-.58-.98.25-.99.38-2.07.47-2.99.04-.42.4-.72.8-.72.03,0,.05,0,.08,0,.44.04.76.44.72.88-.1.98-.24,2.14-.52,3.23Zm3.15-2.43c-.03.42-.38.75-.8.75-.02,0-.04,0-.05,0-.44-.03-.78-.41-.75-.85.07-1.04.09-2.07.07-3.07,0-.44.34-.81.79-.82.4,0,.81.34.82.79.02,1.04,0,2.12-.08,3.21Zm.29-24.33l-2.94.61v-3.15h-7.91v10.53h7.91v-3.57l2.94.8v1.97c0,1.52-.22,2.56-.65,3.11-.43.55-1.26.83-2.48.83h-7.53c-1.23,0-2.05-.28-2.48-.83-.43-.55-.64-1.59-.64-3.11v-8.76c0-1.51.21-2.54.64-3.1.43-.56,1.26-.83,2.48-.83h7.53c1.22,0,2.04.28,2.48.83.43.56.65,1.59.65,3.1v1.57Zm1.5,22.61s-.03,0-.04,0c-.43,0-.78-.33-.8-.76-.05-1.01-.11-2-.31-3.01-.09-.44.2-.86.63-.94.05,0,.1-.01.15-.01.38,0,.71.26.79.65.22,1.12.29,2.17.34,3.24.02.44-.32.82-.76.84Z"/></svg>