<?xml version="1.0" encoding="UTF-8"?>
<svg id="Layer_1" xmlns="http://www.w3.org/2000/svg" version="1.1" xmlns:xlink="http://www.w3.org/1999/xlink" viewBox="0 0 1280 720">
  <!-- Generator: Adobe Illustrator 29.3.1, SVG Export Plug-In . SVG Version: 2.1.0 Build 151)  -->
  <defs>
    <style>
      .st0 {
        fill: #575047;
      }

      .st1 {
        fill: #d5c9b7;
      }

      .st2 {
        fill: url(#linear-gradient1);
      }

      .st3 {
        fill: #19893a;
      }

      .st4 {
        fill: #040506;
      }

      .st5 {
        fill: #f81c23;
      }

      .st6 {
        fill: #968a7b;
      }

      .st7 {
        fill: #fff;
        filter: url(#drop-shadow-1);
      }

      .st8 {
        fill: #0f4a7c;
      }

      .st9 {
        fill: #ffd927;
      }

      .st10 {
        fill: url(#linear-gradient);
      }

      .st11 {
        fill: #fffadb;
      }
    </style>
    <filter id="drop-shadow-1" x="409" y="121" width="379" height="349" filterUnits="userSpaceOnUse">
      <feOffset dx="3" dy="3"/>
      <feGaussianBlur result="blur" stdDeviation="3"/>
      <feFlood flood-color="#000" flood-opacity=".8"/>
      <feComposite in2="blur" operator="in"/>
      <feComposite in="SourceGraphic"/>
    </filter>
    <linearGradient id="linear-gradient" x1="-277.1" y1="-91.8" x2="-267.8" y2="-107.7" gradientTransform="translate(2639.3 998.7) scale(7.5)" gradientUnits="userSpaceOnUse">
      <stop offset="0" stop-color="#ffd927"/>
      <stop offset="1" stop-color="#0f4a7c"/>
    </linearGradient>
    <linearGradient id="linear-gradient1" x1="817.1" y1="226.1" x2="747.7" y2="266.2" gradientTransform="translate(65 -735) rotate(45) scale(1.4)" gradientUnits="userSpaceOnUse">
      <stop offset="0" stop-color="#0f4a7c"/>
      <stop offset="1" stop-color="#ffd927"/>
    </linearGradient>
  </defs>
  <path class="st7" d="M595.9,458c-5.8,0-11.6-1.4-16.8-4l-141-70.5c-13.8-6.9-22.3-20.6-22.3-36v-204.1c0-8.9,7.2-16.1,16.1-16.1h327.9c8.9,0,16.1,7.2,16.1,16.1v204.1c0,15.4-8.5,29.1-22.3,36l-141,70.5c-5.2,2.6-11,4-16.8,4h0Z"/>
  <g id="Layer_11" data-name="Layer_1">
    <g id="Layer6_0_MEMBER_1_MEMBER_0_FILL">
      <path class="st8" d="M437.4,514.1c-6-2.2-14.7-3.4-26.1-3.4s-20.6,1-26.1,3c-10.7,3.5-17.1,9.7-19.4,18.6-1.7,6.2-2.6,17.6-2.6,34.3s.4,15,1.1,19c1.7,9.4,6.3,16.4,13.8,20.9,6,3.5,15.9,5.2,29.8,5.2s21.4-1,27.6-3c6.5-2.2,11.3-6,14.5-11.2,2.5-3.7,4.1-7.9,4.8-12.7.7-4.5,1.1-12.2,1.1-23.1s-.5-21.7-1.5-25.7c-2.2-10.4-7.9-17.8-17.1-22M426.9,539.8c1,3.2,1.5,10.1,1.5,20.5s-.6,18.3-1.9,21.2c-1,3-2.6,5-4.8,6-2.2.7-6.1,1.1-11.6,1.1-9.2,0-14.7-1.2-16.4-3.7-2-2.5-3-9.9-3-22.4s.6-20.4,1.9-23.1c1.2-2.2,3.1-3.7,5.6-4.5,2.2-.7,6.3-1.1,12.3-1.1s8.9.4,11.2,1.1c2.5.7,4.2,2.4,5.2,4.8h0Z"/>
    </g>
    <g id="Layer6_0_MEMBER_1_MEMBER_1_FILL">
      <path class="st8" d="M549.5,527.9c-1.7-5.2-5-9.2-9.7-11.9-3.2-1.7-6.2-3-8.9-3.7-2.7-.5-7-.7-12.7-.7h-49.9v99.5h26.8v-25.3l35.4-.7c7-1,12-3.6,15.3-7.8,4.5-5.2,6.7-14.4,6.7-27.6s-1-16.6-3-21.6M495.1,533.5h16.8c3.5,0,6.3.4,8.6,1.1,3,1.2,4.5,5.7,4.5,13.4s-.6,10.6-1.9,12.3c-1.5,1.5-5.2,2.2-11.2,2.2h-16.8v-29.1h0Z"/>
    </g>
    <g id="Layer6_0_MEMBER_1_MEMBER_2_FILL">
      <path class="st8" d="M603.5,510.8c-9.7,0-17,.5-22,1.5-4.7.7-8.8,2.4-12.3,4.8-5.5,4-8.2,11.8-8.2,23.5s1.2,15.2,3.7,19.4,6.8,7.2,13,8.9c4.2,1,14,2,29.4,3,5.2.2,8.7.9,10.4,1.9,1.5,1.2,2.2,3.6,2.2,7.1s-1,6.3-3,7.8c-1,1-2.2,1.6-3.7,1.9-1,.2-3.7.4-8.2.4s-10.1,0-11.6-.4c-1.7,0-3.1-.5-4.1-1.5-2-1.2-3-4-3-8.2v-1.9h-25.7c0,10.2,1.4,17.6,4.1,22.4,2.7,4,6.8,6.7,12.3,8.2,6,1.5,15.3,2.2,27.9,2.2s17-.5,22-1.5c4.7-1.2,8.7-3.2,11.9-6,4.7-4,7.1-12.2,7.1-24.6s-1-14.2-3-17.9c-2.2-3.7-6.1-6.5-11.6-8.2-4-1.2-14.2-2.5-30.6-3.7-6.2-.5-9.8-1.2-10.8-2.2-1.5-1-2.2-3.2-2.2-6.7s1-6.6,3-7.8,6.3-1.9,13-1.9,9.4.6,11.2,1.9c1.7,1.2,2.6,3.9,2.6,7.8v1.5l25.3.4.4-4.5c0-8.2-1.9-14.5-5.6-19-2.5-3.2-6.2-5.5-11.2-6.7s-12.7-1.9-23.1-1.9h.4Z"/>
    </g>
    <g id="Layer6_0_MEMBER_1_MEMBER_3_FILL">
      <path class="st8" d="M731,533.5v-22h-71.9v99.5h72.7v-22h-46.2v-19.4h42.5v-18.3h-42.5v-17.9h45.5,0Z"/>
    </g>
    <g id="Layer6_0_MEMBER_1_MEMBER_4_FILL">
      <path class="st8" d="M789.8,510.8c-11.9,0-20.5.6-25.7,1.9-5,1.2-9.6,3.9-13.8,7.8-6.2,6.2-9.3,16.9-9.3,32s.6,29.7,1.9,35.4c1.7,9.4,7.1,16.3,16,20.5,4.5,2.2,14,3.4,28.7,3.4s14.2-.2,18.6-.7c5.5-1.2,10.1-3.4,13.8-6.3,3.5-3,5.8-6.3,7.1-10.1,1-3.5,1.5-9.6,1.5-18.3v-3h-26.1v3c0,5-1.1,8.3-3.4,10.1-2.2,1.7-6.6,2.6-13,2.6s-11.9-1.2-14.2-3.7c-2.2-2.2-3.4-7.3-3.4-15.3,0-16.6.5-26.5,1.5-29.4,1.5-4.5,6.5-6.7,14.9-6.7s14,1.4,15.3,4.1c1,1.7,1.5,4.8,1.5,9.3h26.5c0-5.2-.2-10.1-.7-14.5-1-8.9-5.1-15.2-12.3-18.6-5.2-2.2-13.7-3.4-25.3-3.4h0Z"/>
    </g>
    <g id="Layer6_0_MEMBER_2_MEMBER_1_FILL">
      <path class="st8" d="M760.8,346.1v-205.3h-330.5v205.3c0,10.2,4.5,17.5,13.4,22l142,71.2c6.7,3.2,13.2,3.2,19.4,0l142-71.2c9.2-4.5,13.8-11.8,13.8-22h-.1Z"/>
    </g>
    <g id="Layer6_0_MEMBER_2_MEMBER_2_MEMBER_0_FILL">
      <path class="st6" d="M723.2,249.2c-8.2-28.1-23.8-51.1-47-68.9-23.8-18.1-50.7-27.2-80.5-27.2s-68.2,13-94.3,39.1c-26.1,25.8-39.1,57.1-39.1,93.9s5.5,43.7,16.4,63.3l244.5-100.2h0Z"/>
    </g>
    <g id="Layer6_0_MEMBER_2_MEMBER_2_MEMBER_1_FILL">
      <path class="st0" d="M728.4,286.1c0-11.9-1.5-23.5-4.5-34.7l-244.1,100.2c11.7,20.6,27.6,36.9,47.7,48.8,20.9,12.4,43.6,18.6,68.2,18.6,36.8,0,68.1-13,93.9-39.1,25.8-25.8,38.8-57.1,38.8-93.9h0Z"/>
    </g>
    <g id="Layer6_0_MEMBER_2_MEMBER_2_MEMBER_2_MEMBER_0_FILL">
      <path class="st9" d="M484.7,227.9l107.3,58.9,61.5-111.8c-30.3-15.9-61.7-18.9-94.3-8.9-32.5,9.7-57.1,29.6-73.8,59.6l-.7,2.2h0Z"/>
    </g>
    <g id="Layer6_0_MEMBER_2_MEMBER_2_MEMBER_2_MEMBER_1_FILL">
      <path class="st8" d="M629.2,406.8c33-9.4,58-28.9,74.9-58.5l-112.2-61.5-59.2,107.7,2.2,1.5c30.1,16.4,61.5,20,94.3,10.8Z"/>
    </g>
    <g id="Layer6_0_MEMBER_2_MEMBER_2_MEMBER_2_MEMBER_2_FILL">
      <path class="st3" d="M704.1,348.3v.4l1.1-2.2c16.6-30.3,20.1-62.1,10.4-95.4-9.7-33-29.7-58-60-74.9l-2.2-1.1-61.5,111.8,112.2,61.5h0Z"/>
    </g>
    <g id="Layer6_0_MEMBER_2_MEMBER_2_MEMBER_2_MEMBER_3_FILL">
      <path class="st5" d="M592,286.8l-107.3-58.9c-15.6,29.8-18.8,60.9-9.3,93.2,9.2,32.3,28.4,56.8,57.8,73.4l58.9-107.7h-.1Z"/>
    </g>
    <g id="Layer6_0_MEMBER_2_MEMBER_2_MEMBER_3_FILL">
      <path class="st8" d="M707.5,286.1c0-30.1-10.9-55.6-32.8-76.8-21.9-21.4-48.2-32-79-32s-57.4,10.6-79,31.7c-21.9,21.4-32.8,47.1-32.8,77.1s10.9,55.8,32.8,77.1c21.6,21.1,47.9,31.7,79,31.7s57.1-10.6,79-31.7c21.9-21.4,32.8-47.1,32.8-77.1M671.4,286.1c0,20.9-7.3,38.8-22,53.7-14.9,14.7-32.8,22-53.7,22s-39-7.3-53.7-22c-14.9-14.9-22.4-32.8-22.4-53.7s7.5-38.6,22.4-53.3c14.7-14.9,32.5-22.4,53.7-22.4s38.8,7.5,53.7,22.4,22,32.4,22,53.3Z"/>
    </g>
    <g id="Layer6_0_MEMBER_2_MEMBER_2_MEMBER_4_MEMBER_0_FILL">
      <path class="st11" d="M693,217.1c-13.9-19.6-32.4-33.7-55.5-42.1-27.1-9.9-54.4-10.1-82-.4-28.1,9.7-49.2,27-63.3,51.8-16.9,29.3-20.2,60.2-10.1,92.8,9.9,32.3,30.2,55.8,60.7,70.4,33.5,16.4,67.4,16.9,101.7,1.5,34.8-15.4,56.8-41,66-76.8,2.2-7.7,3.6-17.1,4.1-28.3-.5-.5-1.7-.6-3.7-.4-1.7,0-2.7.1-3,.4-1,10.9-1.7,17.5-2.2,19.7-2,9.2-5.5,18.9-10.4,29.1-5.5,10.2-11.3,18.6-17.5,25.3-1.5.5-2.4,1-2.6,1.5-11.4,11.4-24.6,20-39.5,25.7s-30.4,8.1-46.6,7.1c-30.6-1.5-55.8-13.2-75.6-35-19.1-20.1-29.1-44.6-29.8-73.4l-1.5-1.5c.7-.5,1.1-1,1.1-1.5.7-18.6,5.7-36.3,14.9-52.9,4.2-7.2,9.3-13.8,15.3-19.7l-.4-.7c-.2-.2,0-.6.4-1.1,21.4-22.1,48.7-33.4,82-33.9,33.5-.5,60.7,10.4,81.6,32.8.7.7,1.1,1.4,1.1,1.9l-.4.4.4,1.1c9.2,9.4,16.3,20.5,21.2,33.2,5.2,12.7,7.8,25.6,7.8,38.8l6.7,1.1c-.2-24.6-7.2-46.8-20.9-66.7v-.2Z"/>
    </g>
    <g id="Layer6_0_MEMBER_2_MEMBER_2_MEMBER_4_MEMBER_1_FILL">
      <path class="st1" d="M658.7,345c-4-4.5-6.7-7.3-8.2-8.6-14.2,14.7-32,22.4-53.7,23.1v13.4l1.1-.7c.5-.2,1.1-.6,1.9-1.1.5,0,1,.9,1.5,2.6.5,1.5,1.1,1.6,1.9.4-.7.2-1.4-.9-1.9-3.4.7-.5,1.4-.4,1.9.4l2.6.7c0-1.7.4-2.2,1.1-1.5.7.7,1,1.7.7,3l2.2-1.5c.2-.5,0-1.2-.7-2.2.7-.5,1.1-.4,1.1.4,1.2-.5,2.2-.6,3-.4.2,0,.6-.1,1.1-.4.5,0,.6.6.4,1.9l2.2-1.5,1.5-.7,1.9-.4,1.5-1.1c.7,0,.7,1.1,0,3.4,1.2,0,1.7-.5,1.5-1.5.2,0,.4.1.4.4.2.2,1,.1,2.2-.4-.7-1.5-1-2.6-.7-3.4.2-.5.9.2,1.9,2.2.7-.5,1.5-.7,2.2-.7l-1.1-2.6,2.2,1.1c.5-.7,1.2-1.1,2.2-1.1v-1.9c0-.7.5,0,1.5,2.2l2.2-.4c-.7-1.7-.9-2.9-.4-3.4s.7.5,1.5,2.2l1.9-1.9c0-.2,0-.6-.4-1.1-.5-.5-.5-.9,0-1.1l2.6,1.9c0-.2.4-.6,1.1-1.1v-3c.7.2,1.2.9,1.5,1.9h2.2c-1.2-1.2-1.6-2.2-1.1-3,.2-.7,1-.4,2.2,1.1l1.1-1.5c0-.2,0-.6-.4-1.1,0-.5.2-.9.7-1.1l1.5,1.5c0-.2.5-.6,1.5-1.1-1-1-1.4-1.7-1.1-2.2.5-.2,1.2.1,2.2,1.1.7-.5,1.1-1,1.1-1.5-.5-.7-.9-1.2-1.1-1.5-.2-.5.7-.2,3,.7l1.1-1.5c0-.7,0-1.4.4-1.9l1.1-2.2h.2Z"/>
    </g>
    <g id="Layer6_0_MEMBER_2_MEMBER_2_MEMBER_4_MEMBER_2_FILL">
      <path class="st1" d="M682.9,286.1v-.7c-6.5,0-9.8.1-10.1.4,0,16.6-6.2,32.2-18.6,46.6-1.2,1.5-.7,3.4,1.5,5.6s3.1,3,5.6,5.2c.5,0,1.2-.2,2.2-.7-.7-.2-1.1-.7-1.1-1.5s.4-.7,1.1,0c.5-.2,1.2-.5,2.2-.7l-1.5-1.1c.5-1,1-1.2,1.5-.7.5.2,1.1.7,1.9,1.5l1.1-2.2c-1.7-1-2.5-1.6-2.2-1.9.2,0,1-.1,2.2-.4l1.5-1.1v-3.4l1.1-2.2c.5-.5,1.1-.9,1.9-1.1v-1.1c0-.7.7-1.5,2.2-2.2-.5-.5-.6-.9-.4-1.1s.5-.4.7-.4l.4-1.9,1.1-1.5c-.5.2-.5-.4,0-1.9l1.1-1.5,1.9-5.2.7-3v-.4c-.2-.2,0-.9.7-1.9l1.5-1.9c-1.2.2-1.7,0-1.5-.7l.4-.7.7-2.2v-1.1c.5-1.2.9-2.2,1.1-3-1.2.7-1.5.2-.7-1.5.2-.2,1.2-.9,3-1.9-2.5-1.2-3.2-2.1-2.2-2.6.7-.2,1.6-.5,2.6-.7,0-.2-.4-.6-1.1-1.1s-.9-1.1-.4-1.9h-2.2v-.2Z"/>
    </g>
    <g id="Layer6_0_MEMBER_2_MEMBER_2_MEMBER_4_MEMBER_3_MEMBER_0_FILL">
      <path class="st1" d="M678.1,210.8l-.4-1.1-25.7,25.3c12.4,13.7,19.3,29.7,20.5,48.1.5.5,4.6.7,12.3.7,14.4,0,21.7-.5,22-1.5-1.7-13.2-3.1-21.9-4.1-26.1-3.2-12.9-11.4-28.1-24.6-45.5h0Z"/>
    </g>
    <g id="Layer6_0_MEMBER_2_MEMBER_2_MEMBER_4_MEMBER_3_MEMBER_1_MEMBER_0_FILL">
      <path class="st8" d="M670.2,234.6c-.5,0-1,.5-1.5,1.5-.5,1.2-.4,2,.4,2.2,1.7-.2,2.9-1,3.4-2.2s-.2-1.7-2.2-1.5h-.1Z"/>
    </g>
    <g id="Layer6_0_MEMBER_2_MEMBER_2_MEMBER_4_MEMBER_3_MEMBER_1_MEMBER_1_FILL">
      <path class="st8" d="M684,265.9c-.2-.2-.9,0-1.9.7s-1.1,1.4-.4,1.9c1,.7,2,.6,3-.4.7-1,.5-1.7-.7-2.2h0Z"/>
    </g>
    <g id="Layer6_0_MEMBER_2_MEMBER_2_MEMBER_4_MEMBER_3_MEMBER_1_MEMBER_2_FILL">
      <path class="st8" d="M668,230.2c-.5,0-1.1.7-1.9,2.2-.5,1.2.6,1.4,3.4.4l-1.5-2.6h0Z"/>
    </g>
    <g id="Layer6_0_MEMBER_2_MEMBER_2_MEMBER_4_MEMBER_3_MEMBER_1_MEMBER_3_FILL">
      <path class="st8" d="M676.9,245.1l-1.9,1.5c-1.2,1.7-.6,1.9,1.9.4,2.2-1.2,2.2-1.9,0-1.9Z"/>
    </g>
    <g id="Layer6_0_MEMBER_2_MEMBER_2_MEMBER_4_MEMBER_3_MEMBER_1_MEMBER_4_FILL">
      <path class="st8" d="M665,227.6c-.2.2-.6.6-1.1,1.1-.5.7-.6,1.2-.4,1.5,1,0,1.9-.5,2.6-1.5.5-1,0-1.4-1.1-1.1Z"/>
    </g>
    <g id="Layer6_0_MEMBER_2_MEMBER_2_MEMBER_4_MEMBER_3_MEMBER_1_MEMBER_5_FILL">
      <path class="st8" d="M678.4,248.4l-2.6,1.5c-.2,1.5.6,1.7,2.6.7,1.7-1,1.7-1.7,0-2.2Z"/>
    </g>
    <g id="Layer6_0_MEMBER_2_MEMBER_2_MEMBER_4_MEMBER_3_MEMBER_1_MEMBER_6_FILL">
      <path class="st8" d="M681.4,258.5c-.7.2-1.2.6-1.5,1.1,0,.5.2.9.7,1.1.7.2,1.5-.1,2.2-1.1s.2-1.4-1.5-1.1h0Z"/>
    </g>
    <g id="Layer6_0_MEMBER_2_MEMBER_2_MEMBER_4_MEMBER_3_MEMBER_1_MEMBER_7_FILL">
      <path class="st8" d="M683.6,270.8c-.5.2-.7.6-.7,1.1-.2.5-.2.9,0,1.1,1,.5,1.9.1,2.6-1.1.5-1.2,0-1.6-1.9-1.1h0Z"/>
    </g>
    <g id="Layer6_0_MEMBER_2_MEMBER_2_MEMBER_4_MEMBER_3_MEMBER_1_MEMBER_8_FILL">
      <path class="st8" d="M682.9,261.8l-2.2,1.5c.5,1,1.4,1.1,2.6.4s1.1-1.4-.4-1.9h0Z"/>
    </g>
    <g id="Layer6_0_MEMBER_2_MEMBER_2_MEMBER_4_MEMBER_3_MEMBER_1_MEMBER_9_FILL">
      <path class="st8" d="M683.6,280.5c-.5,1,0,1.5,1.1,1.5s1.9-.2,1.9-.7-.5-.7-1.5-.7h-1.5Z"/>
    </g>
    <g id="Layer6_0_MEMBER_2_MEMBER_2_MEMBER_4_MEMBER_3_MEMBER_1_MEMBER_10_FILL">
      <path class="st8" d="M679.2,255.9c-.7.5-.6.9.4,1.1s1.6,0,1.9-.7l-2.2-.4h-.1Z"/>
    </g>
    <g id="Layer6_0_MEMBER_2_MEMBER_2_MEMBER_4_MEMBER_3_MEMBER_1_MEMBER_11_FILL">
      <path class="st8" d="M700.8,260.7c-.2.2-.4,1-.4,2.2s.4,1.4,1.1,1.1c.2-.2,0-1.4-.7-3.4h0Z"/>
    </g>
    <g id="Layer6_0_MEMBER_2_MEMBER_2_MEMBER_4_MEMBER_3_MEMBER_1_MEMBER_12_FILL">
      <path class="st8" d="M663.5,225.7l-.7,1.1c.7,0,1.2-.2,1.5-.7s0-.6-.7-.4h0Z"/>
    </g>
    <g id="Layer6_0_MEMBER_2_MEMBER_2_MEMBER_4_MEMBER_3_MEMBER_1_MEMBER_13_FILL">
      <path class="st8" d="M700.4,258.1c-.5.5-.7.9-.7,1.1.5.5.9.6,1.1.4.2-.5,0-1-.4-1.5h0Z"/>
    </g>
    <g id="Layer6_0_MEMBER_2_MEMBER_2_MEMBER_4_MEMBER_4_MEMBER_0_FILL">
      <path class="st10" d="M677.7,209.7h.4c.5-.2,0-1-1.1-2.2-20.9-22.4-48.1-33.3-81.6-32.8-33,.5-60.2,11.8-81.6,33.9-.5.5-.7.9-.7,1.1l.4.7c-5.7,6.2-10.7,12.8-14.9,19.7l.4.4c1.2-2,3.9-5.6,7.8-10.8,4.5-6,7.2-8.8,8.2-8.6l24.2,22.7c-13.9,15.7-21,32-21.2,49.2l.4,3.4c.7,16.9,7.5,33.2,20.1,48.8-5,5.5-12.9,13.2-23.8,23.1l-1.1,1.1c9.7,10.4,21.1,18.8,34.3,25,13.2,6,27,9.3,41.4,10.1v-1.1c-13.2-.2-26.3-3.5-39.5-9.7-13.2-6-24.1-13.8-32.8-23.5l23.5-23.5c14.7,15.2,32.8,22.7,54.4,22.7h2.2c21.1-.2,39-7.8,53.7-22.7l3.4-4.1c12.4-14.4,18.8-29.9,19-46.6.2-.2,3.6-.4,10.1-.4.2-.2.9-.4,1.9-.4.5-.2.6-.9.4-1.9-7.9,0-12-.2-12.3-.7-1.5-18.6-8.4-34.5-20.9-47.7l25.7-25.3h-.4Z"/>
    </g>
    <g id="Layer6_0_MEMBER_2_MEMBER_2_MEMBER_4_MEMBER_4_MEMBER_1_FILL">
      <path class="st4" d="M612.9,280.1c7.2-8.7,8.2-17.8,3-27.2-5.5-9.2-13.8-13-25-11.6-10.7,1.5-16.9,7.9-18.6,19.4-1.7,11.4,2.4,19.5,12.3,24.2l-6,41,32.4.7c.7-2.2,0-9.4-2.2-21.6-2.2-11.9-3.1-18.6-2.6-20.1.2-.2,2.5-1.9,6.7-4.8h0Z"/>
    </g>
    <g id="Layer6_0_MEMBER_2_MEMBER_2_MEMBER_4_MEMBER_4_MEMBER_2_MEMBER_0_FILL">
      <path class="st11" d="M588.6,175.4v.4c-12.4,0-25.5,3.2-39.1,9.7-13.4,6.2-24.6,14-33.5,23.5l23.8,23.5c18.9-15.6,37-23.2,54.4-22.7l.4-33.9c-.2-.2-2.2-.4-6-.4h0Z"/>
    </g>
    <g id="Layer6_0_MEMBER_2_MEMBER_2_MEMBER_4_MEMBER_4_MEMBER_2_MEMBER_1_MEMBER_0_FILL">
      <path class="st8" d="M575.2,196.6c-.5.2-.6,1-.4,2.2.2,1,.6,1.6,1.1,1.9.7.2,1.1-.4,1.1-1.9-.2-1.5-.9-2.2-1.9-2.2h.1Z"/>
    </g>
    <g id="Layer6_0_MEMBER_2_MEMBER_2_MEMBER_4_MEMBER_4_MEMBER_2_MEMBER_1_MEMBER_1_FILL">
      <path class="st8" d="M590.9,194.4c-.5,0-.7.7-.7,2.2s.2,1.9.7,1.9.7-.6.7-1.9-.2-2.2-.7-2.2Z"/>
    </g>
    <g id="Layer6_0_MEMBER_2_MEMBER_2_MEMBER_4_MEMBER_4_MEMBER_2_MEMBER_1_MEMBER_2_FILL">
      <path class="st8" d="M568.1,198.9c-.7,1-.6,1.9.4,2.6,1,1,1.5.7,1.5-.7-.7-1.5-1.4-2.1-1.9-1.9h0Z"/>
    </g>
    <g id="Layer6_0_MEMBER_2_MEMBER_2_MEMBER_4_MEMBER_4_MEMBER_2_MEMBER_1_MEMBER_3_FILL">
      <path class="st8" d="M571.9,197.7c-.7.2-.9.9-.4,1.9.2,1,.6,1.5,1.1,1.5s.7-.5.7-1.5c-.2-1.2-.7-1.9-1.5-1.9h.1Z"/>
    </g>
    <g id="Layer6_0_MEMBER_2_MEMBER_2_MEMBER_4_MEMBER_4_MEMBER_2_MEMBER_1_MEMBER_4_FILL">
      <path class="st8" d="M526.4,203c-.2,0-.9.5-1.9,1.5-1,1.2-1.5,2-1.5,2.2l4.5-3.4-1.1-.4h0Z"/>
    </g>
    <g id="Layer6_0_MEMBER_2_MEMBER_2_MEMBER_4_MEMBER_4_MEMBER_2_MEMBER_1_MEMBER_5_FILL">
      <path class="st8" d="M542.4,211.2c-.7,0-.9.5-.4,1.5.7,1,1.4,1.5,1.9,1.5,1,0,1.1-.5.4-1.5-.5-1-1.1-1.5-1.9-1.5Z"/>
    </g>
    <g id="Layer6_0_MEMBER_2_MEMBER_2_MEMBER_4_MEMBER_4_MEMBER_2_MEMBER_1_MEMBER_6_FILL">
      <path class="st8" d="M587.1,195.1c-.2.2-.4.9-.4,1.9.2,1,.5,1.5.7,1.5.7,0,1-.7.7-2.2-.2-1.2-.6-1.6-1.1-1.1h0Z"/>
    </g>
    <g id="Layer6_0_MEMBER_2_MEMBER_2_MEMBER_4_MEMBER_4_MEMBER_2_MEMBER_1_MEMBER_7_FILL">
      <path class="st8" d="M556.9,203c-.5.2-.5.9,0,1.9.2,1,.6,1.5,1.1,1.5,1,0,.6-1.1-1.1-3.4Z"/>
    </g>
    <g id="Layer6_0_MEMBER_2_MEMBER_2_MEMBER_4_MEMBER_4_MEMBER_2_MEMBER_1_MEMBER_8_FILL">
      <path class="st8" d="M534.2,217.9c-.2,0-.5.2-.7.7-.2.2,0,.5.4.7.5.7,1.1,1.2,1.9,1.5.7.5.9.1.4-1.1l-1.9-1.9h-.1Z"/>
    </g>
    <g id="Layer6_0_MEMBER_2_MEMBER_2_MEMBER_4_MEMBER_4_MEMBER_2_MEMBER_1_MEMBER_9_FILL">
      <path class="st8" d="M583,195.5l1.1,3.4c.5-.5.6-1.2.4-2.2s-.7-1.4-1.5-1.1h0Z"/>
    </g>
    <g id="Layer6_0_MEMBER_2_MEMBER_2_MEMBER_4_MEMBER_4_MEMBER_2_MEMBER_1_MEMBER_10_FILL">
      <path class="st8" d="M565.5,200c-.7,0-1,.6-.7,1.9.2,1,.6,1.5,1.1,1.5,1,0,.9-1.1-.4-3.4h0Z"/>
    </g>
    <g id="Layer6_0_MEMBER_2_MEMBER_2_MEMBER_4_MEMBER_4_MEMBER_2_MEMBER_1_MEMBER_11_FILL">
      <path class="st8" d="M560.3,201.8c-.7.2-.9.9-.4,1.9s1,1.5,1.5,1.5l-1.1-3.4Z"/>
    </g>
    <g id="Layer6_0_MEMBER_2_MEMBER_2_MEMBER_4_MEMBER_4_MEMBER_2_MEMBER_1_MEMBER_12_FILL">
      <path class="st8" d="M539.8,213.4l-1.1.7,2.2,2.2.7-1.1c-.7-1.2-1.4-1.9-1.9-1.9h0Z"/>
    </g>
    <g id="Layer6_0_MEMBER_2_MEMBER_2_MEMBER_4_MEMBER_4_MEMBER_2_MEMBER_1_MEMBER_13_FILL">
      <path class="st8" d="M536.8,215.6c-.7,0-.9.5-.4,1.5.5.7,1.1,1.2,1.9,1.5.7-.5.2-1.5-1.5-3Z"/>
    </g>
    <g id="Layer6_0_MEMBER_2_MEMBER_2_MEMBER_4_MEMBER_4_MEMBER_2_MEMBER_1_MEMBER_14_FILL">
      <path class="st8" d="M551,206.3c-.5,0-.5.5,0,1.5.2,1,.6,1.6,1.1,1.9,1-.5.6-1.6-1.1-3.4Z"/>
    </g>
    <g id="Layer6_0_MEMBER_2_MEMBER_2_MEMBER_4_MEMBER_4_MEMBER_2_MEMBER_1_MEMBER_15_FILL">
      <path class="st8" d="M548,207.8l1.1,3c.5-.5.6-1.1.4-1.9-.2-1-.7-1.4-1.5-1.1Z"/>
    </g>
    <g id="Layer6_0_MEMBER_2_MEMBER_2_MEMBER_4_MEMBER_4_MEMBER_2_MEMBER_1_MEMBER_16_FILL">
      <path class="st8" d="M546.1,189.9l-1.9,1.5c.2.5,1,.4,2.2-.4,1-.7.9-1.1-.4-1.1h.1Z"/>
    </g>
    <g id="Layer6_0_MEMBER_2_MEMBER_2_MEMBER_4_MEMBER_4_MEMBER_2_MEMBER_1_MEMBER_17_FILL">
      <path class="st8" d="M584.1,178.7l-1.1,1.1h2.6c0-.7-.5-1.1-1.5-1.1Z"/>
    </g>
    <g id="Layer6_0_MEMBER_2_MEMBER_2_MEMBER_4_MEMBER_4_MEMBER_2_MEMBER_1_MEMBER_18_FILL">
      <path class="st8" d="M564.8,182.8l-1.5.7c1,.5,1.9.5,2.6,0,.7-.7.4-1-1.1-.7Z"/>
    </g>
    <g id="Layer6_0_MEMBER_2_MEMBER_2_MEMBER_4_MEMBER_4_MEMBER_2_MEMBER_1_MEMBER_19_FILL">
      <path class="st8" d="M543.2,191.8l-2.2,1.5c.2.5.9.5,1.9,0,.7-.7.9-1.2.4-1.5h-.1Z"/>
    </g>
    <g id="Layer6_0_MEMBER_2_MEMBER_2_MEMBER_4_MEMBER_4_MEMBER_2_MEMBER_1_MEMBER_20_FILL">
      <path class="st8" d="M580.8,179.5c-.5,0-.7.2-.7.7.2.5.7.6,1.5.4.2-.2,0-.6-.7-1.1h0Z"/>
    </g>
    <g id="Layer6_0_MEMBER_2_MEMBER_2_MEMBER_4_MEMBER_4_MEMBER_2_MEMBER_1_MEMBER_21_FILL">
      <path class="st8" d="M532,220.1l-.7.7v.4l1.1-.4-.4-.7h0Z"/>
    </g>
    <g id="Layer6_0_MEMBER_2_MEMBER_2_MEMBER_4_MEMBER_4_MEMBER_3_MEMBER_0_FILL">
      <path class="st11" d="M650.1,233.2l25-25c-21.4-21.1-47.2-32-77.5-32.8l-.7,33.9c21.6,1.2,39.4,9.2,53.3,23.8h0Z"/>
    </g>
    <g id="Layer6_0_MEMBER_2_MEMBER_2_MEMBER_4_MEMBER_4_MEMBER_3_MEMBER_1_MEMBER_0_FILL">
      <path class="st8" d="M602.8,195.1c-.2,0-.5.7-.7,2.2,0,1.5.4,2,1.1,1.5,1.2-.7,1.1-2-.4-3.7h0Z"/>
    </g>
    <g id="Layer6_0_MEMBER_2_MEMBER_2_MEMBER_4_MEMBER_4_MEMBER_3_MEMBER_1_MEMBER_1_FILL">
      <path class="st8" d="M653.1,215.3c-.5,0-1.1.5-1.9,1.5-.5,1.2-.4,2,.4,2.2,2.7-2.7,3.2-4,1.5-3.7Z"/>
    </g>
    <g id="Layer6_0_MEMBER_2_MEMBER_2_MEMBER_4_MEMBER_4_MEMBER_3_MEMBER_1_MEMBER_2_FILL">
      <path class="st8" d="M644.1,208.6c-.5-.2-1.1.4-1.9,1.9-.5,1.2-.4,1.9.4,1.9,2-2.5,2.5-3.7,1.5-3.7h0Z"/>
    </g>
    <g id="Layer6_0_MEMBER_2_MEMBER_2_MEMBER_4_MEMBER_4_MEMBER_3_MEMBER_1_MEMBER_3_FILL">
      <path class="st8" d="M634.1,203.3c-.5.2-.9.9-1.1,1.9-.5.7-.5,1.2,0,1.5.7.5,1.4,0,1.9-1.5s.2-2.1-.7-1.9h-.1Z"/>
    </g>
    <g id="Layer6_0_MEMBER_2_MEMBER_2_MEMBER_4_MEMBER_4_MEMBER_3_MEMBER_1_MEMBER_4_FILL">
      <path class="st8" d="M616.2,180.6c-1.5.2-1.2.7.7,1.5,2,.7,3.2.9,3.7.4.2-.7-1.2-1.4-4.5-1.9h0Z"/>
    </g>
    <g id="Layer6_0_MEMBER_2_MEMBER_2_MEMBER_4_MEMBER_4_MEMBER_3_MEMBER_1_MEMBER_5_FILL">
      <path class="st8" d="M623.3,198.9c-.5,0-.9.7-1.1,2.2-.2,1.2,0,1.9.7,1.9,1.5-2.7,1.6-4.1.4-4.1h0Z"/>
    </g>
    <g id="Layer6_0_MEMBER_2_MEMBER_2_MEMBER_4_MEMBER_4_MEMBER_3_MEMBER_1_MEMBER_6_FILL">
      <path class="st8" d="M612.1,196.3c-.2,0-.5.6-.7,1.9-.5,1-.4,1.6.4,1.9,1.7-1.7,1.9-3,.4-3.7h-.1Z"/>
    </g>
    <g id="Layer6_0_MEMBER_2_MEMBER_2_MEMBER_4_MEMBER_4_MEMBER_3_MEMBER_1_MEMBER_7_FILL">
      <path class="st8" d="M615.4,197.4l-.7,2.6,1.5.7.7-3-1.5-.4h0Z"/>
    </g>
    <g id="Layer6_0_MEMBER_2_MEMBER_2_MEMBER_4_MEMBER_4_MEMBER_3_MEMBER_1_MEMBER_8_FILL">
      <path class="st8" d="M619.5,197.7c-.5,0-.7.7-.7,2.2s.2,1.9.7,1.9.7-.6.7-1.9-.2-2.2-.7-2.2Z"/>
    </g>
    <g id="Layer6_0_MEMBER_2_MEMBER_2_MEMBER_4_MEMBER_4_MEMBER_3_MEMBER_1_MEMBER_9_FILL">
      <path class="st8" d="M646.7,210.8c-.2,0-.5.5-.7,1.5-.5,1.2-.5,2,0,2.2l1.9-2.6c.2-.2,0-.6-.4-1.1-.2-.2-.5-.2-.7,0h0Z"/>
    </g>
    <g id="Layer6_0_MEMBER_2_MEMBER_2_MEMBER_4_MEMBER_4_MEMBER_3_MEMBER_1_MEMBER_10_FILL">
      <path class="st8" d="M650.1,213c-.5,0-1,.6-1.5,1.9-.5,1-.4,1.5.4,1.5s1.6-.5,1.9-1.5c.2-1.2,0-1.9-.7-1.9h-.1Z"/>
    </g>
    <g id="Layer6_0_MEMBER_2_MEMBER_2_MEMBER_4_MEMBER_4_MEMBER_3_MEMBER_1_MEMBER_11_FILL">
      <path class="st8" d="M626.6,200c-.2,0-.5.6-.7,1.9-.5,1.2-.4,2,.4,2.2,1.2-2.5,1.4-3.9.4-4.1h-.1Z"/>
    </g>
    <g id="Layer6_0_MEMBER_2_MEMBER_2_MEMBER_4_MEMBER_4_MEMBER_3_MEMBER_1_MEMBER_12_FILL">
      <path class="st8" d="M637.1,205.2c-.2,0-.5.6-.7,1.9-.5,1-.4,1.5.4,1.5,1.2-2.2,1.4-3.4.4-3.4h-.1Z"/>
    </g>
    <g id="Layer6_0_MEMBER_2_MEMBER_2_MEMBER_4_MEMBER_4_MEMBER_3_MEMBER_1_MEMBER_13_FILL">
      <path class="st8" d="M630.7,201.8l-1.5,3.4c.5.2,1.1-.2,1.9-1.5.5-1,.4-1.6-.4-1.9Z"/>
    </g>
    <g id="Layer6_0_MEMBER_2_MEMBER_2_MEMBER_4_MEMBER_4_MEMBER_3_MEMBER_1_MEMBER_14_FILL">
      <path class="st8" d="M655.7,217.9c-.2,0-.6.4-1.1,1.1-.5.7-.5,1.4,0,1.9,2-2,2.4-3,1.1-3Z"/>
    </g>
    <g id="Layer6_0_MEMBER_2_MEMBER_2_MEMBER_4_MEMBER_4_MEMBER_3_MEMBER_1_MEMBER_15_FILL">
      <path class="st8" d="M656.4,197.4c-.2.5,0,1,1.1,1.5,1,.7,1.6.9,1.9.4-.7-1.2-1.7-1.9-3-1.9Z"/>
    </g>
    <g id="Layer6_0_MEMBER_2_MEMBER_2_MEMBER_4_MEMBER_4_MEMBER_3_MEMBER_1_MEMBER_16_FILL">
      <path class="st8" d="M663.5,203l.4,1.1c1-.2,1.4-.5,1.1-.7-.2-.5-.7-.6-1.5-.4h0Z"/>
    </g>
    <g id="Layer6_0_MEMBER_2_MEMBER_2_MEMBER_4_MEMBER_4_MEMBER_3_MEMBER_1_MEMBER_17_FILL">
      <path class="st8" d="M660.5,200c-.2.2-.2.6,0,1.1s.6.7,1.1.7c.5-.2,0-.9-1.1-1.9h0Z"/>
    </g>
    <g id="Layer6_0_MEMBER_2_MEMBER_2_MEMBER_4_MEMBER_4_MEMBER_3_MEMBER_1_MEMBER_18_FILL">
      <path class="st8" d="M649,192.9l.4,1.1c1-.2,1.4-.5,1.1-.7-.2-.5-.7-.6-1.5-.4h0Z"/>
    </g>
    <g id="Layer6_0_MEMBER_2_MEMBER_2_MEMBER_4_MEMBER_4_MEMBER_3_MEMBER_1_MEMBER_19_FILL">
      <path class="st8" d="M612.8,179.9c-.5.2-.5.6,0,1.1s1,.5,1.5,0l-1.5-1.1Z"/>
    </g>
    <g id="Layer6_0_MEMBER_2_MEMBER_2_MEMBER_4_MEMBER_4_MEMBER_3_MEMBER_1_MEMBER_20_FILL">
      <path class="st8" d="M625.5,182.8c-.5.2-.5.6,0,1.1.5.2,1,.1,1.5-.4l-1.5-.7h0Z"/>
    </g>
    <g id="Layer6_0_MEMBER_2_MEMBER_2_MEMBER_4_MEMBER_4_MEMBER_3_MEMBER_1_MEMBER_21_FILL">
      <path class="st8" d="M629.2,184c-.5,0-.7.2-.7.7.2.5.7.6,1.5.4.5-.2.2-.6-.7-1.1h0Z"/>
    </g>
    <g id="Layer6_0_MEMBER_2_MEMBER_2_MEMBER_4_MEMBER_5_MEMBER_0_FILL">
      <path class="st1" d="M594.6,359.5c-22.4,0-40.5-7.6-54.4-22.7l-23.5,23.8c8.7,9.7,19.6,17.5,32.8,23.5,13.2,6.2,26.3,9.4,39.5,9.7.5,0,1.5.1,3,.4,1.5,0,2.4-.2,2.6-.7v-33.9h0Z"/>
    </g>
    <g id="Layer6_0_MEMBER_2_MEMBER_2_MEMBER_4_MEMBER_5_MEMBER_1_MEMBER_0_FILL">
      <path class="st8" d="M541.3,353.5c-.2,0-.6,1.1-1.1,3.4.7.2,1.5-.4,2.2-1.9.7-1.2.4-1.7-1.1-1.5h0Z"/>
    </g>
    <g id="Layer6_0_MEMBER_2_MEMBER_2_MEMBER_4_MEMBER_5_MEMBER_1_MEMBER_1_FILL">
      <path class="st8" d="M535.7,349c-.2,0-.6.5-1.1,1.5-.7,1-.7,1.6,0,1.9.7,0,1.4-.5,1.9-1.5.5-1.2.2-1.9-.7-1.9h-.1Z"/>
    </g>
    <g id="Layer6_0_MEMBER_2_MEMBER_2_MEMBER_4_MEMBER_5_MEMBER_1_MEMBER_2_FILL">
      <path class="st8" d="M556.9,362.8c-.5.2-.9.7-1.1,1.5-.2,1,0,1.6.7,1.9,1,.2,1.5-.4,1.5-1.9.2-1.2,0-1.7-1.1-1.5h0Z"/>
    </g>
    <g id="Layer6_0_MEMBER_2_MEMBER_2_MEMBER_4_MEMBER_5_MEMBER_1_MEMBER_3_FILL">
      <path class="st8" d="M575.9,369.5c-.5.2-.7.9-.7,1.9s.4,1.7,1.1,1.5l1.1-3-1.5-.4h0Z"/>
    </g>
    <g id="Layer6_0_MEMBER_2_MEMBER_2_MEMBER_4_MEMBER_5_MEMBER_1_MEMBER_4_FILL">
      <path class="st8" d="M538.7,351.3c-.2,0-.9,1.1-1.9,3.4.7.5,1.5,0,2.2-1.5.7-1.2.6-1.9-.4-1.9h.1Z"/>
    </g>
    <g id="Layer6_0_MEMBER_2_MEMBER_2_MEMBER_4_MEMBER_5_MEMBER_1_MEMBER_5_FILL">
      <path class="st8" d="M579.3,370.3c-.2,0-.4.6-.4,1.9s.2,1.5.7,1.5,1.1-.7,1.1-2.2-.5-1.9-1.5-1.1h.1Z"/>
    </g>
    <g id="Layer6_0_MEMBER_2_MEMBER_2_MEMBER_4_MEMBER_5_MEMBER_1_MEMBER_6_FILL">
      <path class="st8" d="M587.1,370.6c-.7,0-1.1.7-1.1,2.2s.5,1.9,1.5,1.1c.5-.2.6-.9.4-1.9,0-1-.2-1.5-.7-1.5h-.1Z"/>
    </g>
    <g id="Layer6_0_MEMBER_2_MEMBER_2_MEMBER_4_MEMBER_5_MEMBER_1_MEMBER_7_FILL">
      <path class="st8" d="M573.3,368.4c-.5.2-1,.7-1.5,1.5-.2,1-.2,1.6,0,1.9.7.5,1.2.2,1.5-.7.2-1,.2-1.9,0-2.6h0Z"/>
    </g>
    <g id="Layer6_0_MEMBER_2_MEMBER_2_MEMBER_4_MEMBER_5_MEMBER_1_MEMBER_8_FILL">
      <path class="st8" d="M583,370.6c-.7.7-.7,1.9,0,3.4l1.5-3-1.5-.4Z"/>
    </g>
    <g id="Layer6_0_MEMBER_2_MEMBER_2_MEMBER_4_MEMBER_5_MEMBER_1_MEMBER_9_FILL">
      <path class="st8" d="M547.3,358c-.5,0-.9.6-1.1,1.9-.2,1,0,1.5.7,1.5s.9-.6,1.1-1.9c.2-1.2,0-1.7-.7-1.5Z"/>
    </g>
    <g id="Layer6_0_MEMBER_2_MEMBER_2_MEMBER_4_MEMBER_5_MEMBER_1_MEMBER_10_FILL">
      <path class="st8" d="M554.3,361.3l-1.5,3.4c.5.2,1.1-.2,1.9-1.5.5-1,.4-1.6-.4-1.9Z"/>
    </g>
    <g id="Layer6_0_MEMBER_2_MEMBER_2_MEMBER_4_MEMBER_5_MEMBER_1_MEMBER_11_FILL">
      <path class="st8" d="M568.9,368c-.2,0-.5.4-.7,1.1s-.2,1.2,0,1.5c.7.5,1.2,0,1.5-1.5.5-1.5.2-1.9-.7-1.1h0Z"/>
    </g>
    <g id="Layer6_0_MEMBER_2_MEMBER_2_MEMBER_4_MEMBER_5_MEMBER_1_MEMBER_12_FILL">
      <path class="st8" d="M544.3,356.1l-.7,3c.5.2,1-.2,1.5-1.5.5-1,.2-1.5-.7-1.5h0Z"/>
    </g>
    <g id="Layer6_0_MEMBER_2_MEMBER_2_MEMBER_4_MEMBER_5_MEMBER_1_MEMBER_13_FILL">
      <path class="st8" d="M533.1,346.8c-.2,0-.6.4-1.1,1.1-.2.7-.2,1.2,0,1.5l1.9-1.9c0-.7-.2-1-.7-.7h-.1Z"/>
    </g>
    <g id="Layer6_0_MEMBER_2_MEMBER_2_MEMBER_4_MEMBER_5_MEMBER_1_MEMBER_14_FILL">
      <path class="st8" d="M564,365.8l-1.1,3.4c.7.2,1.4-.2,1.9-1.5.2-1.2,0-1.9-.7-1.9h-.1Z"/>
    </g>
    <g id="Layer6_0_MEMBER_2_MEMBER_2_MEMBER_4_MEMBER_5_MEMBER_1_MEMBER_15_FILL">
      <path class="st8" d="M559.9,364.7c0,.5-.2,1.1-.7,1.9,0,.5.2,1,.7,1.5l.7-2.2c0-.7-.2-1.1-.7-1.1h0Z"/>
    </g>
    <g id="Layer6_0_MEMBER_2_MEMBER_2_MEMBER_4_MEMBER_5_MEMBER_1_MEMBER_16_FILL">
      <path class="st8" d="M533.1,370.6c-.2.5,0,1.1,1.1,1.9,1,.5,1.6.5,1.9,0l-3-1.9Z"/>
    </g>
    <g id="Layer6_0_MEMBER_2_MEMBER_2_MEMBER_4_MEMBER_5_MEMBER_1_MEMBER_17_FILL">
      <path class="st8" d="M566.3,366.9l-.4,2.6,1.5-2.6h-1.1Z"/>
    </g>
    <g id="Layer6_0_MEMBER_2_MEMBER_2_MEMBER_4_MEMBER_5_MEMBER_1_MEMBER_18_FILL">
      <path class="st8" d="M529,368c0,.5.5,1,1.5,1.5s1.6.6,1.9.4c-1.2-1.2-2.4-1.9-3.4-1.9Z"/>
    </g>
    <g id="Layer6_0_MEMBER_2_MEMBER_2_MEMBER_4_MEMBER_5_MEMBER_1_MEMBER_19_FILL">
      <path class="st8" d="M560.7,384.8c-.5.5-.4.9.4,1.1.7.2,1.4.1,1.9-.4-.5-1-1.2-1.2-2.2-.7h-.1Z"/>
    </g>
    <g id="Layer6_0_MEMBER_2_MEMBER_2_MEMBER_4_MEMBER_5_MEMBER_1_MEMBER_20_FILL">
      <path class="st8" d="M568.1,387l.4,1.1c1,.2,1.5.1,1.5-.4-.2-.7-.9-1-1.9-.7Z"/>
    </g>
    <g id="Layer6_0_MEMBER_2_MEMBER_2_MEMBER_4_MEMBER_5_MEMBER_1_MEMBER_21_FILL">
      <path class="st8" d="M551,359.5l-.7,1.1c.2.7.6.7,1.1,0,.2-.5,0-.9-.4-1.1h0Z"/>
    </g>
    <g id="Layer6_0_MEMBER_2_MEMBER_2_MEMBER_4_MEMBER_5_MEMBER_1_MEMBER_22_FILL">
      <path class="st8" d="M556.9,382.9l-.7.7.4.4.7-.4-.4-.7Z"/>
    </g>
    <g id="Layer6_0_MEMBER_2_MEMBER_2_MEMBER_4_MEMBER_5_MEMBER_1_MEMBER_23_FILL">
      <path class="st8" d="M548,379.2v1.1h.7v-.7l-.7-.4Z"/>
    </g>
    <g id="Layer6_0_MEMBER_2_MEMBER_2_MEMBER_4_MEMBER_6_MEMBER_0_FILL">
      <path class="st11" d="M518.2,286.4l-33.9.4c.7,28.6,10.8,52.5,30.2,71.9,10.9-10.2,18.9-18,23.8-23.5-12.7-15.6-19.4-31.9-20.1-48.8Z"/>
    </g>
    <g id="Layer6_0_MEMBER_2_MEMBER_2_MEMBER_4_MEMBER_6_MEMBER_1_MEMBER_0_FILL">
      <path class="st8" d="M518.6,328.2l-2.2,3c1,.2,2,0,3-.7,1-1,.7-1.7-.7-2.2h0Z"/>
    </g>
    <g id="Layer6_0_MEMBER_2_MEMBER_2_MEMBER_4_MEMBER_6_MEMBER_1_MEMBER_1_FILL">
      <path class="st8" d="M512.2,315.5l-2.2,1.9c-.2,1.7.5,2,2.2.7s1.7-2.1,0-2.6Z"/>
    </g>
    <g id="Layer6_0_MEMBER_2_MEMBER_2_MEMBER_4_MEMBER_6_MEMBER_1_MEMBER_2_FILL">
      <path class="st8" d="M507.4,302.1c-.5,0-.9.2-1.1.7-.5.7-.5,1.2,0,1.5,1.5.2,2.5-.1,3-1.1s-.1-1.4-1.9-1.1Z"/>
    </g>
    <g id="Layer6_0_MEMBER_2_MEMBER_2_MEMBER_4_MEMBER_6_MEMBER_1_MEMBER_3_FILL">
      <path class="st8" d="M508.5,306.2c-.5,0-.9.2-1.1.7-.5.7-.5,1.2,0,1.5,1,.5,1.9.1,2.6-1.1s.2-1.6-1.5-1.1Z"/>
    </g>
    <g id="Layer6_0_MEMBER_2_MEMBER_2_MEMBER_4_MEMBER_6_MEMBER_1_MEMBER_4_FILL">
      <path class="st8" d="M507.4,298.3v-.4l-2.6,1.5c.5,1,1.9.9,4.1-.4l-1.5-.7Z"/>
    </g>
    <g id="Layer6_0_MEMBER_2_MEMBER_2_MEMBER_4_MEMBER_6_MEMBER_1_MEMBER_5_FILL">
      <path class="st8" d="M505.5,295c-1.5.5-1.4,1,.4,1.5,1.5.5,2.2.2,2.2-.7s-.4-.5-1.1-.7c-.5-.2-1-.2-1.5,0h0Z"/>
    </g>
    <g id="Layer6_0_MEMBER_2_MEMBER_2_MEMBER_4_MEMBER_6_MEMBER_1_MEMBER_6_FILL">
      <path class="st8" d="M516.7,325.5l-1.5.7c-.7.5-1,.9-.7,1.1.5.7,1.2.6,2.2-.4,1.2-.7,1.2-1.2,0-1.5h0Z"/>
    </g>
    <g id="Layer6_0_MEMBER_2_MEMBER_2_MEMBER_4_MEMBER_6_MEMBER_1_MEMBER_7_FILL">
      <path class="st8" d="M508.9,309.9c-1,1.5-1.2,2.2-.7,2.2s1.6-.5,2.6-1.5l-1.9-.7Z"/>
    </g>
    <g id="Layer6_0_MEMBER_2_MEMBER_2_MEMBER_4_MEMBER_6_MEMBER_1_MEMBER_8_FILL">
      <path class="st8" d="M520.1,331.5c-.2,0-.6.4-1.1,1.1-.7.7-.9,1.4-.4,1.9.7-.7,1.4-1.2,1.9-1.5.7-.7.6-1.2-.4-1.5Z"/>
    </g>
    <g id="Layer6_0_MEMBER_2_MEMBER_2_MEMBER_4_MEMBER_6_MEMBER_1_MEMBER_9_FILL">
      <path class="st8" d="M524.5,338.2l-1.5,1.5c0,1.7.6,2,1.9.7s1.1-2-.4-2.2Z"/>
    </g>
    <g id="Layer6_0_MEMBER_2_MEMBER_2_MEMBER_4_MEMBER_6_MEMBER_1_MEMBER_10_FILL">
      <path class="st8" d="M505.5,291.6c-.2,0-.5.2-.7.7,0,.2.1.5.4.7l2.6-.7c-.7-.7-1.5-1-2.2-.7h0Z"/>
    </g>
    <g id="Layer6_0_MEMBER_2_MEMBER_2_MEMBER_4_MEMBER_6_MEMBER_1_MEMBER_11_FILL">
      <path class="st8" d="M495.8,323.7c-.5.5-.6,1.2-.4,2.2.5.7,1,1,1.5.7l-1.1-3h0Z"/>
    </g>
    <g id="Layer6_0_MEMBER_2_MEMBER_2_MEMBER_4_MEMBER_6_MEMBER_1_MEMBER_12_FILL">
      <path class="st8" d="M502.2,338.2c-.2.2-.2.6,0,1.1.5.5.9.7,1.1.7.5-.2.5-.6,0-1.1-.2-.5-.6-.7-1.1-.7Z"/>
    </g>
    <g id="Layer6_0_MEMBER_2_MEMBER_2_MEMBER_4_MEMBER_6_MEMBER_1_MEMBER_13_FILL">
      <path class="st8" d="M490.3,308.8c-.5,0-.6.2-.4.7.2.7.5,1,.7.7.5,0,.6-.2.4-.7,0-.7-.2-1-.7-.7Z"/>
    </g>
    <g id="Layer6_0_MEMBER_2_MEMBER_2_MEMBER_4_MEMBER_7_MEMBER_0_FILL">
      <path class="st11" d="M517.5,283.1c.7-16.6,7.8-33,21.2-49.2l-24.2-22.7c-1,0-3.7,3-8.2,8.9-4,5.2-6.5,8.8-7.5,10.8-8.9,14.9-13.8,32.3-14.5,52.2,7.2-.2,18.3-.2,33.2,0Z"/>
    </g>
    <g id="Layer6_0_MEMBER_2_MEMBER_2_MEMBER_4_MEMBER_7_MEMBER_1_MEMBER_0_FILL">
      <path class="st8" d="M498.8,230.9v-.4l-.7-.4c-9.2,15.9-14.2,33.5-14.9,52.9.7.7,1.1.7,1.1,0,.7-19.9,5.6-37.3,14.5-52.2h0Z"/>
    </g>
    <g id="Layer6_0_MEMBER_2_MEMBER_2_MEMBER_4_MEMBER_7_MEMBER_1_MEMBER_1_FILL">
      <path class="st8" d="M505.2,274.9l-.4,1.5c2.2,1,3.2.9,3-.4-.2-1.2-1.1-1.6-2.6-1.1Z"/>
    </g>
    <g id="Layer6_0_MEMBER_2_MEMBER_2_MEMBER_4_MEMBER_7_MEMBER_1_MEMBER_2_FILL">
      <path class="st8" d="M505.5,225.3l-2.6,4.8c.7,0,1.5-.6,2.2-1.9,1-1.5,1.1-2.5.4-3h0Z"/>
    </g>
    <g id="Layer6_0_MEMBER_2_MEMBER_2_MEMBER_4_MEMBER_7_MEMBER_1_MEMBER_3_FILL">
      <path class="st8" d="M508.9,255.9c-1.2.2-1.1.7.4,1.5s2.2.7,2.2,0c0-1.5-.9-2-2.6-1.5Z"/>
    </g>
    <g id="Layer6_0_MEMBER_2_MEMBER_2_MEMBER_4_MEMBER_7_MEMBER_1_MEMBER_4_FILL">
      <path class="st8" d="M516.3,239.1c-1.2,0-1.1.5.4,1.5,1.2,1.2,2.1,1.4,2.6.4-1.5-1.2-2.5-1.9-3-1.9Z"/>
    </g>
    <g id="Layer6_0_MEMBER_2_MEMBER_2_MEMBER_4_MEMBER_7_MEMBER_1_MEMBER_5_FILL">
      <path class="st8" d="M514.5,242.5c-1,.2-.9.7.4,1.5,1.2,1,2,1.1,2.2.4.5-1.2-.4-1.9-2.6-1.9h0Z"/>
    </g>
    <g id="Layer6_0_MEMBER_2_MEMBER_2_MEMBER_4_MEMBER_7_MEMBER_1_MEMBER_6_FILL">
      <path class="st8" d="M518.6,235.8c-1.5.7-1.4,1.4.4,1.9,1.7.7,2.4.6,1.9-.4-1.2-.5-2-1-2.2-1.5h-.1Z"/>
    </g>
    <g id="Layer6_0_MEMBER_2_MEMBER_2_MEMBER_4_MEMBER_7_MEMBER_1_MEMBER_7_FILL">
      <path class="st8" d="M507.4,262.6c-1.2.2-1.2.7,0,1.5,1,1,1.9,1,2.6,0l-2.6-1.5Z"/>
    </g>
    <g id="Layer6_0_MEMBER_2_MEMBER_2_MEMBER_4_MEMBER_7_MEMBER_1_MEMBER_8_FILL">
      <path class="st8" d="M505.2,278.6c-1,.7-1,1.4,0,1.9,1.2.2,2.1.1,2.6-.4.2-.5-.1-.9-1.1-1.1l-1.5-.4Z"/>
    </g>
    <g id="Layer6_0_MEMBER_2_MEMBER_2_MEMBER_4_MEMBER_7_MEMBER_1_MEMBER_9_FILL">
      <path class="st8" d="M505.2,271.5c-.2.7.1,1.2,1.1,1.5,1.2,0,1.9-.2,1.9-.7l-3-.7h0Z"/>
    </g>
    <g id="Layer6_0_MEMBER_2_MEMBER_2_MEMBER_4_MEMBER_7_MEMBER_1_MEMBER_10_FILL">
      <path class="st8" d="M513,245.8c-1.2.2-1.2.7,0,1.5,1.2,1,2.1,1,2.6,0-1-1-1.9-1.5-2.6-1.5Z"/>
    </g>
    <g id="Layer6_0_MEMBER_2_MEMBER_2_MEMBER_4_MEMBER_7_MEMBER_1_MEMBER_11_FILL">
      <path class="st8" d="M505.5,267.4c0,.7.5,1.2,1.5,1.5,1,.2,1.6.1,1.9-.4l-3.4-1.1Z"/>
    </g>
    <g id="Layer6_0_MEMBER_2_MEMBER_2_MEMBER_4_MEMBER_7_MEMBER_1_MEMBER_12_FILL">
      <path class="st8" d="M511.9,249.2l-.7,1.1,2.6.4c.5-1,0-1.5-1.9-1.5h0Z"/>
    </g>
    <g id="Layer6_0_MEMBER_2_MEMBER_2_MEMBER_4_MEMBER_7_MEMBER_1_MEMBER_13_FILL">
      <path class="st8" d="M510,252.5c-.2.5.1.9,1.1,1.1.5.2,1,.4,1.5.4,0-1-.9-1.5-2.6-1.5Z"/>
    </g>
    <g id="Layer6_0_MEMBER_2_MEMBER_2_MEMBER_4_MEMBER_7_MEMBER_1_MEMBER_14_FILL">
      <path class="st8" d="M523.1,229.1c-.7.2-.6.7.4,1.5.7.5,1.2.5,1.5,0,.2-.5-.4-1-1.9-1.5Z"/>
    </g>
    <g id="Layer6_0_MEMBER_2_MEMBER_2_MEMBER_4_MEMBER_7_MEMBER_1_MEMBER_15_FILL">
      <path class="st8" d="M507.8,222.3c-.5.2-.7.6-.7,1.1s.1.9.4,1.1c1.2-2,1.4-2.7.4-2.2h0Z"/>
    </g>
    <g id="Layer6_0_MEMBER_2_MEMBER_2_MEMBER_4_MEMBER_7_MEMBER_1_MEMBER_16_FILL">
      <path class="st8" d="M493.2,250.3l-.4,2.2c.5-.5.9-1,1.1-1.5.2-.7,0-1-.7-.7Z"/>
    </g>
    <g id="Layer6_0_MEMBER_2_MEMBER_2_MEMBER_4_MEMBER_7_MEMBER_1_MEMBER_17_FILL">
      <path class="st8" d="M525.7,226.4c-.5,0-.7.2-.7.7.2.5.7.6,1.5.4.2-.2,0-.6-.7-1.1h0Z"/>
    </g>
    <g id="Layer6_0_MEMBER_2_MEMBER_2_MEMBER_4_MEMBER_7_MEMBER_1_MEMBER_18_FILL">
      <path class="st8" d="M487.7,279.7l-.7.7.4.4.7-.4-.4-.7Z"/>
    </g>
    <g id="Layer6_0_MEMBER_2_MEMBER_2_MEMBER_4_MEMBER_7_MEMBER_1_MEMBER_19_FILL">
      <path class="st8" d="M514.5,214.5l-.7.7.4.4.7-.4-.4-.7Z"/>
    </g>
    <g id="Layer6_0_MEMBER_2_MEMBER_2_MEMBER_4_MEMBER_8_MEMBER_0_FILL">
      <path class="st1" d="M698.2,325.6c5.5-13.2,7.9-26.2,7.5-39.1h-21.2c-.5,1-.4,1.7.4,2.2l1.5.7c-1.2.2-2.1.5-2.6.7-1.2.5-.6,1.4,1.9,2.6-1.2.2-2.1,1-2.6,2.2,2-.5,3-.2,3,.7-.2,1.2-1.1,1.5-2.6.7l-1.1,2.6,3,1.1h-3l-.4,2.2c2,.2,2.9.5,2.6.7-.7.5-1.2.9-1.5,1.1l-1.5,1.5c1.5.7,2.2,1.4,2.2,1.9-.2.5-1.2.6-3,.4l-.4,1.9c1.7-.2,2.4.2,1.9,1.5-.2,1-1.1,1-2.6,0l-.4,1.5,2.2,1.5-2.6-.4-.7,2.2c1.7.7,2.5,1.4,2.2,1.9-.5.5-1.6.5-3.4,0-.5,1.5-.5,2,0,1.5,1.7.5,2.4,1.1,1.9,1.9-.7.7-1.7.7-3,0l-.4,1.5c2,1.2,2.5,1.9,1.5,1.9-1.2-.2-2-.4-2.2-.4l-2.2,2.2,3,1.1c-.5.5-1,.7-1.5.7l-1.5-.7c-.2.2-.7.6-1.5,1.1l2.6,2.6-3.7-.4v1.9c1.5,1,2,1.5,1.5,1.5h-1.5l-1.5,1.1c2.2,1.5,2.2,2.2,0,2.2l-1.5,2.2-1.5.7-2.2.4c1.5,2.2,1.5,2.7,0,1.5l-.7,1.1-1.5-.4,14.9,14.9v.7c9.4-9.2,16.9-20.4,22.4-33.5l-.2.4Z"/>
    </g>
    <g id="Layer6_0_MEMBER_2_MEMBER_2_MEMBER_4_MEMBER_8_MEMBER_1_MEMBER_0_FILL">
      <path class="st8" d="M669.8,331.1l4.1.4-3-2.6-1.1,2.2Z"/>
    </g>
    <g id="Layer6_0_MEMBER_2_MEMBER_2_MEMBER_4_MEMBER_8_MEMBER_1_MEMBER_1_FILL">
      <path class="st8" d="M683.6,296.1c1.7.7,2.6.5,2.6-.7s-1-1.4-3-1.1c-.7,1.7-.6,2.4.4,1.9h0Z"/>
    </g>
    <g id="Layer6_0_MEMBER_2_MEMBER_2_MEMBER_4_MEMBER_8_MEMBER_1_MEMBER_2_FILL">
      <path class="st8" d="M679.9,311c1.5,1,2.4,1,2.6,0,.5-1.2,0-1.7-1.9-1.5l-.7,1.5h0Z"/>
    </g>
    <g id="Layer6_0_MEMBER_2_MEMBER_2_MEMBER_4_MEMBER_8_MEMBER_1_MEMBER_3_FILL">
      <path class="st8" d="M668.4,335.6c-1.2.2-2,.4-2.2.4-.2.2.5.9,2.2,1.9l1.1-.4c.7-.2.4-.9-1.1-1.9Z"/>
    </g>
    <g id="Layer6_0_MEMBER_2_MEMBER_2_MEMBER_4_MEMBER_8_MEMBER_1_MEMBER_4_FILL">
      <path class="st8" d="M681,307.7c1.7.2,2.7.1,3-.4,0-.5-.9-1.1-2.6-1.9-.5,1-.7,1.6-.7,1.9l.4.4h-.1Z"/>
    </g>
    <g id="Layer6_0_MEMBER_2_MEMBER_2_MEMBER_4_MEMBER_8_MEMBER_1_MEMBER_5_FILL">
      <path class="st8" d="M677.3,319.2c-.7.7-1.2,1.4-1.5,1.9,1.5.7,2.5.9,3,.4.5-.7,0-1.5-1.5-2.2h0Z"/>
    </g>
    <g id="Layer6_0_MEMBER_2_MEMBER_2_MEMBER_4_MEMBER_8_MEMBER_1_MEMBER_6_FILL">
      <path class="st8" d="M683.3,303.9c.2-.2.7-.6,1.5-1.1.2-.2-.6-.5-2.6-.7,0,.2,0,.6-.4,1.1-.2.7.2,1,1.5.7Z"/>
    </g>
    <g id="Layer6_0_MEMBER_2_MEMBER_2_MEMBER_4_MEMBER_8_MEMBER_1_MEMBER_7_FILL">
      <path class="st8" d="M677.3,317.7c1.5.5,2.5.6,3,.4.5-.5,0-1.1-1.9-1.9-.5,0-.9.5-1.1,1.5Z"/>
    </g>
    <g id="Layer6_0_MEMBER_2_MEMBER_2_MEMBER_4_MEMBER_8_MEMBER_1_MEMBER_8_FILL">
      <path class="st8" d="M675.1,324.4c3.2,1,3.4.5.4-1.5-.2,0-.5.1-.7.4s0,.6.4,1.1h-.1Z"/>
    </g>
    <g id="Layer6_0_MEMBER_2_MEMBER_2_MEMBER_4_MEMBER_8_MEMBER_1_MEMBER_9_FILL">
      <path class="st8" d="M678.8,314h2.6l-1.9-1.1-.7,1.1h0Z"/>
    </g>
    <g id="Layer6_0_MEMBER_2_MEMBER_2_MEMBER_4_MEMBER_8_MEMBER_1_MEMBER_10_FILL">
      <path class="st8" d="M663.1,341.2c-.7-.7-1.1-.7-1.1,0s.4,1.2,1.1,1.5c.2,0,.6.1,1.1.4.2,0,0-.6-1.1-1.9Z"/>
    </g>
    <g id="Layer6_0_MEMBER_2_MEMBER_2_MEMBER_4_MEMBER_8_MEMBER_1_MEMBER_11_FILL">
      <path class="st8" d="M682.9,299.8l2.6-.4-2.6-.7v1.1Z"/>
    </g>
    <g id="Layer6_0_MEMBER_2_MEMBER_2_MEMBER_4_MEMBER_8_MEMBER_1_MEMBER_12_FILL">
      <path class="st8" d="M672.4,327.8c.2,0,.7.1,1.5.4.5.2,1,0,1.5-.7l-3-.7v1.1h0Z"/>
    </g>
    <g id="Layer6_0_MEMBER_2_MEMBER_2_MEMBER_4_MEMBER_8_MEMBER_1_MEMBER_13_FILL">
      <path class="st8" d="M669.8,334.5c.2,0,.7-.1,1.5-.4.5,0,0-.5-1.5-1.5v1.9Z"/>
    </g>
    <g id="Layer6_0_MEMBER_2_MEMBER_2_MEMBER_4_MEMBER_8_MEMBER_1_MEMBER_14_FILL">
      <path class="st8" d="M694.8,324.8l-5.6,11.9c3.2-4.7,5-7.6,5.2-8.6,1-2.2,1.1-3.4.4-3.4h0Z"/>
    </g>
    <g id="Layer6_0_MEMBER_2_MEMBER_2_MEMBER_4_MEMBER_8_MEMBER_1_MEMBER_15_FILL">
      <path class="st8" d="M679.5,349.4c-.2.2-.2.5,0,.7.2.5.5.6.7.4.2-1,0-1.4-.7-1.1Z"/>
    </g>
    <g id="Layer6_0_MEMBER_2_MEMBER_2_MEMBER_4_MEMBER_9_MEMBER_0_FILL">
      <path class="st1" d="M658.3,345.7l-1.1,2.2c1.5,1.5,1.4,2-.4,1.5l-1.1,1.5c0,.2,0,.6.4,1.1.2.5-.4.4-1.9-.4-.2.5-.6,1-1.1,1.5l.4.7c-.5.7-.9,1-1.1.7l-.4-.4c-1.2.5-1.9.9-1.9,1.1.7,1.7.2,2-1.5.7l-1.1,1.5c.2.5,0,1-1.1,1.5h-2.2c.2,1.2,0,1.9-.7,1.9-.5-.5-.9-.7-1.1-.7l-1.1,1.1c0,.7,0,1.2-.4,1.5-.2.5-.9.2-1.9-.7l-2.6,2.6-2.2.7c-.2.2-.5.4-.7.4s-.5-.4-.7-1.1l-2.2,1.1c.2.2,0,.9-1.1,1.9l-2.2.4c.2.2,0,.6-1.1,1.1-1.2.5-2,.6-2.2.4l-.4-.4c.2,1.2-.2,1.7-1.5,1.5-.5,0-.9-.4-1.1-1.1,0-.7,0-1.1-.4-1.1l-1.9.7c.5,1.2.2,2-.7,2.2-.7.2-1-.4-.7-1.9-.5.2-1.2.9-2.2,1.9,0,1-.2,1.4-.7,1.1-.7-.5-1.1-1.5-1.1-3-1,0-1.9.2-2.6.7l.4,2.2-1.1-.7-2.2,1.9c-1,.2-1.5,0-1.5-.7v-1.1l-2.6-.4v2.6c-.7,1.2-1.4,1.2-1.9,0-.5-1.7-1-2.6-1.5-2.6-.2.7-.5,1.6-.7,2.6,0,.5-.4,0-1.1-1.5l-1.1.4v20.5c28.2.7,53.9-9.8,77.1-31.7-.7-2-6-7.3-15.6-16h-.6Z"/>
    </g>
    <g id="Layer6_0_MEMBER_2_MEMBER_2_MEMBER_4_MEMBER_9_MEMBER_1_MEMBER_0_FILL">
      <path class="st8" d="M641.5,361.3l-2.6-1.9c-.2.2-.2.6,0,1.1s.4.9.4,1.1c1,1,1.6,1.4,1.9,1.1.2-.2.4-.7.4-1.5h-.1Z"/>
    </g>
    <g id="Layer6_0_MEMBER_2_MEMBER_2_MEMBER_4_MEMBER_9_MEMBER_1_MEMBER_1_FILL">
      <path class="st8" d="M621.8,370.6c.7-2.2.7-3.4,0-3.4-.7.7-1.2,1.1-1.5,1.1.2,0,.5.4.7,1.1,0,.7.2,1.1.7,1.1h0Z"/>
    </g>
    <g id="Layer6_0_MEMBER_2_MEMBER_2_MEMBER_4_MEMBER_9_MEMBER_1_MEMBER_2_FILL">
      <path class="st8" d="M607.2,373.6c.5-1.2.4-2.2-.4-3-.7-1-1.1-.6-1.1,1.1v1.1c0,.7.5,1,1.5.7h0Z"/>
    </g>
    <g id="Layer6_0_MEMBER_2_MEMBER_2_MEMBER_4_MEMBER_9_MEMBER_1_MEMBER_3_FILL">
      <path class="st8" d="M614.7,371.4c.2-1.2,0-1.9-.4-1.9h-1.5c0,1.5.4,2.5,1.1,3,.5.2.7-.1.7-1.1h.1Z"/>
    </g>
    <g id="Layer6_0_MEMBER_2_MEMBER_2_MEMBER_4_MEMBER_9_MEMBER_1_MEMBER_4_FILL">
      <path class="st8" d="M603.1,371.4c-.5-1-1.1-1.1-1.9-.4.7,2.2,1.4,3.2,1.9,3v-2.6Z"/>
    </g>
    <g id="Layer6_0_MEMBER_2_MEMBER_2_MEMBER_4_MEMBER_9_MEMBER_1_MEMBER_5_FILL">
      <path class="st8" d="M656.1,350.5c-2.2-1-3.2-1.2-3-.7.2.2.6.7,1.1,1.5,2.5,1,3.1.7,1.9-.7h0Z"/>
    </g>
    <g id="Layer6_0_MEMBER_2_MEMBER_2_MEMBER_4_MEMBER_9_MEMBER_1_MEMBER_6_FILL">
      <path class="st8" d="M618.4,369.1c-.5,0-1,.1-1.5.4-.2,1.5,0,2.1.7,1.9,1-.2,1.2-1,.7-2.2h0Z"/>
    </g>
    <g id="Layer6_0_MEMBER_2_MEMBER_2_MEMBER_4_MEMBER_9_MEMBER_1_MEMBER_7_FILL">
      <path class="st8" d="M650.5,355l-1.5-1.5c-.5.2-.7.6-.7,1.1.2.5.4.9.4,1.1,2,1.2,2.6,1,1.9-.7h-.1Z"/>
    </g>
    <g id="Layer6_0_MEMBER_2_MEMBER_2_MEMBER_4_MEMBER_9_MEMBER_1_MEMBER_8_FILL">
      <path class="st8" d="M630.3,365.8l-2.2-1.1,1.1,2.6c1.2-.7,1.6-1.2,1.1-1.5h0Z"/>
    </g>
    <g id="Layer6_0_MEMBER_2_MEMBER_2_MEMBER_4_MEMBER_9_MEMBER_1_MEMBER_9_FILL">
      <path class="st8" d="M653.1,352.7c-1-1-1.7-1.4-2.2-1.1-.2.5,0,1.2,1.1,2.2l.4.4c.2.2.6,0,1.1-.7.2,0,0-.2-.4-.7h0Z"/>
    </g>
    <g id="Layer6_0_MEMBER_2_MEMBER_2_MEMBER_4_MEMBER_9_MEMBER_1_MEMBER_10_FILL">
      <path class="st8" d="M599.4,371.4c-.2,0-.7.4-1.5,1.1.7,1.2,1.1,1.6,1.1,1.1.2-1,.4-1.7.4-2.2Z"/>
    </g>
    <g id="Layer6_0_MEMBER_2_MEMBER_2_MEMBER_4_MEMBER_9_MEMBER_1_MEMBER_11_FILL">
      <path class="st8" d="M657.5,347.2c-.2.5-.4,1.1-.4,1.9,1.2.2,1.7.2,1.5,0-.2-.5-.6-1.1-1.1-1.9Z"/>
    </g>
    <g id="Layer6_0_MEMBER_2_MEMBER_2_MEMBER_4_MEMBER_9_MEMBER_1_MEMBER_12_FILL">
      <path class="st8" d="M652.3,374l-2.6,1.9c.2.5.9.5,1.9,0,.7-.5,1.2-1,1.5-1.5l-.7-.4h-.1Z"/>
    </g>
    <g id="Layer6_0_MEMBER_2_MEMBER_2_MEMBER_4_MEMBER_9_MEMBER_1_MEMBER_13_FILL">
      <path class="st8" d="M670.6,359.5l-.7.7c-.5.7-.6,1.2-.4,1.5,1.7-1.5,2.1-2.2,1.1-2.2h0Z"/>
    </g>
    <g id="Layer6_0_MEMBER_2_MEMBER_2_MEMBER_4_MEMBER_9_MEMBER_1_MEMBER_14_FILL">
      <path class="st8" d="M656.8,371.4l-2.6,1.9,2.6-.7v-1.1h0Z"/>
    </g>
    <g id="Layer6_0_MEMBER_2_MEMBER_2_MEMBER_4_MEMBER_9_MEMBER_1_MEMBER_15_FILL">
      <path class="st8" d="M605.4,389.6l-1.1.7c.7.5,1.4.5,1.9,0,.7-.5.5-.7-.7-.7h-.1Z"/>
    </g>
    <g id="Layer4_0_FILL">
      <path class="st2" d="M683.4,369.3c23.7-23.7,35.5-52.2,35.5-85.7s-11.8-62-35.5-85.6c-23.7-23.7-52.2-35.5-85.7-35.5s-62,11.9-85.7,35.5c-23.7,23.7-35.5,52.2-35.5,85.6s11.8,62.1,35.5,85.7c23.7,23.7,52.2,35.5,85.7,35.4,33.5,0,62-11.8,85.7-35.4Z"/>
    </g>
    <g id="Layer3_0_FILL">
      <path class="st11" d="M681.8,200.8c-.5-.5-1-1.1-1.6-1.6-23.4-23.4-51.7-35.1-84.8-35.1s-61.3,11.7-84.8,35.1c-23.4,23.4-35.1,51.7-35.1,84.8s11.5,60.8,34.4,84.1l.7.7c23.4,23.4,51.7,35.1,84.8,35.1s61.4-11.7,84.8-35.1c1.6-1.6,3.2-3.2,4.7-4.9,20.3-22.4,30.5-49.1,30.5-79.9s-11.2-60.1-33.5-83.1M675.2,204.2c.4.4.9.9,1.3,1.3,0,0,0,.1.2.2,1,1,1.9,2,2.9,3.1,18.8,20.8,28.3,45.3,28.6,73.7v4.6c-.7,27.5-10.1,51.4-28.3,71.6-1.2,1.4-2.5,2.7-3.8,4s-.5.6-.8.9c-21.5,21.5-47.4,32.5-77.6,33h-3.8c-30.3-.4-56.3-11.4-77.9-33l-.8-.8c-1.2-1.2-2.4-2.5-3.5-3.8-19.1-21.1-28.7-46.1-28.7-75.1s11-57.6,33-79.6,48.5-33,79.6-33,57.6,11,79.6,33M593.9,174.4c-7.6,0-15,.9-22.1,2.3-20.4,4.2-38.4,14.1-54,29.7-.3.3-.7.7-1,1l24.8,24.8.2-.2c0-.1.3-.3.4-.4,14.3-14.3,31.6-21.8,51.8-22.2v-34.8M538.7,235s0-.1.2-.2l-4-3.9.3.2c-.2-.2-.4-.4-.6-.7l-3.4-3.2c-1.3-1.2-1.9-1.9-1.8-1.9l-15.2-15.3c-18.9,20.4-28.5,44.5-28.8,72.5h34.3c.6-18.2,6.9-34,19-47.5M513.9,356.9h0l23-23c-11.2-13.3-16.9-28.9-17.2-46.8h-34.2c.7,26.9,10.2,50.2,28.4,69.8M674.7,207.3c-.3-.3-.6-.6-1-.9-15.7-15.5-33.7-25.4-54-29.7-7.1-1.5-14.5-2.3-22.1-2.3v34.8c20.2.5,37.4,8,51.8,22.3.2.2.4.4.6.6.5-.5,1-.9,1.5-1.4.8-.8,1.7-1.7,2.5-2.5.3-.3.6-.5.9-.8.5-.6,1.1-1.1,1.6-1.7,0,0,0-.1.2-.2l.5-.6s0,0,.2-.1l17.4-17.4h-.1Z"/>
      <path class="st1" d="M706,287h-34.3c-.3,17.6-5.9,33-16.8,46.2,0,.2-.3.4-.5.6l9.9,9.8h0l13.2,13.2c0-.1.2-.2.2-.3,18.1-19.6,27.5-42.8,28.2-69.6M677.8,210.6c-.2-.2-.3-.4-.5-.6l-15.3,15.2h0l-9.6,9.5c0,.1.2.3.4.4,11.9,13.4,18.2,29.2,18.8,47.4h34.4c-.3-27.7-9.7-51.7-28.2-71.9M542.1,339.5c-.6-.6-1.2-1.2-1.8-1.8l-22.9,22.9.2.2c6.5,6.5,13.5,12,20.8,16.5,16.4,10.1,34.9,15.2,55.4,15.5v-31c-16.6-.4-31.3-5.6-44-15.5-2.7-2.1-5.2-4.4-7.8-6.9M651.1,337.6c-.5.6-1.1,1.2-1.7,1.8-2.5,2.5-5.1,4.8-7.8,6.9-12.7,9.9-27.4,15-44,15.4v31.1c20.5-.3,38.9-5.4,55.3-15.5,7.4-4.5,14.3-10,20.8-16.5l.2-.2-22.9-23h.1Z"/>
    </g>
    <g id="Layer2_0_FILL">
      <path class="st5" d="M482.9,227.6c-8.9,17.2-13.3,36.2-13.3,57.1s4.9,41.9,14.7,59.8c.6,1.2,1.3,2.3,1.9,3.5,5.4,9.2,12.2,17.8,20.2,25.8s17.5,15.4,27.1,21l2.9-5.3c-9.1-5.3-17.7-11.9-25.8-20-8.7-8.7-15.8-18.1-21.2-28.1-9.2-17-13.8-35.9-13.8-56.7s4.2-37.9,12.5-54.2l-5.3-2.9h0Z"/>
      <path class="st8" d="M703.9,349.4l-5.1-3.4c-5,8.3-11.2,16.1-18.6,23.5-23.4,23.4-51.7,35.1-84.8,35.1s-41.4-5-59-15.1l-2.9,5.3c18.4,10.6,39.1,16,61.9,16,34.8,0,64.5-12.3,89.1-36.9,7.6-7.6,14.1-15.8,19.3-24.4h0Z"/>
      <path class="st9" d="M651.1,178.1l2.9-5.3c-17.6-9.3-37.1-14-58.5-14-34.8,0-64.4,12.3-89,36.9-9.8,9.8-17.7,20.5-23.6,31.9l5.3,2.9c5.6-11,13.1-21.1,22.5-30.6,23.4-23.4,51.7-35.1,84.8-35.1s38.9,4.4,55.7,13.3h-.1Z"/>
      <path class="st3" d="M684.6,195.7c-9.4-9.4-19.6-17.1-30.6-22.9l-2.9,5.3c10.4,5.5,20.1,12.8,29.1,21.8,23.4,23.4,35.1,51.7,35.1,84.8s-5.5,43.1-16.5,61.3l5.1,3.4c11.7-19.1,17.5-40.7,17.5-64.7s-1-19.4-3-28.6c-.4-1.8-.8-3.5-1.3-5.3-5.5-20.6-16.4-39-32.6-55.2h.1Z"/>
    </g>
    <g id="Layer1_0_FILL">
      <path class="st4" d="M594.9,235h-.2c-7.4,0-13.8,2.8-19.1,8.1-5.4,5.3-8,11.8-8,19.4s2.7,14.1,8,19.5c2.4,2.3,4.9,4.2,7.7,5.5l-6.9,42h36.7l-6.9-42c2.8-1.3,5.3-3.2,7.7-5.5,5.4-5.4,8-11.9,8-19.5s-2.7-14.1-8-19.4c-5.3-5.3-11.7-8-19.1-8.1h0Z"/>
    </g>
    <g id="Layer0_0_FILL">
      <path class="st8" d="M492.9,269.9l-2-.2-.5,6.4h2c0,.1.5-6.1.5-6.1M684.7,340.2l3.5-5.4-1.8-1-3.5,5.2,1.7,1.1M701.1,296.5l.5-6.4h-2c0-.1-.5,6.1-.5,6.1l2,.2M644.6,375.1l-5.9,3.1,1,1.8,6-3.2-1.1-1.7M627.3,383l.8,1.9,6.3-2.4-.8-1.9-6.2,2.4M615.7,388.1l6.7-1.6-.5-1.9-6.6,1.6.5,1.9M602.9,388.1l.2,2,6.8-.9-.3-2-6.7.9M569.2,386.9l6.7,1.6.5-2-6.5-1.6-.6,2M581.9,387.5l-.3,2,6.8,1,.2-2.1-6.7-.9M557.2,382.8l6.4,2.4.8-1.9-6.2-2.3-.9,1.9M547,375.4l-1.1,1.8,6,3.2,1-1.8-5.9-3.1M536.7,368.8l-1.3,1.6c1.7,1.2,3.5,2.4,5.5,3.7l1.2-1.6c-1.2-.8-3.1-2-5.5-3.7M527.2,360.9l-1.3,1.4,5,4.5,1.3-1.5-5-4.4M509.4,344.3l1.2,1.6.3.3,2.6,3,1.5-1.3-2.8-3.2-.3-.3-1-1.2-1.5,1.1M502.4,334.5l3.6,5.4,1.6-1.1-2.6-3.9v-.2l-.8-1.1-1.8.9M496.9,324l2.8,5.8,1.9-.9-2.8-5.6-1.9.8M494.8,318.6l.2.4,1.9-.7-1.8-5.1v-.8c-.1,0-2.1.6-2.1.6l1,3.4.2.4.6,1.9M491.4,307h0v.7c.1,0,2-.5,2-.5v-.7c-.1,0-1.1-5.4-1.1-5.4l-1.9.4,1,5.5M491.1,289.7h-2.1l.2,2.8v.5l.4,3.1,2-.2-.3-3.1v-.8c-.1,0-.2-2.2-.2-2.2M492.7,258.6h0c0,.1-1,5.7-1,5.7l1.9.3,1-5.4v-.4c.1,0,.1-.2.1-.2l-1.9-.5v.4c-.1,0-.1.1-.1.1M496.2,246.8l-.2.4-.6,1.9-.2.4-1,3.4,2,.6v-.8c.1,0,1.9-5.1,1.9-5.1l-1.9-.7M498.3,241.8l1.9.8,2.8-5.6-1.9-.9-2.8,5.8M506.3,231.1v-.2l2.6-3.8-1.6-1.2-3.6,5.4,1.8.9.8-1.1M511.8,219.9l-1.2,1.6,1.6,1.2,1-1.2.3-.3,2.8-3.3-1.5-1.2-2.6,3.1-.3.3M532.2,204l-1.3-1.6-5,4.5,1.3,1.4,5-4.4M645.7,192.4l-6-3.2-1,1.8,5.9,3.2,1.1-1.8M622.4,182.7l-6.7-1.6-.5,1.9,6.6,1.6.5-1.9M628.1,184.4l-.8,1.9,6.2,2.4.8-1.9-6.3-2.4M603.2,179.1l-.2,2.1,6.7.8.3-2-6.8-.9M581.7,179.8l.3,1.9,6.7-.8-.2-2.1-6.8.9M575.9,180.8l-6.7,1.6.6,2,6.5-1.6-.5-2M563.6,184.1l-6.4,2.4.9,1.9,6.2-2.3-.8-1.9M542.1,196.8l-1.2-1.7c-2,1.3-3.9,2.5-5.5,3.7l1.3,1.6c2.4-1.7,4.2-2.9,5.5-3.6M545.9,192.1l1.1,1.8,5.9-3.2-1-1.8-6,3.2M656.2,370.1l-1.2-1.6c-2.4,1.7-4.2,2.9-5.5,3.6l1.2,1.6c2-1.3,3.8-2.5,5.5-3.7M660.7,366.5l5.1-4.5-1.4-1.5-5,4.4,1.4,1.5M678.8,344.7l-.3.3-2.8,3.3,1.5,1.2,2.6-3,.3-.3,1.2-1.6-1.6-1.1-.9,1.2M693.7,324.4l-1.9-.8-2.7,5.6,1.8.9,2.8-5.8M695.9,318.9l1.8-5.6-1.9-.5-.2.8-1.8,5.1,1.8.6.2-.4M697.2,307.5l1.9.5v-.4h0v-.3l1.1-5.5-2-.2-1.1,5.8v.3M700.7,270l-2,.2.3,3v.9l.2,2.2h2.1c0-.1-.2-2.8-.2-2.8v-.5l-.4-3.1M698.8,258.4l-1.9.5v.4l.2.3,1,5.4,1.9-.2-1-5.5h0v-.7M697.4,253.1l-1.8-5.6-.2-.4-1.8.6,1.8,5.1v.8l2-.6M682.7,227.3l2.6,3.9v.2l.8,1.2,1.8-.9-.5-.7-.2-.4-2.9-4.3-1.7,1.1M665.8,207.2l-5.1-4.4-1.4,1.5,5,4.4,1.4-1.4M681,221.8l-1.2-1.6-.3-.3-2.6-3-1.5,1.3,2.8,3.2.3.4.9,1.2,1.6-1.1M693.4,242.1l-2.8-5.8-1.9.9,2.8,5.6,1.9-.8M650.7,195.4l-1.2,1.7c1.3.8,3.1,2,5.5,3.6l1.2-1.6c-1.7-1.2-3.5-2.5-5.5-3.8M523.8,325.8l-.6-.9-1.4.8,2.8,4.2,1.3-.9-2-3.1h0M521.1,321.1l-2.2-4.4-1.5.6,2.2,4.6,1.5-.7M515.9,308.7v-.6l-1.7.4.8,2.7v.3c0,0,.6,1.5.6,1.5l.2.3,1.5-.5-1.4-4M513.1,304.4l1.5-.4v-.5l-.9-4.3-1.5.2.8,4.4h0v.6M531.7,336.2l-2.2-2.6-.2-.2-.8-.9-1.2.9,1,1.2.2.2,2,2.4,1.2-1M511.4,292.7l.2,2.5,1.6-.2-.2-2.5v-2.4h-1.7c0,.1.1,1.9.1,1.9v.8M661.4,333.6l-.2.2-2.2,2.6,1.2,1,2-2.4.2-.2,1-1.2-1.2-.9-.8.9M668.9,325.9l-1.4-.8-.6.9h0c0,.1-2.1,3.2-2.1,3.2l1.3.9,2.3-3.4v-.3c0,0,.5-.5.5-.5M671.7,317l-2.1,4.4,1.4.7,2.2-4.6-1.5-.6M674.9,308.4v.6c0,0-1.5,4.1-1.5,4.1l1.5.5v-.3c0,0,1.6-4.5,1.6-4.5l-1.5-.4M678.4,299.6l-1.5-.2-.8,4.2v.3c0,0,0,.2,0,.2l1.5.4v-.3c0,0,0-.1,0-.1h0c0-.1.8-4.5.8-4.5M677.7,292.8l-.2,2.5,1.6.2.2-2.5v-2.5c0,0-1.5,0-1.5,0,0-.1,0,1.7,0,1.7v.7M616.7,366.8l-.4-1.5-5.2,1.2.4,1.5,5.2-1.2M626.2,363.5l-.6-1.5-5,1.9.6,1.5,5-1.9M629.7,360.2l.8,1.4,4.8-2.5-.9-1.4-4.7,2.5M643.6,353.8l-1-1.2c-1.9,1.3-3.4,2.3-4.4,2.9l1,1.3c1.6-1,3.1-2,4.4-3M575.1,365.5l-.5,1.5,5.2,1.2.4-1.6-5.2-1.2M601.6,369.6l5.3-.7-.2-1.6-5.3.6.2,1.6M589.9,369.9l.2-1.6-5.3-.6-.2,1.5,5.4.8M544.3,351.1l1.1-1.2-4-3.5-1.1,1.1,4,3.5M560.9,361.9l.8-1.4-4.6-2.5-.9,1.4,4.8,2.5M565.8,362.3l-.7,1.5,5,1.9.6-1.6-4.9-1.9M548.9,352.8l-1,1.2c1.3.9,2.8,1.9,4.4,3l1-1.3c-1-.6-2.4-1.6-4.3-2.9M651.1,347.4l-1.1-1.1-4,3.5,1.1,1.2,4-3.5M512.4,276.8v.7l-.2,1.8h1.6c0,.1,0-1.7,0-1.7v-.6l.2-2.4-1.6-.2-.2,2.5M515.6,266v-.5l-1.5-.4v.4h0c0,.1-.8,4.5-.8,4.5l1.5.2.8-4.3M516.9,256.1l-.2.3-.5,1.5v.3c0,0-1,2.6-1,2.6l1.6.5v-.6l1.5-4-1.5-.6M519.9,252.8l2.2-4.4-1.5-.7-2.2,4.5,1.5.6M524.9,243.6l2-3.1-1.3-.9-2.8,4.2,1.4.8.6-.9h0M531.5,232.2l-2,2.4-.2.2-1,1.2,1.2.9.8-.9.2-.2,2.2-2.6-1.2-1M545.4,222.2l-1.1-1.2-4,3.6,1.1,1.1,4-3.5M556.1,212.9l.9,1.4,4.6-2.5-.8-1.4-4.8,2.6M547.9,218.2l1,1.2c1.9-1.3,3.3-2.3,4.3-2.9l-1-1.3c-1.6,1-3.1,2-4.4,2.9M570.7,208.1l-.6-1.6-5,1.9.7,1.5,4.9-1.8M579.9,203.9l-5.2,1.2.5,1.6,5.2-1.2-.4-1.6M606.9,203.2l-5.3-.7-.2,1.6,5.3.7.2-1.6M590.1,203.9l-.2-1.6-5.4.8.2,1.6,5.3-.7M626.2,208.6l-5-1.9-.6,1.5,5,1.9.6-1.5M611.1,205.7l5.2,1.2.4-1.5-5.2-1.2-.4,1.6M642.6,219.7l1-1.2c-1.3-1-2.8-1.9-4.4-2.9l-1,1.3c1,.6,2.5,1.6,4.4,2.9M630.4,210.6l-.8,1.4,4.7,2.5.9-1.3-4.8-2.6M677.2,274.7l.2,2.4v.6l.2,1.8h1.6v-2.7l-.2-2.5-1.6.2M677.4,265.8h0c0-.1,0-.4,0-.4l-1.5.4v.5c0,0,.9,4.2.9,4.2l1.5-.2-.8-4.4h0M669.3,248.6l2.1,4.4,1.5-.6-2.2-4.5-1.4.7M674.6,256.4l-1.5.5,1.4,4.1v.6c0,0,1.7-.5,1.7-.5l-1.5-4.4v-.3M665.8,239.9l-1.3.8,2.1,3.1h0c0,.1.6,1.1.6,1.1l1.4-.8-.4-.6v-.3c0,0-2.4-3.4-2.4-3.4M650,226l1.1-1.1-4-3.6-1.1,1.2,4,3.5M662.2,235.1l-.2-.2-2-2.4-1.2,1,2.2,2.6.2.2.8.9,1.2-.9-1-1.2h0Z"/>
    </g>
  </g>
</svg>