<?xml version="1.0" encoding="UTF-8"?>
<svg id="Layer_1" xmlns="http://www.w3.org/2000/svg" version="1.1" xmlns:xlink="http://www.w3.org/1999/xlink" viewBox="0 0 360.1 394.1">
  <!-- Generator: Adobe Illustrator 29.3.1, SVG Export Plug-In . SVG Version: 2.1.0 Build 151)  -->
  <defs>
    <style>
      .st0 {
        fill: #575047;
      }

      .st1 {
        fill: #d5c9b7;
      }

      .st2 {
        fill: #fff;
      }

      .st3 {
        fill: url(#linear-gradient1);
      }

      .st4 {
        fill: #19893a;
      }

      .st5 {
        fill: #040506;
      }

      .st6 {
        fill: #f81c23;
      }

      .st7 {
        fill: #968a7b;
      }

      .st8 {
        fill: #0f4a7c;
      }

      .st9 {
        fill: #ffd927;
      }

      .st10 {
        fill: url(#linear-gradient);
      }

      .st11 {
        fill: #fffadb;
      }
    </style>
    <linearGradient id="linear-gradient" x1="-969.3" y1="867" x2="-960" y2="882.9" gradientTransform="translate(7415.5 6710.8) scale(7.5 -7.5)" gradientUnits="userSpaceOnUse">
      <stop offset="0" stop-color="#ffd927"/>
      <stop offset="1" stop-color="#0f4a7c"/>
    </linearGradient>
    <linearGradient id="linear-gradient1" x1="333.8" y1="643.7" x2="264.4" y2="603.6" gradientTransform="translate(-733.4 502.5) rotate(45) scale(1.4 -1.4)" gradientUnits="userSpaceOnUse">
      <stop offset="0" stop-color="#0f4a7c"/>
      <stop offset="1" stop-color="#ffd927"/>
    </linearGradient>
  </defs>
  <path class="st2" d="M180.1,394.1c-5.8,0-11.6-1.4-16.8-4L22.3,319.6c-13.8-6.9-22.3-20.6-22.3-36V16.1C0,7.2,7.2,0,16.1,0h327.9c8.9,0,16.1,7.2,16.1,16.1v267.5c0,15.4-8.5,29.1-22.3,36l-141,70.5c-5.2,2.6-11,4-16.8,4h0Z"/>
  <path class="st8" d="M345,282.2V13.5H14.5v268.7c0,10.2,4.5,17.5,13.4,22l142,71.2c6.7,3.2,13.2,3.2,19.4,0l142-71.2c9.2-4.5,13.8-11.8,13.8-22h0Z"/>
  <path class="st7" d="M307.4,147.3c-8.2-28.1-23.8-51.1-47-68.9-23.8-18.1-50.7-27.2-80.5-27.2s-68.2,13-94.3,39.1c-26.1,25.8-39.1,57.1-39.1,93.9s5.5,43.7,16.4,63.3l244.5-100.2h0Z"/>
  <path class="st0" d="M312.6,184.2c0-11.9-1.5-23.5-4.5-34.7L64,249.7c11.7,20.6,27.6,36.9,47.7,48.8,20.9,12.4,43.6,18.6,68.2,18.6,36.8,0,68.1-13,93.9-39.1,25.8-25.8,38.8-57.1,38.8-93.9h0Z"/>
  <path class="st9" d="M68.9,126l107.3,58.9,61.5-111.8c-30.3-15.9-61.7-18.9-94.3-8.9-32.5,9.7-57.1,29.6-73.8,59.6l-.7,2.2h0Z"/>
  <path class="st8" d="M213.4,304.9c33-9.4,58-28.9,74.9-58.5l-112.2-61.5-59.2,107.7,2.2,1.5c30.1,16.4,61.5,20,94.3,10.8Z"/>
  <path class="st4" d="M288.3,246.4v.4l1.1-2.2c16.6-30.3,20.1-62.1,10.4-95.4-9.7-33-29.7-58-60-74.9l-2.2-1.1-61.5,111.8,112.2,61.5h0Z"/>
  <path class="st6" d="M176.2,184.9l-107.3-58.9c-15.6,29.8-18.8,60.9-9.3,93.2,9.2,32.3,28.4,56.8,57.8,73.4l58.9-107.7h-.1Z"/>
  <path class="st8" d="M291.7,184.2c0-30.1-10.9-55.6-32.8-76.8-21.9-21.4-48.2-32-79-32s-57.4,10.6-79,31.7c-21.9,21.4-32.8,47.1-32.8,77.1s10.9,55.8,32.8,77.1c21.6,21.1,47.9,31.7,79,31.7s57.1-10.6,79-31.7c21.9-21.4,32.8-47.1,32.8-77.1M255.6,184.2c0,20.9-7.3,38.8-22,53.7-14.9,14.7-32.8,22-53.7,22s-39-7.3-53.7-22c-14.9-14.9-22.4-32.8-22.4-53.7s7.5-38.6,22.4-53.3c14.7-14.9,32.5-22.4,53.7-22.4s38.8,7.5,53.7,22.4,22,32.4,22,53.3Z"/>
  <path class="st11" d="M277.2,115.2c-13.9-19.6-32.4-33.7-55.5-42.1-27.1-9.9-54.4-10.1-82-.4-28.1,9.7-49.2,27-63.3,51.8-16.9,29.3-20.2,60.2-10.1,92.8,9.9,32.3,30.2,55.8,60.7,70.4,33.5,16.4,67.4,16.9,101.7,1.5,34.8-15.4,56.8-41,66-76.8,2.2-7.7,3.6-17.1,4.1-28.3-.5-.5-1.7-.6-3.7-.4-1.7,0-2.7.1-3,.4-1,10.9-1.7,17.5-2.2,19.7-2,9.2-5.5,18.9-10.4,29.1-5.5,10.2-11.3,18.6-17.5,25.3-1.5.5-2.4,1-2.6,1.5-11.4,11.4-24.6,20-39.5,25.7s-30.4,8.1-46.6,7.1c-30.6-1.5-55.8-13.2-75.6-35-19.1-20.1-29.1-44.6-29.8-73.4l-1.5-1.5c.7-.5,1.1-1,1.1-1.5.7-18.6,5.7-36.3,14.9-52.9,4.2-7.2,9.3-13.8,15.3-19.7l-.4-.7c-.2-.2,0-.6.4-1.1,21.4-22.1,48.7-33.4,82-33.9,33.5-.5,60.7,10.4,81.6,32.8.7.7,1.1,1.4,1.1,1.9l-.4.4.4,1.1c9.2,9.4,16.3,20.5,21.2,33.2,5.2,12.7,7.8,25.6,7.8,38.8l6.7,1.1c-.2-24.6-7.2-46.8-20.9-66.7v-.2h0Z"/>
  <path class="st1" d="M242.9,243.1c-4-4.5-6.7-7.3-8.2-8.6-14.2,14.7-32,22.4-53.7,23.1v13.4l1.1-.7c.5-.2,1.1-.6,1.9-1.1.5,0,1,.9,1.5,2.6.5,1.5,1.1,1.6,1.9.4-.7.2-1.4-.9-1.9-3.4.7-.5,1.4-.4,1.9.4l2.6.7c0-1.7.4-2.2,1.1-1.5.7.7,1,1.7.7,3l2.2-1.5c.2-.5,0-1.2-.7-2.2.7-.5,1.1-.4,1.1.4,1.2-.5,2.2-.6,3-.4.2,0,.6-.1,1.1-.4.5,0,.6.6.4,1.9l2.2-1.5,1.5-.7,1.9-.4,1.5-1.1c.7,0,.7,1.1,0,3.4,1.2,0,1.7-.5,1.5-1.5.2,0,.4.1.4.4.2.2,1,.1,2.2-.4-.7-1.5-1-2.6-.7-3.4.2-.5.9.2,1.9,2.2.7-.5,1.5-.7,2.2-.7l-1.1-2.6,2.2,1.1c.5-.7,1.2-1.1,2.2-1.1v-1.9c0-.7.5,0,1.5,2.2l2.2-.4c-.7-1.7-.9-2.9-.4-3.4s.7.5,1.5,2.2l1.9-1.9c0-.2,0-.6-.4-1.1-.5-.5-.5-.9,0-1.1l2.6,1.9c0-.2.4-.6,1.1-1.1v-3c.7.2,1.2.9,1.5,1.9h2.2c-1.2-1.2-1.6-2.2-1.1-3,.2-.7,1-.4,2.2,1.1l1.1-1.5c0-.2,0-.6-.4-1.1,0-.5.2-.9.7-1.1l1.5,1.5c0-.2.5-.6,1.5-1.1-1-1-1.4-1.7-1.1-2.2.5-.2,1.2.1,2.2,1.1.7-.5,1.1-1,1.1-1.5-.5-.7-.9-1.2-1.1-1.5-.2-.5.7-.2,3,.7l1.1-1.5c0-.7,0-1.4.4-1.9l1.1-2.2h.2,0Z"/>
  <path class="st1" d="M267.1,184.2v-.7c-6.5,0-9.8.1-10.1.4,0,16.6-6.2,32.2-18.6,46.6-1.2,1.5-.7,3.4,1.5,5.6s3.1,3,5.6,5.2c.5,0,1.2-.2,2.2-.7-.7-.2-1.1-.7-1.1-1.5s.4-.7,1.1,0c.5-.2,1.2-.5,2.2-.7l-1.5-1.1c.5-1,1-1.2,1.5-.7.5.2,1.1.7,1.9,1.5l1.1-2.2c-1.7-1-2.5-1.6-2.2-1.9.2,0,1-.1,2.2-.4l1.5-1.1v-3.4l1.1-2.2c.5-.5,1.1-.9,1.9-1.1v-1.1c0-.7.7-1.5,2.2-2.2-.5-.5-.6-.9-.4-1.1s.5-.4.7-.4l.4-1.9,1.1-1.5c-.5.2-.5-.4,0-1.9l1.1-1.5,1.9-5.2.7-3v-.4c-.2-.2,0-.9.7-1.9l1.5-1.9c-1.2.2-1.7,0-1.5-.7l.4-.7.7-2.2v-1.1c.5-1.2.9-2.2,1.1-3-1.2.7-1.5.2-.7-1.5.2-.2,1.2-.9,3-1.9-2.5-1.2-3.2-2.1-2.2-2.6.7-.2,1.6-.5,2.6-.7,0-.2-.4-.6-1.1-1.1s-.9-1.1-.4-1.9h-2.2v-.2h0Z"/>
  <path class="st1" d="M262.3,108.9l-.4-1.1-25.7,25.3c12.4,13.7,19.3,29.7,20.5,48.1.5.5,4.6.7,12.3.7,14.4,0,21.7-.5,22-1.5-1.7-13.2-3.1-21.9-4.1-26.1-3.2-12.9-11.4-28.1-24.6-45.5h0Z"/>
  <path class="st8" d="M254.4,132.7c-.5,0-1,.5-1.5,1.5-.5,1.2-.4,2,.4,2.2,1.7-.2,2.9-1,3.4-2.2s-.2-1.7-2.2-1.5h-.1Z"/>
  <path class="st8" d="M268.2,164c-.2-.2-.9,0-1.9.7s-1.1,1.4-.4,1.9c1,.7,2,.6,3-.4.7-1,.5-1.7-.7-2.2h0Z"/>
  <path class="st8" d="M252.2,128.3c-.5,0-1.1.7-1.9,2.2-.5,1.2.6,1.4,3.4.4l-1.5-2.6h0Z"/>
  <path class="st8" d="M261.1,143.2l-1.9,1.5c-1.2,1.7-.6,1.9,1.9.4,2.2-1.2,2.2-1.9,0-1.9Z"/>
  <path class="st8" d="M249.2,125.7c-.2.2-.6.6-1.1,1.1-.5.7-.6,1.2-.4,1.5,1,0,1.9-.5,2.6-1.5.5-1,0-1.4-1.1-1.1Z"/>
  <path class="st8" d="M262.6,146.5l-2.6,1.5c-.2,1.5.6,1.7,2.6.7,1.7-1,1.7-1.7,0-2.2Z"/>
  <path class="st8" d="M265.6,156.6c-.7.2-1.2.6-1.5,1.1,0,.5.2.9.7,1.1.7.2,1.5-.1,2.2-1.1s.2-1.4-1.5-1.1h0Z"/>
  <path class="st8" d="M267.8,168.9c-.5.2-.7.6-.7,1.1-.2.5-.2.9,0,1.1,1,.5,1.9.1,2.6-1.1.5-1.2,0-1.6-1.9-1.1h0Z"/>
  <path class="st8" d="M267.1,159.9l-2.2,1.5c.5,1,1.4,1.1,2.6.4s1.1-1.4-.4-1.9h0Z"/>
  <path class="st8" d="M267.8,178.6c-.5,1,0,1.5,1.1,1.5s1.9-.2,1.9-.7-.5-.7-1.5-.7h-1.5Z"/>
  <path class="st8" d="M263.4,154c-.7.5-.6.9.4,1.1s1.6,0,1.9-.7l-2.2-.4h-.1Z"/>
  <path class="st8" d="M285,158.8c-.2.2-.4,1-.4,2.2s.4,1.4,1.1,1.1c.2-.2,0-1.4-.7-3.4h0Z"/>
  <path class="st8" d="M247.7,123.8l-.7,1.1c.7,0,1.2-.2,1.5-.7s0-.6-.7-.4h0Z"/>
  <path class="st8" d="M284.6,156.2c-.5.5-.7.9-.7,1.1.5.5.9.6,1.1.4.2-.5,0-1-.4-1.5h0Z"/>
  <path class="st10" d="M261.9,107.8h.4c.5-.2,0-1-1.1-2.2-20.9-22.4-48.1-33.3-81.6-32.8-33,.5-60.2,11.8-81.6,33.9-.5.5-.7.9-.7,1.1l.4.7c-5.7,6.2-10.7,12.8-14.9,19.7l.4.4c1.2-2,3.9-5.6,7.8-10.8,4.5-6,7.2-8.8,8.2-8.6l24.2,22.7c-13.9,15.7-21,32-21.2,49.2l.4,3.4c.7,16.9,7.5,33.2,20.1,48.8-5,5.5-12.9,13.2-23.8,23.1l-1.1,1.1c9.7,10.4,21.1,18.8,34.3,25,13.2,6,27,9.3,41.4,10.1v-1.1c-13.2-.2-26.3-3.5-39.5-9.7-13.2-6-24.1-13.8-32.8-23.5l23.5-23.5c14.7,15.2,32.8,22.7,54.4,22.7h2.2c21.1-.2,39-7.8,53.7-22.7l3.4-4.1c12.4-14.4,18.8-29.9,19-46.6.2-.2,3.6-.4,10.1-.4.2-.2.9-.4,1.9-.4.5-.2.6-.9.4-1.9-7.9,0-12-.2-12.3-.7-1.5-18.6-8.4-34.5-20.9-47.7l25.7-25.3h-.4Z"/>
  <path class="st5" d="M197.1,178.2c7.2-8.7,8.2-17.8,3-27.2-5.5-9.2-13.8-13-25-11.6-10.7,1.5-16.9,7.9-18.6,19.4-1.7,11.4,2.4,19.5,12.3,24.2l-6,41,32.4.7c.7-2.2,0-9.4-2.2-21.6-2.2-11.9-3.1-18.6-2.6-20.1.2-.2,2.5-1.9,6.7-4.8h0Z"/>
  <path class="st11" d="M172.8,73.5v.4c-12.4,0-25.5,3.2-39.1,9.7-13.4,6.2-24.6,14-33.5,23.5l23.8,23.5c18.9-15.6,37-23.2,54.4-22.7l.4-33.9c-.2-.2-2.2-.4-6-.4h0Z"/>
  <path class="st8" d="M159.4,94.7c-.5.2-.6,1-.4,2.2.2,1,.6,1.6,1.1,1.9.7.2,1.1-.4,1.1-1.9-.2-1.5-.9-2.2-1.9-2.2h.1Z"/>
  <path class="st8" d="M175.1,92.5c-.5,0-.7.7-.7,2.2s.2,1.9.7,1.9.7-.6.7-1.9-.2-2.2-.7-2.2Z"/>
  <path class="st8" d="M152.3,97c-.7,1-.6,1.9.4,2.6,1,1,1.5.7,1.5-.7-.7-1.5-1.4-2.1-1.9-1.9h0Z"/>
  <path class="st8" d="M156.1,95.8c-.7.2-.9.9-.4,1.9.2,1,.6,1.5,1.1,1.5s.7-.5.7-1.5c-.2-1.2-.7-1.9-1.5-1.9h.1Z"/>
  <path class="st8" d="M110.6,101.1c-.2,0-.9.5-1.9,1.5-1,1.2-1.5,2-1.5,2.2l4.5-3.4-1.1-.4h0Z"/>
  <path class="st8" d="M126.6,109.3c-.7,0-.9.5-.4,1.5.7,1,1.4,1.5,1.9,1.5,1,0,1.1-.5.4-1.5-.5-1-1.1-1.5-1.9-1.5Z"/>
  <path class="st8" d="M171.3,93.2c-.2.2-.4.9-.4,1.9.2,1,.5,1.5.7,1.5.7,0,1-.7.7-2.2-.2-1.2-.6-1.6-1.1-1.1h0Z"/>
  <path class="st8" d="M141.1,101.1c-.5.2-.5.9,0,1.9.2,1,.6,1.5,1.1,1.5,1,0,.6-1.1-1.1-3.4Z"/>
  <path class="st8" d="M118.4,116c-.2,0-.5.2-.7.7-.2.2,0,.5.4.7.5.7,1.1,1.2,1.9,1.5.7.5.9.1.4-1.1l-1.9-1.9h-.1Z"/>
  <path class="st8" d="M167.2,93.6l1.1,3.4c.5-.5.6-1.2.4-2.2s-.7-1.4-1.5-1.1h0Z"/>
  <path class="st8" d="M149.7,98.1c-.7,0-1,.6-.7,1.9.2,1,.6,1.5,1.1,1.5,1,0,.9-1.1-.4-3.4h0Z"/>
  <path class="st8" d="M144.5,99.9c-.7.2-.9.9-.4,1.9s1,1.5,1.5,1.5l-1.1-3.4Z"/>
  <path class="st8" d="M124,111.5l-1.1.7,2.2,2.2.7-1.1c-.7-1.2-1.4-1.9-1.9-1.9h0Z"/>
  <path class="st8" d="M121,113.7c-.7,0-.9.5-.4,1.5.5.7,1.1,1.2,1.9,1.5.7-.5.2-1.5-1.5-3Z"/>
  <path class="st8" d="M135.2,104.4c-.5,0-.5.5,0,1.5.2,1,.6,1.6,1.1,1.9,1-.5.6-1.6-1.1-3.4Z"/>
  <path class="st8" d="M132.2,105.9l1.1,3c.5-.5.6-1.1.4-1.9-.2-1-.7-1.4-1.5-1.1Z"/>
  <path class="st8" d="M130.3,88l-1.9,1.5c.2.5,1,.4,2.2-.4,1-.7.9-1.1-.4-1.1h.1Z"/>
  <path class="st8" d="M168.3,76.8l-1.1,1.1h2.6c0-.7-.5-1.1-1.5-1.1Z"/>
  <path class="st8" d="M149,80.9l-1.5.7c1,.5,1.9.5,2.6,0,.7-.7.4-1-1.1-.7Z"/>
  <path class="st8" d="M127.4,89.9l-2.2,1.5c.2.5.9.5,1.9,0,.7-.7.9-1.2.4-1.5h-.1Z"/>
  <path class="st8" d="M165,77.6c-.5,0-.7.2-.7.7.2.5.7.6,1.5.4.2-.2,0-.6-.7-1.1h0Z"/>
  <path class="st8" d="M116.2,118.2l-.7.7v.4l1.1-.4-.4-.7h0Z"/>
  <path class="st11" d="M234.3,131.3l25-25c-21.4-21.1-47.2-32-77.5-32.8l-.7,33.9c21.6,1.2,39.4,9.2,53.3,23.8h0Z"/>
  <path class="st8" d="M187,93.2c-.2,0-.5.7-.7,2.2,0,1.5.4,2,1.1,1.5,1.2-.7,1.1-2-.4-3.7h0Z"/>
  <path class="st8" d="M237.3,113.4c-.5,0-1.1.5-1.9,1.5-.5,1.2-.4,2,.4,2.2,2.7-2.7,3.2-4,1.5-3.7Z"/>
  <path class="st8" d="M228.3,106.7c-.5-.2-1.1.4-1.9,1.9-.5,1.2-.4,1.9.4,1.9,2-2.5,2.5-3.7,1.5-3.7h0Z"/>
  <path class="st8" d="M218.3,101.4c-.5.2-.9.9-1.1,1.9-.5.7-.5,1.2,0,1.5.7.5,1.4,0,1.9-1.5s.2-2.1-.7-1.9h-.1Z"/>
  <path class="st8" d="M200.4,78.7c-1.5.2-1.2.7.7,1.5,2,.7,3.2.9,3.7.4.2-.7-1.2-1.4-4.5-1.9h0Z"/>
  <path class="st8" d="M207.5,97c-.5,0-.9.7-1.1,2.2-.2,1.2,0,1.9.7,1.9,1.5-2.7,1.6-4.1.4-4.1h0Z"/>
  <path class="st8" d="M196.3,94.4c-.2,0-.5.6-.7,1.9-.5,1-.4,1.6.4,1.9,1.7-1.7,1.9-3,.4-3.7h-.1Z"/>
  <path class="st8" d="M199.6,95.5l-.7,2.6,1.5.7.7-3-1.5-.4h0Z"/>
  <path class="st8" d="M203.7,95.8c-.5,0-.7.7-.7,2.2s.2,1.9.7,1.9.7-.6.7-1.9-.2-2.2-.7-2.2Z"/>
  <path class="st8" d="M230.9,108.9c-.2,0-.5.5-.7,1.5-.5,1.2-.5,2,0,2.2l1.9-2.6c.2-.2,0-.6-.4-1.1-.2-.2-.5-.2-.7,0h0Z"/>
  <path class="st8" d="M234.3,111.1c-.5,0-1,.6-1.5,1.9-.5,1-.4,1.5.4,1.5s1.6-.5,1.9-1.5c.2-1.2,0-1.9-.7-1.9h-.1Z"/>
  <path class="st8" d="M210.8,98.1c-.2,0-.5.6-.7,1.9-.5,1.2-.4,2,.4,2.2,1.2-2.5,1.4-3.9.4-4.1h-.1Z"/>
  <path class="st8" d="M221.3,103.3c-.2,0-.5.6-.7,1.9-.5,1-.4,1.5.4,1.5,1.2-2.2,1.4-3.4.4-3.4h-.1Z"/>
  <path class="st8" d="M214.9,99.9l-1.5,3.4c.5.2,1.1-.2,1.9-1.5.5-1,.4-1.6-.4-1.9Z"/>
  <path class="st8" d="M239.9,116c-.2,0-.6.4-1.1,1.1-.5.7-.5,1.4,0,1.9,2-2,2.4-3,1.1-3Z"/>
  <path class="st8" d="M240.6,95.5c-.2.5,0,1,1.1,1.5,1,.7,1.6.9,1.9.4-.7-1.2-1.7-1.9-3-1.9Z"/>
  <path class="st8" d="M247.7,101.1l.4,1.1c1-.2,1.4-.5,1.1-.7-.2-.5-.7-.6-1.5-.4h0Z"/>
  <path class="st8" d="M244.7,98.1c-.2.2-.2.6,0,1.1s.6.7,1.1.7c.5-.2,0-.9-1.1-1.9h0Z"/>
  <path class="st8" d="M233.2,91l.4,1.1c1-.2,1.4-.5,1.1-.7-.2-.5-.7-.6-1.5-.4h0Z"/>
  <path class="st8" d="M197,78c-.5.2-.5.6,0,1.1s1,.5,1.5,0l-1.5-1.1Z"/>
  <path class="st8" d="M209.7,80.9c-.5.2-.5.6,0,1.1.5.2,1,.1,1.5-.4l-1.5-.7h0Z"/>
  <path class="st8" d="M213.4,82.1c-.5,0-.7.2-.7.7.2.5.7.6,1.5.4.5-.2.2-.6-.7-1.1h0Z"/>
  <path class="st1" d="M178.8,257.6c-22.4,0-40.5-7.6-54.4-22.7l-23.5,23.8c8.7,9.7,19.6,17.5,32.8,23.5,13.2,6.2,26.3,9.4,39.5,9.7.5,0,1.5.1,3,.4,1.5,0,2.4-.2,2.6-.7v-33.9h0Z"/>
  <path class="st8" d="M125.5,251.6c-.2,0-.6,1.1-1.1,3.4.7.2,1.5-.4,2.2-1.9.7-1.2.4-1.7-1.1-1.5h0Z"/>
  <path class="st8" d="M119.9,247.1c-.2,0-.6.5-1.1,1.5-.7,1-.7,1.6,0,1.9.7,0,1.4-.5,1.9-1.5.5-1.2.2-1.9-.7-1.9h-.1Z"/>
  <path class="st8" d="M141.1,260.9c-.5.2-.9.7-1.1,1.5-.2,1,0,1.6.7,1.9,1,.2,1.5-.4,1.5-1.9.2-1.2,0-1.7-1.1-1.5h0Z"/>
  <path class="st8" d="M160.1,267.6c-.5.2-.7.9-.7,1.9s.4,1.7,1.1,1.5l1.1-3-1.5-.4h0Z"/>
  <path class="st8" d="M122.9,249.4c-.2,0-.9,1.1-1.9,3.4.7.5,1.5,0,2.2-1.5.7-1.2.6-1.9-.4-1.9h.1Z"/>
  <path class="st8" d="M163.5,268.4c-.2,0-.4.6-.4,1.9s.2,1.5.7,1.5,1.1-.7,1.1-2.2-.5-1.9-1.5-1.1h.1Z"/>
  <path class="st8" d="M171.3,268.7c-.7,0-1.1.7-1.1,2.2s.5,1.9,1.5,1.1c.5-.2.6-.9.4-1.9,0-1-.2-1.5-.7-1.5h-.1Z"/>
  <path class="st8" d="M157.5,266.5c-.5.2-1,.7-1.5,1.5-.2,1-.2,1.6,0,1.9.7.5,1.2.2,1.5-.7.2-1,.2-1.9,0-2.6h0Z"/>
  <path class="st8" d="M167.2,268.7c-.7.7-.7,1.9,0,3.4l1.5-3-1.5-.4Z"/>
  <path class="st8" d="M131.5,256.1c-.5,0-.9.6-1.1,1.9-.2,1,0,1.5.7,1.5s.9-.6,1.1-1.9c.2-1.2,0-1.7-.7-1.5Z"/>
  <path class="st8" d="M138.5,259.4l-1.5,3.4c.5.2,1.1-.2,1.9-1.5.5-1,.4-1.6-.4-1.9Z"/>
  <path class="st8" d="M153.1,266.1c-.2,0-.5.4-.7,1.1s-.2,1.2,0,1.5c.7.5,1.2,0,1.5-1.5.5-1.5.2-1.9-.7-1.1h0Z"/>
  <path class="st8" d="M128.5,254.2l-.7,3c.5.2,1-.2,1.5-1.5.5-1,.2-1.5-.7-1.5h0Z"/>
  <path class="st8" d="M117.3,244.9c-.2,0-.6.4-1.1,1.1-.2.7-.2,1.2,0,1.5l1.9-1.9c0-.7-.2-1-.7-.7h-.1Z"/>
  <path class="st8" d="M148.2,263.9l-1.1,3.4c.7.2,1.4-.2,1.9-1.5.2-1.2,0-1.9-.7-1.9h-.1Z"/>
  <path class="st8" d="M144.1,262.8c0,.5-.2,1.1-.7,1.9,0,.5.2,1,.7,1.5l.7-2.2c0-.7-.2-1.1-.7-1.1h0Z"/>
  <path class="st8" d="M117.3,268.7c-.2.5,0,1.1,1.1,1.9,1,.5,1.6.5,1.9,0l-3-1.9Z"/>
  <path class="st8" d="M150.5,265l-.4,2.6,1.5-2.6h-1.1Z"/>
  <path class="st8" d="M113.2,266.1c0,.5.5,1,1.5,1.5s1.6.6,1.9.4c-1.2-1.2-2.4-1.9-3.4-1.9Z"/>
  <path class="st8" d="M144.9,282.9c-.5.5-.4.9.4,1.1.7.2,1.4.1,1.9-.4-.5-1-1.2-1.2-2.2-.7h-.1Z"/>
  <path class="st8" d="M152.3,285.1l.4,1.1c1,.2,1.5.1,1.5-.4-.2-.7-.9-1-1.9-.7Z"/>
  <path class="st8" d="M135.2,257.6l-.7,1.1c.2.7.6.7,1.1,0,.2-.5,0-.9-.4-1.1h0Z"/>
  <path class="st8" d="M141.1,281l-.7.7.4.4.7-.4-.4-.7Z"/>
  <path class="st8" d="M132.2,277.3v1.1h.7v-.7l-.7-.4Z"/>
  <path class="st11" d="M102.4,184.5l-33.9.4c.7,28.6,10.8,52.5,30.2,71.9,10.9-10.2,18.9-18,23.8-23.5-12.7-15.6-19.4-31.9-20.1-48.8Z"/>
  <path class="st8" d="M102.8,226.3l-2.2,3c1,.2,2,0,3-.7,1-1,.7-1.7-.7-2.2h0Z"/>
  <path class="st8" d="M96.4,213.6l-2.2,1.9c-.2,1.7.5,2,2.2.7s1.7-2.1,0-2.6Z"/>
  <path class="st8" d="M91.6,200.2c-.5,0-.9.2-1.1.7-.5.7-.5,1.2,0,1.5,1.5.2,2.5-.1,3-1.1s-.1-1.4-1.9-1.1Z"/>
  <path class="st8" d="M92.7,204.3c-.5,0-.9.2-1.1.7-.5.7-.5,1.2,0,1.5,1,.5,1.9.1,2.6-1.1s.2-1.6-1.5-1.1Z"/>
  <path class="st8" d="M91.6,196.4v-.4l-2.6,1.5c.5,1,1.9.9,4.1-.4l-1.5-.7Z"/>
  <path class="st8" d="M89.7,193.1c-1.5.5-1.4,1,.4,1.5,1.5.5,2.2.2,2.2-.7s-.4-.5-1.1-.7c-.5-.2-1-.2-1.5,0h0Z"/>
  <path class="st8" d="M100.9,223.6l-1.5.7c-.7.5-1,.9-.7,1.1.5.7,1.2.6,2.2-.4,1.2-.7,1.2-1.2,0-1.5h0Z"/>
  <path class="st8" d="M93.1,208c-1,1.5-1.2,2.2-.7,2.2s1.6-.5,2.6-1.5l-1.9-.7Z"/>
  <path class="st8" d="M104.3,229.6c-.2,0-.6.4-1.1,1.1-.7.7-.9,1.4-.4,1.9.7-.7,1.4-1.2,1.9-1.5.7-.7.6-1.2-.4-1.5Z"/>
  <path class="st8" d="M108.7,236.3l-1.5,1.5c0,1.7.6,2,1.9.7s1.1-2-.4-2.2Z"/>
  <path class="st8" d="M89.7,189.7c-.2,0-.5.2-.7.7,0,.2.1.5.4.7l2.6-.7c-.7-.7-1.5-1-2.2-.7h0Z"/>
  <path class="st8" d="M80,221.8c-.5.5-.6,1.2-.4,2.2.5.7,1,1,1.5.7l-1.1-3h0Z"/>
  <path class="st8" d="M86.4,236.3c-.2.2-.2.6,0,1.1.5.5.9.7,1.1.7.5-.2.5-.6,0-1.1-.2-.5-.6-.7-1.1-.7Z"/>
  <path class="st8" d="M74.5,206.9c-.5,0-.6.2-.4.7.2.7.5,1,.7.7.5,0,.6-.2.4-.7,0-.7-.2-1-.7-.7Z"/>
  <path class="st11" d="M101.7,181.2c.7-16.6,7.8-33,21.2-49.2l-24.2-22.7c-1,0-3.7,3-8.2,8.9-4,5.2-6.5,8.8-7.5,10.8-8.9,14.9-13.8,32.3-14.5,52.2,7.2-.2,18.3-.2,33.2,0Z"/>
  <path class="st8" d="M83,129v-.4l-.7-.4c-9.2,15.9-14.2,33.5-14.9,52.9.7.7,1.1.7,1.1,0,.7-19.9,5.6-37.3,14.5-52.2h0Z"/>
  <path class="st8" d="M89.4,173l-.4,1.5c2.2,1,3.2.9,3-.4-.2-1.2-1.1-1.6-2.6-1.1Z"/>
  <path class="st8" d="M89.7,123.4l-2.6,4.8c.7,0,1.5-.6,2.2-1.9,1-1.5,1.1-2.5.4-3h0Z"/>
  <path class="st8" d="M93.1,154c-1.2.2-1.1.7.4,1.5s2.2.7,2.2,0c0-1.5-.9-2-2.6-1.5Z"/>
  <path class="st8" d="M100.5,137.2c-1.2,0-1.1.5.4,1.5,1.2,1.2,2.1,1.4,2.6.4-1.5-1.2-2.5-1.9-3-1.9Z"/>
  <path class="st8" d="M98.7,140.6c-1,.2-.9.7.4,1.5,1.2,1,2,1.1,2.2.4.5-1.2-.4-1.9-2.6-1.9h0Z"/>
  <path class="st8" d="M102.8,133.9c-1.5.7-1.4,1.4.4,1.9,1.7.7,2.4.6,1.9-.4-1.2-.5-2-1-2.2-1.5h-.1Z"/>
  <path class="st8" d="M91.6,160.7c-1.2.2-1.2.7,0,1.5,1,1,1.9,1,2.6,0l-2.6-1.5Z"/>
  <path class="st8" d="M89.4,176.7c-1,.7-1,1.4,0,1.9,1.2.2,2.1.1,2.6-.4.2-.5-.1-.9-1.1-1.1l-1.5-.4Z"/>
  <path class="st8" d="M89.4,169.6c-.2.7.1,1.2,1.1,1.5,1.2,0,1.9-.2,1.9-.7l-3-.7h0Z"/>
  <path class="st8" d="M97.2,143.9c-1.2.2-1.2.7,0,1.5,1.2,1,2.1,1,2.6,0-1-1-1.9-1.5-2.6-1.5Z"/>
  <path class="st8" d="M89.7,165.5c0,.7.5,1.2,1.5,1.5,1,.2,1.6.1,1.9-.4l-3.4-1.1Z"/>
  <path class="st8" d="M96.1,147.3l-.7,1.1,2.6.4c.5-1,0-1.5-1.9-1.5h0Z"/>
  <path class="st8" d="M94.2,150.6c-.2.5.1.9,1.1,1.1.5.2,1,.4,1.5.4,0-1-.9-1.5-2.6-1.5h0Z"/>
  <path class="st8" d="M107.3,127.2c-.7.2-.6.7.4,1.5.7.5,1.2.5,1.5,0,.2-.5-.4-1-1.9-1.5Z"/>
  <path class="st8" d="M92,120.4c-.5.2-.7.6-.7,1.1s.1.9.4,1.1c1.2-2,1.4-2.7.4-2.2h0Z"/>
  <path class="st8" d="M77.4,148.4l-.4,2.2c.5-.5.9-1,1.1-1.5.2-.7,0-1-.7-.7Z"/>
  <path class="st8" d="M109.9,124.5c-.5,0-.7.2-.7.7.2.5.7.6,1.5.4.2-.2,0-.6-.7-1.1h0Z"/>
  <path class="st8" d="M71.9,177.8l-.7.7.4.4.7-.4-.4-.7Z"/>
  <path class="st8" d="M98.7,112.6l-.7.7.4.4.7-.4-.4-.7Z"/>
  <path class="st1" d="M282.4,223.7c5.5-13.2,7.9-26.2,7.5-39.1h-21.2c-.5,1-.4,1.7.4,2.2l1.5.7c-1.2.2-2.1.5-2.6.7-1.2.5-.6,1.4,1.9,2.6-1.2.2-2.1,1-2.6,2.2,2-.5,3-.2,3,.7-.2,1.2-1.1,1.5-2.6.7l-1.1,2.6,3,1.1h-3l-.4,2.2c2,.2,2.9.5,2.6.7-.7.5-1.2.9-1.5,1.1l-1.5,1.5c1.5.7,2.2,1.4,2.2,1.9-.2.5-1.2.6-3,.4l-.4,1.9c1.7-.2,2.4.2,1.9,1.5-.2,1-1.1,1-2.6,0l-.4,1.5,2.2,1.5-2.6-.4-.7,2.2c1.7.7,2.5,1.4,2.2,1.9-.5.5-1.6.5-3.4,0-.5,1.5-.5,2,0,1.5,1.7.5,2.4,1.1,1.9,1.9-.7.7-1.7.7-3,0l-.4,1.5c2,1.2,2.5,1.9,1.5,1.9-1.2-.2-2-.4-2.2-.4l-2.2,2.2,3,1.1c-.5.5-1,.7-1.5.7l-1.5-.7c-.2.2-.7.6-1.5,1.1l2.6,2.6-3.7-.4v1.9c1.5,1,2,1.5,1.5,1.5h-1.5l-1.5,1.1c2.2,1.5,2.2,2.2,0,2.2l-1.5,2.2-1.5.7-2.2.4c1.5,2.2,1.5,2.7,0,1.5l-.7,1.1-1.5-.4,14.9,14.9v.7c9.4-9.2,16.9-20.4,22.4-33.5l-.2.4h0Z"/>
  <path class="st8" d="M254,229.2l4.1.4-3-2.6-1.1,2.2Z"/>
  <path class="st8" d="M267.8,194.2c1.7.7,2.6.5,2.6-.7s-1-1.4-3-1.1c-.7,1.7-.6,2.4.4,1.9h0Z"/>
  <path class="st8" d="M264.1,209.1c1.5,1,2.4,1,2.6,0,.5-1.2,0-1.7-1.9-1.5l-.7,1.5h0Z"/>
  <path class="st8" d="M252.6,233.7c-1.2.2-2,.4-2.2.4-.2.2.5.9,2.2,1.9l1.1-.4c.7-.2.4-.9-1.1-1.9Z"/>
  <path class="st8" d="M265.2,205.8c1.7.2,2.7.1,3-.4,0-.5-.9-1.1-2.6-1.9-.5,1-.7,1.6-.7,1.9l.4.4h-.1Z"/>
  <path class="st8" d="M261.5,217.3c-.7.7-1.2,1.4-1.5,1.9,1.5.7,2.5.9,3,.4.5-.7,0-1.5-1.5-2.2h0Z"/>
  <path class="st8" d="M267.5,202c.2-.2.7-.6,1.5-1.1.2-.2-.6-.5-2.6-.7,0,.2,0,.6-.4,1.1-.2.7.2,1,1.5.7Z"/>
  <path class="st8" d="M261.5,215.8c1.5.5,2.5.6,3,.4.5-.5,0-1.1-1.9-1.9-.5,0-.9.5-1.1,1.5Z"/>
  <path class="st8" d="M259.3,222.5c3.2,1,3.4.5.4-1.5-.2,0-.5.1-.7.4s0,.6.4,1.1h-.1Z"/>
  <path class="st8" d="M263,212.1h2.6l-1.9-1.1-.7,1.1h0Z"/>
  <path class="st8" d="M247.3,239.3c-.7-.7-1.1-.7-1.1,0s.4,1.2,1.1,1.5c.2,0,.6.1,1.1.4.2,0,0-.6-1.1-1.9Z"/>
  <path class="st8" d="M267.1,197.9l2.6-.4-2.6-.7v1.1Z"/>
  <path class="st8" d="M256.6,225.9c.2,0,.7.1,1.5.4.5.2,1,0,1.5-.7l-3-.7v1.1h0Z"/>
  <path class="st8" d="M254,232.6c.2,0,.7-.1,1.5-.4.5,0,0-.5-1.5-1.5v1.9Z"/>
  <path class="st8" d="M279,222.9l-5.6,11.9c3.2-4.7,5-7.6,5.2-8.6,1-2.2,1.1-3.4.4-3.4h0Z"/>
  <path class="st8" d="M263.7,247.5c-.2.2-.2.5,0,.7.2.5.5.6.7.4.2-1,0-1.4-.7-1.1Z"/>
  <path class="st1" d="M242.5,243.8l-1.1,2.2c1.5,1.5,1.4,2-.4,1.5l-1.1,1.5c0,.2,0,.6.4,1.1.2.5-.4.4-1.9-.4-.2.5-.6,1-1.1,1.5l.4.7c-.5.7-.9,1-1.1.7l-.4-.4c-1.2.5-1.9.9-1.9,1.1.7,1.7.2,2-1.5.7l-1.1,1.5c.2.5,0,1-1.1,1.5h-2.2c.2,1.2,0,1.9-.7,1.9-.5-.5-.9-.7-1.1-.7l-1.1,1.1c0,.7,0,1.2-.4,1.5-.2.5-.9.2-1.9-.7l-2.6,2.6-2.2.7c-.2.2-.5.4-.7.4s-.5-.4-.7-1.1l-2.2,1.1c.2.2,0,.9-1.1,1.9l-2.2.4c.2.2,0,.6-1.1,1.1-1.2.5-2,.6-2.2.4l-.4-.4c.2,1.2-.2,1.7-1.5,1.5-.5,0-.9-.4-1.1-1.1,0-.7,0-1.1-.4-1.1l-1.9.7c.5,1.2.2,2-.7,2.2-.7.2-1-.4-.7-1.9-.5.2-1.2.9-2.2,1.9,0,1-.2,1.4-.7,1.1-.7-.5-1.1-1.5-1.1-3-1,0-1.9.2-2.6.7l.4,2.2-1.1-.7-2.2,1.9c-1,.2-1.5,0-1.5-.7v-1.1l-2.6-.4v2.6c-.7,1.2-1.4,1.2-1.9,0-.5-1.7-1-2.6-1.5-2.6-.2.7-.5,1.6-.7,2.6,0,.5-.4,0-1.1-1.5l-1.1.4v20.5c28.2.7,53.9-9.8,77.1-31.7-.7-2-6-7.3-15.6-16h-.6Z"/>
  <path class="st8" d="M225.7,259.4l-2.6-1.9c-.2.2-.2.6,0,1.1s.4.9.4,1.1c1,1,1.6,1.4,1.9,1.1.2-.2.4-.7.4-1.5h-.1Z"/>
  <path class="st8" d="M206,268.7c.7-2.2.7-3.4,0-3.4-.7.7-1.2,1.1-1.5,1.1.2,0,.5.4.7,1.1,0,.7.2,1.1.7,1.1h0Z"/>
  <path class="st8" d="M191.4,271.7c.5-1.2.4-2.2-.4-3-.7-1-1.1-.6-1.1,1.1v1.1c0,.7.5,1,1.5.7h0Z"/>
  <path class="st8" d="M198.9,269.5c.2-1.2,0-1.9-.4-1.9h-1.5c0,1.5.4,2.5,1.1,3,.5.2.7-.1.7-1.1h.1Z"/>
  <path class="st8" d="M187.3,269.5c-.5-1-1.1-1.1-1.9-.4.7,2.2,1.4,3.2,1.9,3v-2.6Z"/>
  <path class="st8" d="M240.3,248.6c-2.2-1-3.2-1.2-3-.7.2.2.6.7,1.1,1.5,2.5,1,3.1.7,1.9-.7h0Z"/>
  <path class="st8" d="M202.6,267.2c-.5,0-1,.1-1.5.4-.2,1.5,0,2.1.7,1.9,1-.2,1.2-1,.7-2.2h0Z"/>
  <path class="st8" d="M234.7,253.1l-1.5-1.5c-.5.2-.7.6-.7,1.1.2.5.4.9.4,1.1,2,1.2,2.6,1,1.9-.7h-.1Z"/>
  <path class="st8" d="M214.5,263.9l-2.2-1.1,1.1,2.6c1.2-.7,1.6-1.2,1.1-1.5h0Z"/>
  <path class="st8" d="M237.3,250.8c-1-1-1.7-1.4-2.2-1.1-.2.5,0,1.2,1.1,2.2l.4.4c.2.2.6,0,1.1-.7.2,0,0-.2-.4-.7h0Z"/>
  <path class="st8" d="M183.6,269.5c-.2,0-.7.4-1.5,1.1.7,1.2,1.1,1.6,1.1,1.1.2-1,.4-1.7.4-2.2Z"/>
  <path class="st8" d="M241.7,245.3c-.2.5-.4,1.1-.4,1.9,1.2.2,1.7.2,1.5,0-.2-.5-.6-1.1-1.1-1.9Z"/>
  <path class="st8" d="M236.5,272.1l-2.6,1.9c.2.5.9.5,1.9,0,.7-.5,1.2-1,1.5-1.5l-.7-.4h-.1Z"/>
  <path class="st8" d="M254.8,257.6l-.7.7c-.5.7-.6,1.2-.4,1.5,1.7-1.5,2.1-2.2,1.1-2.2h0Z"/>
  <path class="st8" d="M241,269.5l-2.6,1.9,2.6-.7v-1.1h0Z"/>
  <path class="st8" d="M189.6,287.7l-1.1.7c.7.5,1.4.5,1.9,0,.7-.5.5-.7-.7-.7h-.1Z"/>
  <path class="st3" d="M267.6,267.4c23.7-23.7,35.5-52.2,35.5-85.7s-11.8-62-35.5-85.6c-23.7-23.7-52.2-35.5-85.7-35.5s-62,11.9-85.7,35.5c-23.7,23.7-35.5,52.2-35.5,85.6s11.8,62.1,35.5,85.7c23.7,23.7,52.2,35.5,85.7,35.4,33.5,0,62-11.8,85.7-35.4Z"/>
  <path class="st11" d="M266,98.9c-.5-.5-1-1.1-1.6-1.6-23.4-23.4-51.7-35.1-84.8-35.1s-61.3,11.7-84.8,35.1c-23.4,23.4-35.1,51.7-35.1,84.8s11.5,60.8,34.4,84.1l.7.7c23.4,23.4,51.7,35.1,84.8,35.1s61.4-11.7,84.8-35.1c1.6-1.6,3.2-3.2,4.7-4.9,20.3-22.4,30.5-49.1,30.5-79.9s-11.2-60.1-33.5-83.1M259.4,102.3c.4.4.9.9,1.3,1.3,0,0,0,.1.2.2,1,1,1.9,2,2.9,3.1,18.8,20.8,28.3,45.3,28.6,73.7v4.6c-.7,27.5-10.1,51.4-28.3,71.6-1.2,1.4-2.5,2.7-3.8,4s-.5.6-.8.9c-21.5,21.5-47.4,32.5-77.6,33h-3.8c-30.3-.4-56.3-11.4-77.9-33l-.8-.8c-1.2-1.2-2.4-2.5-3.5-3.8-19.1-21.1-28.7-46.1-28.7-75.1s11-57.6,33-79.6,48.5-33,79.6-33,57.6,11,79.6,33M178.1,72.5c-7.6,0-15,.9-22.1,2.3-20.4,4.2-38.4,14.1-54,29.7-.3.3-.7.7-1,1l24.8,24.8.2-.2c0-.1.3-.3.4-.4,14.3-14.3,31.6-21.8,51.8-22.2v-34.8M122.9,133.1s0-.1.2-.2l-4-3.9.3.2c-.2-.2-.4-.4-.6-.7l-3.4-3.2c-1.3-1.2-1.9-1.9-1.8-1.9l-15.2-15.3c-18.9,20.4-28.5,44.5-28.8,72.5h34.3c.6-18.2,6.9-34,19-47.5M98.1,255h0l23-23c-11.2-13.3-16.9-28.9-17.2-46.8h-34.2c.7,26.9,10.2,50.2,28.4,69.8M258.9,105.4c-.3-.3-.6-.6-1-.9-15.7-15.5-33.7-25.4-54-29.7-7.1-1.5-14.5-2.3-22.1-2.3v34.8c20.2.5,37.4,8,51.8,22.3.2.2.4.4.6.6.5-.5,1-.9,1.5-1.4.8-.8,1.7-1.7,2.5-2.5.3-.3.6-.5.9-.8.5-.6,1.1-1.1,1.6-1.7,0,0,0-.1.2-.2l.5-.6h.2c0-.1,17.4-17.5,17.4-17.5h-.1Z"/>
  <path class="st1" d="M290.2,185.1h-34.3c-.3,17.6-5.9,33-16.8,46.2,0,.2-.3.4-.5.6l9.9,9.8h0l13.2,13.2c0-.1.2-.2.2-.3,18.1-19.6,27.5-42.8,28.2-69.6M262,108.7c-.2-.2-.3-.4-.5-.6l-15.3,15.2h0l-9.6,9.5c0,.1.2.3.4.4,11.9,13.4,18.2,29.2,18.8,47.4h34.4c-.3-27.7-9.7-51.7-28.2-71.9M126.3,237.6c-.6-.6-1.2-1.2-1.8-1.8l-22.9,22.9.2.2c6.5,6.5,13.5,12,20.8,16.5,16.4,10.1,34.9,15.2,55.4,15.5v-31c-16.6-.4-31.3-5.6-44-15.5-2.7-2.1-5.2-4.4-7.8-6.9M235.3,235.7c-.5.6-1.1,1.2-1.7,1.8-2.5,2.5-5.1,4.8-7.8,6.9-12.7,9.9-27.4,15-44,15.4v31.1c20.5-.3,38.9-5.4,55.3-15.5,7.4-4.5,14.3-10,20.8-16.5l.2-.2-22.9-23h.1Z"/>
  <path class="st6" d="M67.1,125.7c-8.9,17.2-13.3,36.2-13.3,57.1s4.9,41.9,14.7,59.8c.6,1.2,1.3,2.3,1.9,3.5,5.4,9.2,12.2,17.8,20.2,25.8s17.5,15.4,27.1,21l2.9-5.3c-9.1-5.3-17.7-11.9-25.8-20-8.7-8.7-15.8-18.1-21.2-28.1-9.2-17-13.8-35.9-13.8-56.7s4.2-37.9,12.5-54.2l-5.3-2.9h0Z"/>
  <path class="st8" d="M288.1,247.5l-5.1-3.4c-5,8.3-11.2,16.1-18.6,23.5-23.4,23.4-51.7,35.1-84.8,35.1s-41.4-5-59-15.1l-2.9,5.3c18.4,10.6,39.1,16,61.9,16,34.8,0,64.5-12.3,89.1-36.9,7.6-7.6,14.1-15.8,19.3-24.4h0Z"/>
  <path class="st9" d="M235.3,76.2l2.9-5.3c-17.6-9.3-37.1-14-58.5-14-34.8,0-64.4,12.3-89,36.9-9.8,9.8-17.7,20.5-23.6,31.9l5.3,2.9c5.6-11,13.1-21.1,22.5-30.6,23.4-23.4,51.7-35.1,84.8-35.1s38.9,4.4,55.7,13.3h-.1Z"/>
  <path class="st4" d="M268.8,93.8c-9.4-9.4-19.6-17.1-30.6-22.9l-2.9,5.3c10.4,5.5,20.1,12.8,29.1,21.8,23.4,23.4,35.1,51.7,35.1,84.8s-5.5,43.1-16.5,61.3l5.1,3.4c11.7-19.1,17.5-40.7,17.5-64.7s-1-19.4-3-28.6c-.4-1.8-.8-3.5-1.3-5.3-5.5-20.6-16.4-39-32.6-55.2h.1Z"/>
  <path class="st5" d="M179.1,133.1h-.2c-7.4,0-13.8,2.8-19.1,8.1-5.4,5.3-8,11.8-8,19.4s2.7,14.1,8,19.5c2.4,2.3,4.9,4.2,7.7,5.5l-6.9,42h36.7l-6.9-42c2.8-1.3,5.3-3.2,7.7-5.5,5.4-5.4,8-11.9,8-19.5s-2.7-14.1-8-19.4c-5.3-5.3-11.7-8-19.1-8.1h0Z"/>
  <path class="st8" d="M77.1,168l-2-.2-.5,6.4h2c0,.1.5-6.1.5-6.1M268.9,238.3l3.5-5.4-1.8-1-3.5,5.2,1.7,1.1M285.3,194.6l.5-6.4h-2c0-.1-.5,6.1-.5,6.1l2,.2M228.8,273.2l-5.9,3.1,1,1.8,6-3.2-1.1-1.7M211.5,281.1l.8,1.9,6.3-2.4-.8-1.9-6.2,2.4M199.9,286.2l6.7-1.6-.5-1.9-6.6,1.6.5,1.9M187.1,286.2l.2,2,6.8-.9-.3-2-6.7.9M153.4,285l6.7,1.6.5-2-6.5-1.6-.6,2M166.1,285.6l-.3,2,6.8,1,.2-2.1-6.7-.9M141.4,280.9l6.4,2.4.8-1.9-6.2-2.3-.9,1.9M131.2,273.5l-1.1,1.8,6,3.2,1-1.8-5.9-3.1M120.9,266.9l-1.3,1.6c1.7,1.2,3.5,2.4,5.5,3.7l1.2-1.6c-1.2-.8-3.1-2-5.5-3.7M111.4,259l-1.3,1.4,5,4.5,1.3-1.5-5-4.4M93.6,242.4l1.2,1.6.3.3,2.6,3,1.5-1.3-2.8-3.2-.3-.3-1-1.2-1.5,1.1M86.6,232.6l3.6,5.4,1.6-1.1-2.6-3.9v-.2l-.8-1.1-1.8.9M81.1,222.1l2.8,5.8,1.9-.9-2.8-5.6-1.9.8M79,216.7l.2.4,1.9-.7-1.8-5.1v-.8c-.1,0-2.1.6-2.1.6l1,3.4.2.4.6,1.9M75.6,205.1h0v.7c.1,0,2-.5,2-.5v-.7c-.1,0-1.1-5.4-1.1-5.4l-1.9.4,1,5.5M75.3,187.8h-2.1l.2,2.8v.5l.4,3.1,2-.2-.3-3.1v-.8c-.1,0-.2-2.2-.2-2.2M76.9,156.7h0c0,.1-1,5.7-1,5.7l1.9.3,1-5.4v-.4c.1,0,.1-.2.1-.2l-1.9-.5v.4c-.1,0-.1.1-.1.1M80.4,144.9l-.2.4-.6,1.9-.2.4-1,3.4,2,.6v-.8c.1,0,1.9-5.1,1.9-5.1l-1.9-.7M82.5,139.9l1.9.8,2.8-5.6-1.9-.9-2.8,5.8M90.5,129.2v-.2l2.6-3.8-1.6-1.2-3.6,5.4,1.8.9.8-1.1M96,118l-1.2,1.6,1.6,1.2,1-1.2.3-.3,2.8-3.3-1.5-1.2-2.6,3.1-.3.3M116.4,102.1l-1.3-1.6-5,4.5,1.3,1.4,5-4.4M229.9,90.5l-6-3.2-1,1.8,5.9,3.2,1.1-1.8M206.6,80.8l-6.7-1.6-.5,1.9,6.6,1.6.5-1.9M212.3,82.5l-.8,1.9,6.2,2.4.8-1.9-6.3-2.4M187.4,77.2l-.2,2.1,6.7.8.3-2-6.8-.9M165.9,77.9l.3,1.9,6.7-.8-.2-2.1-6.8.9M160.1,78.9l-6.7,1.6.6,2,6.5-1.6-.5-2M147.8,82.2l-6.4,2.4.9,1.9,6.2-2.3-.8-1.9M126.3,94.9l-1.2-1.7c-2,1.3-3.9,2.5-5.5,3.7l1.3,1.6c2.4-1.7,4.2-2.9,5.5-3.6M130.1,90.2l1.1,1.8,5.9-3.2-1-1.8-6,3.2M240.4,268.2l-1.2-1.6c-2.4,1.7-4.2,2.9-5.5,3.6l1.2,1.6c2-1.3,3.8-2.5,5.5-3.7M244.9,264.6l5.1-4.5-1.4-1.5-5,4.4,1.4,1.5M263,242.8l-.3.3-2.8,3.3,1.5,1.2,2.6-3,.3-.3,1.2-1.6-1.6-1.1-.9,1.2M277.9,222.5l-1.9-.8-2.7,5.6,1.8.9,2.8-5.8M280.1,217l1.8-5.6-1.9-.5-.2.8-1.8,5.1,1.8.6.2-.4M281.4,205.6l1.9.5v-.4h0v-.3l1.1-5.5-2-.2-1.1,5.8v.3M284.9,168.1l-2,.2.3,3v.9l.2,2.2h2.1c0-.1-.2-2.8-.2-2.8v-.5l-.4-3.1M283,156.5l-1.9.5v.4l.2.3,1,5.4,1.9-.2-1-5.5h0v-.7M281.6,151.2l-1.8-5.6-.2-.4-1.8.6,1.8,5.1v.8l2-.6M266.9,125.4l2.6,3.9v.2l.8,1.2,1.8-.9-.5-.7-.2-.4-2.9-4.3-1.7,1.1M250,105.3l-5.1-4.4-1.4,1.5,5,4.4,1.4-1.4M265.2,119.9l-1.2-1.6-.3-.3-2.6-3-1.5,1.3,2.8,3.2.3.4.9,1.2,1.6-1.1M277.6,140.2l-2.8-5.8-1.9.9,2.8,5.6,1.9-.8M234.9,93.5l-1.2,1.7c1.3.8,3.1,2,5.5,3.6l1.2-1.6c-1.7-1.2-3.5-2.5-5.5-3.8M108,223.9l-.6-.9-1.4.8,2.8,4.2,1.3-.9-2-3.1h0M105.3,219.2l-2.2-4.4-1.5.6,2.2,4.6,1.5-.7M100.1,206.8v-.6l-1.7.4.8,2.7v.3l.6,1.5.2.3,1.5-.5-1.4-4M97.3,202.5l1.5-.4v-.5l-.9-4.3-1.5.2.8,4.4h0v.6M115.9,234.3l-2.2-2.6-.2-.2-.8-.9-1.2.9,1,1.2.2.2,2,2.4,1.2-1M95.6,190.8l.2,2.5,1.6-.2-.2-2.5v-2.4h-1.7c0,.1.1,1.9.1,1.9v.8M245.6,231.7l-.2.2-2.2,2.6,1.2,1,2-2.4.2-.2,1-1.2-1.2-.9-.8.9M253.1,224l-1.4-.8-.6.9h0c0,.1-2.1,3.2-2.1,3.2l1.3.9,2.3-3.4v-.3l.5-.5M255.9,215.1l-2.1,4.4,1.4.7,2.2-4.6-1.5-.6M259.1,206.5v.6l-1.5,4.1,1.5.5v-.3l1.6-4.5-1.5-.4M262.6,197.7l-1.5-.2-.8,4.2v.5l1.5.4v-.3h0c0-.2.8-4.6.8-4.6M261.9,190.9l-.2,2.5,1.6.2.2-2.5v-2.5h-1.5c0-.1,0,1.7,0,1.7v.7M200.9,264.9l-.4-1.5-5.2,1.2.4,1.5,5.2-1.2M210.4,261.6l-.6-1.5-5,1.9.6,1.5,5-1.9M213.9,258.3l.8,1.4,4.8-2.5-.9-1.4-4.7,2.5M227.8,251.9l-1-1.2c-1.9,1.3-3.4,2.3-4.4,2.9l1,1.3c1.6-1,3.1-2,4.4-3M159.3,263.6l-.5,1.5,5.2,1.2.4-1.6-5.2-1.2M185.8,267.7l5.3-.7-.2-1.6-5.3.6.2,1.6M174.1,268l.2-1.6-5.3-.6-.2,1.5,5.4.8M128.5,249.2l1.1-1.2-4-3.5-1.1,1.1,4,3.5M145.1,260l.8-1.4-4.6-2.5-.9,1.4,4.8,2.5M150,260.4l-.7,1.5,5,1.9.6-1.6-4.9-1.9M133.1,250.9l-1,1.2c1.3.9,2.8,1.9,4.4,3l1-1.3c-1-.6-2.4-1.6-4.3-2.9M235.3,245.5l-1.1-1.1-4,3.5,1.1,1.2,4-3.5M96.6,174.9v.7l-.2,1.8h1.6c0,.1,0-1.7,0-1.7v-.6l.2-2.4-1.6-.2-.2,2.5M99.8,164.1v-.5l-1.5-.4v.4h0c0,.1-.8,4.5-.8,4.5l1.5.2.8-4.3M101.1,154.2l-.2.3-.5,1.5v.3l-1,2.6,1.6.5v-.6l1.5-4-1.5-.6M104.1,150.9l2.2-4.4-1.5-.7-2.2,4.5,1.5.6M109.1,141.7l2-3.1-1.3-.9-2.8,4.2,1.4.8.6-.9h0M115.7,130.3l-2,2.4-.2.2-1,1.2,1.2.9.8-.9.2-.2,2.2-2.6-1.2-1M129.6,120.3l-1.1-1.2-4,3.6,1.1,1.1,4-3.5M140.3,111l.9,1.4,4.6-2.5-.8-1.4-4.8,2.6M132.1,116.3l1,1.2c1.9-1.3,3.3-2.3,4.3-2.9l-1-1.3c-1.6,1-3.1,2-4.4,2.9M154.9,106.2l-.6-1.6-5,1.9.7,1.5,4.9-1.8M164.1,102l-5.2,1.2.5,1.6,5.2-1.2-.4-1.6M191.1,101.3l-5.3-.7-.2,1.6,5.3.7.2-1.6M174.3,102l-.2-1.6-5.4.8.2,1.6,5.3-.7M210.4,106.7l-5-1.9-.6,1.5,5,1.9.6-1.5M195.3,103.8l5.2,1.2.4-1.5-5.2-1.2-.4,1.6M226.8,117.8l1-1.2c-1.3-1-2.8-1.9-4.4-2.9l-1,1.3c1,.6,2.5,1.6,4.4,2.9M214.6,108.7l-.8,1.4,4.7,2.5.9-1.3-4.8-2.6M261.4,172.8l.2,2.4v.6l.2,1.8h1.6v-2.7l-.2-2.5-1.6.2M261.6,163.9h0v-.4l-1.5.4v.5l.9,4.2,1.5-.2-.8-4.4h0M253.5,146.7l2.1,4.4,1.5-.6-2.2-4.5-1.4.7M258.8,154.5l-1.5.5,1.4,4.1v.6l1.7-.5-1.5-4.4v-.3M250,138l-1.3.8,2.1,3.1h0c0,.1.6,1.1.6,1.1l1.4-.8-.4-.6v-.3l-2.4-3.4M234.2,124.1l1.1-1.1-4-3.6-1.1,1.2,4,3.5M246.4,133.2l-.2-.2-2-2.4-1.2,1,2.2,2.6.2.2.8.9,1.2-.9-1-1.2h0Z"/>
</svg>