<?xml version="1.0" encoding="UTF-8" standalone="no"?>
<svg
   xmlns:dc="http://purl.org/dc/elements/1.1/"
   xmlns:cc="http://creativecommons.org/ns#"
   xmlns:rdf="http://www.w3.org/1999/02/22-rdf-syntax-ns#"
   xmlns:svg="http://www.w3.org/2000/svg"
   xmlns="http://www.w3.org/2000/svg"
   xmlns:sodipodi="http://sodipodi.sourceforge.net/DTD/sodipodi-0.dtd"
   xmlns:inkscape="http://www.inkscape.org/namespaces/inkscape"
   id="Layer_1"
   version="1.1"
   viewBox="0 0 495.39999 501.00001"
   sodipodi:docname="OPSEC_Logo edit.svg"
   width="495.39999"
   height="501"
   inkscape:version="1.0.2 (1.0.2+r75+1)">
  <g
     id="Layer6_0_MEMBER_1_MEMBER_0_FILL-4"
     transform="translate(-348.2,-125.8)"
     style="stroke:#ffffff;stroke-width:30;stroke-miterlimit:4;stroke-dasharray:none;stroke-opacity:1">
    <path
       class="st8"
       d="m 437.4,514.1 c -6,-2.2 -14.7,-3.4 -26.1,-3.4 -11.4,0 -20.6,1 -26.1,3 -10.7,3.5 -17.1,9.7 -19.4,18.6 -1.7,6.2 -2.6,17.6 -2.6,34.3 0,16.7 0.4,15 1.1,19 1.7,9.4 6.3,16.4 13.8,20.9 6,3.5 15.9,5.2 29.8,5.2 13.9,0 21.4,-1 27.6,-3 6.5,-2.2 11.3,-6 14.5,-11.2 2.5,-3.7 4.1,-7.9 4.8,-12.7 0.7,-4.5 1.1,-12.2 1.1,-23.1 0,-10.9 -0.5,-21.7 -1.5,-25.7 -2.2,-10.4 -7.9,-17.8 -17.1,-22 m -10.4,25.8 c 1,3.2 1.5,10.1 1.5,20.5 0,10.4 -0.6,18.3 -1.9,21.2 -1,3 -2.6,5 -4.8,6 -2.2,0.7 -6.1,1.1 -11.6,1.1 -9.2,0 -14.7,-1.2 -16.4,-3.7 -2,-2.5 -3,-9.9 -3,-22.4 0,-12.5 0.6,-20.4 1.9,-23.1 1.2,-2.2 3.1,-3.7 5.6,-4.5 2.2,-0.7 6.3,-1.1 12.3,-1.1 6,0 8.9,0.4 11.2,1.1 2.5,0.7 4.2,2.4 5.2,4.8 v 0 z"
       id="path29-9"
       style="stroke:#ffffff;stroke-width:30;stroke-miterlimit:4;stroke-dasharray:none;stroke-opacity:1" />
  </g>
  <g
     id="Layer6_0_MEMBER_1_MEMBER_1_FILL-9"
     transform="translate(-348.2,-125.8)"
     style="stroke:#ffffff;stroke-width:30;stroke-miterlimit:4;stroke-dasharray:none;stroke-opacity:1">
    <path
       class="st8"
       d="m 549.5,527.9 c -1.7,-5.2 -5,-9.2 -9.7,-11.9 -3.2,-1.7 -6.2,-3 -8.9,-3.7 -2.7,-0.5 -7,-0.7 -12.7,-0.7 h -49.9 v 99.5 h 26.8 v -25.3 l 35.4,-0.7 c 7,-1 12,-3.6 15.3,-7.8 4.5,-5.2 6.7,-14.4 6.7,-27.6 0,-13.2 -1,-16.6 -3,-21.6 m -54.4,5.4 h 16.8 c 3.5,0 6.3,0.4 8.6,1.1 3,1.2 4.5,5.7 4.5,13.4 0,7.7 -0.6,10.6 -1.9,12.3 -1.5,1.5 -5.2,2.2 -11.2,2.2 h -16.8 v -29.1 0 z"
       id="path32-4"
       style="stroke:#ffffff;stroke-width:30;stroke-miterlimit:4;stroke-dasharray:none;stroke-opacity:1" />
  </g>
  <g
     id="Layer6_0_MEMBER_1_MEMBER_2_FILL-5"
     transform="translate(-348.2,-125.8)"
     style="stroke:#ffffff;stroke-width:30;stroke-miterlimit:4;stroke-dasharray:none;stroke-opacity:1">
    <path
       class="st8"
       d="m 603.5,510.8 c -9.7,0 -17,0.5 -22,1.5 -4.7,0.7 -8.8,2.4 -12.3,4.8 -5.5,4 -8.2,11.8 -8.2,23.5 0,11.7 1.2,15.2 3.7,19.4 2.5,4.2 6.8,7.2 13,8.9 4.2,1 14,2 29.4,3 5.2,0.2 8.7,0.9 10.4,1.9 1.5,1.2 2.2,3.6 2.2,7.1 0,3.5 -1,6.3 -3,7.8 -1,1 -2.2,1.6 -3.7,1.9 -1,0.2 -3.7,0.4 -8.2,0.4 -4.5,0 -10.1,0 -11.6,-0.4 -1.7,0 -3.1,-0.5 -4.1,-1.5 -2,-1.2 -3,-4 -3,-8.2 V 579 h -25.7 c 0,10.2 1.4,17.6 4.1,22.4 2.7,4 6.8,6.7 12.3,8.2 6,1.5 15.3,2.2 27.9,2.2 12.6,0 17,-0.5 22,-1.5 4.7,-1.2 8.7,-3.2 11.9,-6 4.7,-4 7.1,-12.2 7.1,-24.6 0,-12.4 -1,-14.2 -3,-17.9 -2.2,-3.7 -6.1,-6.5 -11.6,-8.2 -4,-1.2 -14.2,-2.5 -30.6,-3.7 -6.2,-0.5 -9.8,-1.2 -10.8,-2.2 -1.5,-1 -2.2,-3.2 -2.2,-6.7 0,-3.5 1,-6.6 3,-7.8 2,-1.2 6.3,-1.9 13,-1.9 6.7,0 9.4,0.6 11.2,1.9 1.7,1.2 2.6,3.9 2.6,7.8 v 1.5 l 25.3,0.4 0.4,-4.5 c 0,-8.2 -1.9,-14.5 -5.6,-19 -2.5,-3.2 -6.2,-5.5 -11.2,-6.7 -5,-1.2 -12.7,-1.9 -23.1,-1.9 z"
       id="path35-9"
       style="stroke:#ffffff;stroke-width:30;stroke-miterlimit:4;stroke-dasharray:none;stroke-opacity:1" />
  </g>
  <g
     id="Layer6_0_MEMBER_1_MEMBER_3_FILL-3"
     transform="translate(-348.2,-125.8)"
     style="stroke:#ffffff;stroke-width:30;stroke-miterlimit:4;stroke-dasharray:none;stroke-opacity:1">
    <path
       class="st8"
       d="m 731,533.5 v -22 H 659.1 V 611 h 72.7 v -22 h -46.2 v -19.4 h 42.5 v -18.3 h -42.5 v -17.9 h 45.5 v 0 z"
       id="path38-5"
       style="stroke:#ffffff;stroke-width:30;stroke-miterlimit:4;stroke-dasharray:none;stroke-opacity:1" />
  </g>
  <g
     id="Layer6_0_MEMBER_1_MEMBER_4_FILL-7"
     transform="translate(-348.2,-125.8)"
     style="stroke:#ffffff;stroke-width:30;stroke-miterlimit:4;stroke-dasharray:none;stroke-opacity:1">
    <path
       class="st8"
       d="m 789.8,510.8 c -11.9,0 -20.5,0.6 -25.7,1.9 -5,1.2 -9.6,3.9 -13.8,7.8 -6.2,6.2 -9.3,16.9 -9.3,32 0,15.1 0.6,29.7 1.9,35.4 1.7,9.4 7.1,16.3 16,20.5 4.5,2.2 14,3.4 28.7,3.4 14.7,0 14.2,-0.2 18.6,-0.7 5.5,-1.2 10.1,-3.4 13.8,-6.3 3.5,-3 5.8,-6.3 7.1,-10.1 1,-3.5 1.5,-9.6 1.5,-18.3 v -3 h -26.1 v 3 c 0,5 -1.1,8.3 -3.4,10.1 -2.2,1.7 -6.6,2.6 -13,2.6 -6.4,0 -11.9,-1.2 -14.2,-3.7 -2.2,-2.2 -3.4,-7.3 -3.4,-15.3 0,-16.6 0.5,-26.5 1.5,-29.4 1.5,-4.5 6.5,-6.7 14.9,-6.7 8.4,0 14,1.4 15.3,4.1 1,1.7 1.5,4.8 1.5,9.3 h 26.5 c 0,-5.2 -0.2,-10.1 -0.7,-14.5 -1,-8.9 -5.1,-15.2 -12.3,-18.6 -5.2,-2.2 -13.7,-3.4 -25.3,-3.4 v 0 z"
       id="path41-0"
       style="stroke:#ffffff;stroke-width:30;stroke-miterlimit:4;stroke-dasharray:none;stroke-opacity:1" />
  </g>
  <g
     id="Layer6_0_MEMBER_2_MEMBER_1_FILL-4"
     transform="translate(-348.2,-125.8)"
     style="stroke:#ffffff;stroke-width:30;stroke-miterlimit:4;stroke-dasharray:none;stroke-opacity:1">
    <path
       class="st8"
       d="M 760.8,346.1 V 140.8 H 430.3 v 205.3 c 0,10.2 4.5,17.5 13.4,22 l 142,71.2 c 6.7,3.2 13.2,3.2 19.4,0 l 142,-71.2 c 9.2,-4.5 13.8,-11.8 13.8,-22 z"
       id="path44-3"
       style="stroke:#ffffff;stroke-width:30;stroke-miterlimit:4;stroke-dasharray:none;stroke-opacity:1" />
  </g>
  <g
     id="Layer0_0_FILL"
     transform="translate(-348.2,-125.8)">
    <path
       class="st8"
       d="m 492.9,269.9 -2,-0.2 -0.5,6.4 h 2 c 0,0.1 0.5,-6.1 0.5,-6.1 m 191.8,70.2 3.5,-5.4 -1.8,-1 -3.5,5.2 1.7,1.1 m 16.5,-43.6 0.5,-6.4 h -2 c 0,-0.1 -0.5,6.1 -0.5,6.1 l 2,0.2 m -56.5,78.7 -5.9,3.1 1,1.8 6,-3.2 -1.1,-1.7 m -17.3,7.9 0.8,1.9 6.3,-2.4 -0.8,-1.9 -6.2,2.4 m -11.7,5.1 6.7,-1.6 -0.5,-1.9 -6.6,1.6 0.5,1.9 m -12.9,0 0.2,2 6.8,-0.9 -0.3,-2 -6.7,0.9 m -33.7,-1.2 6.7,1.6 0.5,-2 -6.5,-1.6 -0.6,2 m 12.6,0.6 -0.3,2 6.8,1 0.2,-2.1 -6.7,-0.9 m -24.7,-4.7 6.4,2.4 0.8,-1.9 -6.2,-2.3 -0.9,1.9 m -10.3,-7.5 -1.1,1.8 6,3.2 1,-1.8 -5.9,-3.1 m -10.3,-6.7 -1.3,1.6 c 1.7,1.2 3.5,2.4 5.5,3.7 l 1.2,-1.6 c -1.2,-0.8 -3.1,-2 -5.5,-3.7 m -9.4,-7.9 -1.3,1.4 5,4.5 1.3,-1.5 -5,-4.4 m -17.8,-16.6 1.2,1.6 0.3,0.3 2.6,3 1.5,-1.3 -2.8,-3.2 -0.3,-0.3 -1,-1.2 -1.5,1.1 m -7,-9.8 3.6,5.4 1.6,-1.1 -2.6,-3.9 v -0.2 l -0.8,-1.1 -1.8,0.9 m -5.5,-10.5 2.8,5.8 1.9,-0.9 -2.8,-5.6 -1.9,0.8 m -2.1,-5.5 0.2,0.4 1.9,-0.7 -1.8,-5.1 v -0.8 c -0.1,0 -2.1,0.6 -2.1,0.6 l 1,3.4 0.2,0.4 0.6,1.9 M 491.4,307 v 0 0.7 c 0.1,0 2,-0.5 2,-0.5 v -0.7 c -0.1,0 -1.1,-5.4 -1.1,-5.4 l -1.9,0.4 1,5.5 m -0.3,-17.3 H 489 l 0.2,2.8 v 0.5 l 0.4,3.1 2,-0.2 -0.3,-3.1 V 292 c -0.1,0 -0.2,-2.2 -0.2,-2.2 m 1.6,-31.2 v 0 c 0,0.1 -1,5.7 -1,5.7 l 1.9,0.3 1,-5.4 v -0.4 c 0.1,0 0.1,-0.2 0.1,-0.2 l -1.9,-0.5 v 0.4 c -0.1,0 -0.1,0.1 -0.1,0.1 m 3.5,-11.8 -0.2,0.4 -0.6,1.9 -0.2,0.4 -1,3.4 2,0.6 v -0.8 c 0.1,0 1.9,-5.1 1.9,-5.1 l -1.9,-0.7 m 2.1,-5.1 1.9,0.8 2.8,-5.6 -1.9,-0.9 -2.8,5.8 m 8,-10.8 v -0.2 l 2.6,-3.8 -1.6,-1.2 -3.6,5.4 1.8,0.9 0.8,-1.1 m 5.5,-11.2 -1.2,1.6 1.6,1.2 1,-1.2 0.3,-0.3 2.8,-3.3 -1.5,-1.2 -2.6,3.1 -0.3,0.3 m 20.3,-16.1 -1.3,-1.6 -5,4.5 1.3,1.4 5,-4.4 m 113.5,-11.5 -6,-3.2 -1,1.8 5.9,3.2 1.1,-1.8 m -23.3,-9.7 -6.7,-1.6 -0.5,1.9 6.6,1.6 0.5,-1.9 m 5.8,1.7 -0.8,1.9 6.2,2.4 0.8,-1.9 -6.3,-2.4 m -24.8,-5.3 -0.2,2.1 6.7,0.8 0.3,-2 -6.8,-0.9 m -21.5,0.7 0.3,1.9 6.7,-0.8 -0.2,-2.1 -6.8,0.9 m -5.8,1.1 -6.7,1.6 0.6,2 6.5,-1.6 -0.5,-2 m -12.2,3.3 -6.4,2.4 0.9,1.9 6.2,-2.3 -0.8,-1.9 m -21.4,12.6 -1.2,-1.7 c -2,1.3 -3.9,2.5 -5.5,3.7 l 1.3,1.6 c 2.4,-1.7 4.2,-2.9 5.5,-3.6 m 3.7,-4.7 1.1,1.8 5.9,-3.2 -1,-1.8 -6,3.2 m 110.3,178 -1.2,-1.6 c -2.4,1.7 -4.2,2.9 -5.5,3.6 l 1.2,1.6 c 2,-1.3 3.8,-2.5 5.5,-3.7 m 4.5,-3.5 5.1,-4.5 -1.4,-1.5 -5,4.4 1.4,1.5 m 18,-21.7 -0.3,0.3 -2.8,3.3 1.5,1.2 2.6,-3 0.3,-0.3 1.2,-1.6 -1.6,-1.1 -0.9,1.2 m 14.9,-20.3 -1.9,-0.8 -2.7,5.6 1.8,0.9 2.8,-5.8 m 2.2,-5.4 1.8,-5.6 -1.9,-0.5 -0.2,0.8 -1.8,5.1 1.8,0.6 0.2,-0.4 m 1.4,-11.4 1.9,0.5 v -0.4 0 -0.3 l 1.1,-5.5 -2,-0.2 -1.1,5.8 v 0.3 m 3.6,-37.7 -2,0.2 0.3,3 v 0.9 l 0.2,2.2 h 2.1 c 0,-0.1 -0.2,-2.8 -0.2,-2.8 V 273 l -0.4,-3.1 m -1.9,-11.5 -1.9,0.5 v 0.4 l 0.2,0.3 1,5.4 1.9,-0.2 -1,-5.5 v 0 -0.7 m -1.6,-5.5 -1.8,-5.6 -0.2,-0.4 -1.8,0.6 1.8,5.1 v 0.8 l 2,-0.6 m -14.7,-25.7 2.6,3.9 v 0.2 l 0.8,1.2 1.8,-0.9 -0.5,-0.7 -0.2,-0.4 -2.9,-4.3 -1.7,1.1 m -16.8,-20.2 -5.1,-4.4 -1.4,1.5 5,4.4 1.4,-1.4 m 15.3,14.5 -1.2,-1.6 -0.3,-0.3 -2.6,-3 -1.5,1.3 2.8,3.2 0.3,0.4 0.9,1.2 1.6,-1.1 m 12.4,20.2 -2.8,-5.8 -1.9,0.9 2.8,5.6 1.9,-0.8 m -42.7,-46.6 -1.2,1.7 c 1.3,0.8 3.1,2 5.5,3.6 l 1.2,-1.6 c -1.7,-1.2 -3.5,-2.5 -5.5,-3.8 m -126.9,130.5 -0.6,-0.9 -1.4,0.8 2.8,4.2 1.3,-0.9 -2,-3.1 v 0 m -2.8,-4.8 -2.2,-4.4 -1.5,0.6 2.2,4.6 1.5,-0.7 m -5.2,-12.5 v -0.6 l -1.7,0.4 0.8,2.7 v 0.3 c 0,0 0.6,1.5 0.6,1.5 l 0.2,0.3 1.5,-0.5 -1.4,-4 m -2.8,-4.4 1.5,-0.4 v -0.5 l -0.9,-4.3 -1.5,0.2 0.8,4.4 v 0 0.6 m 18.7,31.8 -2.2,-2.6 -0.2,-0.2 -0.8,-0.9 -1.2,0.9 1,1.2 0.2,0.2 2,2.4 1.2,-1 m -20.3,-43.5 0.2,2.5 1.6,-0.2 -0.2,-2.5 v -2.4 h -1.7 c 0,0.1 0.1,1.9 0.1,1.9 v 0.8 m 150,40.8 -0.2,0.2 -2.2,2.6 1.2,1 2,-2.4 0.2,-0.2 1,-1.2 -1.2,-0.9 -0.8,0.9 m 7.5,-7.7 -1.4,-0.8 -0.6,0.9 v 0 c 0,0.1 -2.1,3.2 -2.1,3.2 l 1.3,0.9 2.3,-3.4 v -0.3 c 0,0 0.5,-0.5 0.5,-0.5 m 2.8,-8.9 -2.1,4.4 1.4,0.7 2.2,-4.6 -1.5,-0.6 m 3.2,-8.5 v 0.6 c 0,0 -1.5,4.1 -1.5,4.1 l 1.5,0.5 v -0.3 c 0,0 1.6,-4.5 1.6,-4.5 l -1.5,-0.4 m 3.4,-8.8 -1.5,-0.2 -0.8,4.2 v 0.3 c 0,0 0,0.2 0,0.2 l 1.5,0.4 v -0.3 c 0,0 0,-0.1 0,-0.1 v 0 c 0,-0.1 0.8,-4.5 0.8,-4.5 m -0.7,-6.8 -0.2,2.5 1.6,0.2 0.2,-2.5 v -2.5 c 0,0 -1.5,0 -1.5,0 0,-0.1 0,1.7 0,1.7 v 0.7 m -61.1,73.9 -0.4,-1.5 -5.2,1.2 0.4,1.5 5.2,-1.2 m 9.5,-3.3 -0.6,-1.5 -5,1.9 0.6,1.5 5,-1.9 m 3.5,-3.3 0.8,1.4 4.8,-2.5 -0.9,-1.4 -4.7,2.5 m 13.9,-6.4 -1,-1.2 c -1.9,1.3 -3.4,2.3 -4.4,2.9 l 1,1.3 c 1.6,-1 3.1,-2 4.4,-3 m -68.5,11.7 -0.5,1.5 5.2,1.2 0.4,-1.6 -5.2,-1.2 m 26.6,4.2 5.3,-0.7 -0.2,-1.6 -5.3,0.6 0.2,1.6 m -11.7,0.4 0.2,-1.6 -5.3,-0.6 -0.2,1.5 5.4,0.8 m -45.7,-18.9 1.1,-1.2 -4,-3.5 -1.1,1.1 4,3.5 m 16.6,10.9 0.8,-1.4 -4.6,-2.5 -0.9,1.4 4.8,2.5 m 4.8,0.4 -0.7,1.5 5,1.9 0.6,-1.6 -4.9,-1.9 m -16.9,-9.4 -1,1.2 c 1.3,0.9 2.8,1.9 4.4,3 l 1,-1.3 c -1,-0.6 -2.4,-1.6 -4.3,-2.9 m 102.1,-5.4 -1.1,-1.1 -4,3.5 1.1,1.2 4,-3.5 M 512.4,276.8 v 0.7 l -0.2,1.8 h 1.6 c 0,0.1 0,-1.7 0,-1.7 V 277 l 0.2,-2.4 -1.6,-0.2 -0.2,2.5 m 3.4,-10.9 v -0.5 l -1.5,-0.4 v 0.4 0 c 0,0.1 -0.8,4.5 -0.8,4.5 l 1.5,0.2 0.8,-4.3 m 1.3,-9.8 -0.2,0.3 -0.5,1.5 v 0.3 c 0,0 -1,2.6 -1,2.6 l 1.6,0.5 v -0.6 l 1.5,-4 -1.5,-0.6 m 3.1,-3.3 2.2,-4.4 -1.5,-0.7 -2.2,4.5 1.5,0.6 m 5,-9.2 2,-3.1 -1.3,-0.9 -2.8,4.2 1.4,0.8 0.6,-0.9 v 0 m 6.7,-11.5 -2,2.4 -0.2,0.2 -1,1.2 1.2,0.9 0.8,-0.9 0.2,-0.2 2.2,-2.6 -1.2,-1 m 13.9,-10 -1.1,-1.2 -4,3.6 1.1,1.1 4,-3.5 m 10.7,-9.3 0.9,1.4 4.6,-2.5 -0.8,-1.4 -4.8,2.6 m -8.1,5.2 1,1.2 c 1.9,-1.3 3.3,-2.3 4.3,-2.9 l -1,-1.3 c -1.6,1 -3.1,2 -4.4,2.9 m 22.9,-10 -0.6,-1.6 -5,1.9 0.7,1.5 4.9,-1.8 m 9.2,-4.2 -5.2,1.2 0.5,1.6 5.2,-1.2 -0.4,-1.6 m 26.9,-0.7 -5.3,-0.7 -0.2,1.6 5.3,0.7 0.2,-1.6 m -16.8,0.7 -0.2,-1.6 -5.4,0.8 0.2,1.6 5.3,-0.7 m 36.2,4.6 -5,-1.9 -0.6,1.5 5,1.9 0.6,-1.5 m -15.1,-2.9 5.2,1.2 0.4,-1.5 -5.2,-1.2 -0.4,1.6 m 31.5,13.9 1,-1.2 c -1.3,-1 -2.8,-1.9 -4.4,-2.9 l -1,1.3 c 1,0.6 2.5,1.6 4.4,2.9 m -12.2,-9.2 -0.8,1.4 4.7,2.5 0.9,-1.3 -4.8,-2.6 m 46.8,64.1 0.2,2.4 v 0.6 l 0.2,1.8 h 1.6 v -2.7 l -0.2,-2.5 -1.6,0.2 m 0,-8.7 v 0 c 0,-0.1 0,-0.4 0,-0.4 l -1.5,0.4 v 0.5 c 0,0 0.9,4.2 0.9,4.2 l 1.5,-0.2 -0.8,-4.4 v 0 m -8.2,-17.3 2.1,4.4 1.5,-0.6 -2.2,-4.5 -1.4,0.7 m 5.3,7.8 -1.5,0.5 1.4,4.1 v 0.6 c 0,0 1.7,-0.5 1.7,-0.5 l -1.5,-4.4 v -0.3 m -8.9,-16.5 -1.3,0.8 2.1,3.1 v 0 c 0,0.1 0.6,1.1 0.6,1.1 l 1.4,-0.8 -0.4,-0.6 v -0.3 c 0,0 -2.4,-3.4 -2.4,-3.4 M 650,226 l 1.1,-1.1 -4,-3.6 -1.1,1.2 4,3.5 m 12.2,9.1 -0.2,-0.2 -2,-2.4 -1.2,1 2.2,2.6 0.2,0.2 0.8,0.9 1.2,-0.9 z"
       id="path571" />
  </g>
  <metadata
     id="metadata578">
    <rdf:RDF>
      <cc:Work
         rdf:about="">
        <dc:format>image/svg+xml</dc:format>
        <dc:type
           rdf:resource="http://purl.org/dc/dcmitype/StillImage" />
        <dc:title></dc:title>
      </cc:Work>
    </rdf:RDF>
  </metadata>
  <sodipodi:namedview
     pagecolor="#bababa"
     bordercolor="#666666"
     borderopacity="1"
     objecttolerance="10"
     gridtolerance="10"
     guidetolerance="10"
     inkscape:pageopacity="0"
     inkscape:pageshadow="2"
     inkscape:window-width="1239"
     inkscape:window-height="969"
     id="namedview576"
     showgrid="false"
     fit-margin-top="0"
     fit-margin-left="0"
     fit-margin-right="0"
     fit-margin-bottom="0"
     inkscape:zoom="0.8671875"
     inkscape:cx="226.11088"
     inkscape:cy="292.60103"
     inkscape:window-x="41"
     inkscape:window-y="27"
     inkscape:window-maximized="1"
     inkscape:current-layer="Layer_1"
     inkscape:document-rotation="0" />
  <!-- Generator: Adobe Illustrator 29.3.1, SVG Export Plug-In . SVG Version: 2.1.0 Build 151)  -->
  <defs
     id="defs25">
    <style
       id="style2">
      .st0 {
        fill: #575047;
      }

      .st1 {
        fill: #d5c9b7;
      }

      .st2 {
        fill: url(#linear-gradient1);
      }

      .st3 {
        fill: #19893a;
      }

      .st4 {
        fill: #040506;
      }

      .st5 {
        fill: #f81c23;
      }

      .st6 {
        fill: #968a7b;
      }

      .st7 {
        fill: #fff;
        filter: url(#drop-shadow-1);
      }

      .st8 {
        fill: #0f4a7c;
      }

      .st9 {
        fill: #ffd927;
      }

      .st10 {
        fill: url(#linear-gradient);
      }

      .st11 {
        fill: #fffadb;
      }
    </style>
    <filter
       id="drop-shadow-1"
       x="409"
       y="121"
       width="379"
       height="349"
       filterUnits="userSpaceOnUse">
      <feOffset
         dx="3"
         dy="3"
         id="feOffset4" />
      <feGaussianBlur
         result="blur"
         stdDeviation="3"
         id="feGaussianBlur6" />
      <feFlood
         flood-color="#000"
         flood-opacity=".8"
         id="feFlood8" />
      <feComposite
         in2="blur"
         operator="in"
         id="feComposite10"
         result="result1" />
      <feComposite
         in="SourceGraphic"
         in2="result1"
         id="feComposite12" />
    </filter>
    <linearGradient
       id="linear-gradient"
       x1="-277.10001"
       y1="-91.800003"
       x2="-267.79999"
       y2="-107.7"
       gradientTransform="matrix(7.5,0,0,7.5,2639.3,998.7)"
       gradientUnits="userSpaceOnUse">
      <stop
         offset="0"
         stop-color="#ffd927"
         id="stop15" />
      <stop
         offset="1"
         stop-color="#0f4a7c"
         id="stop17" />
    </linearGradient>
    <linearGradient
       id="linear-gradient1"
       x1="817.09998"
       y1="226.10001"
       x2="747.70001"
       y2="266.20001"
       gradientTransform="matrix(0.98994949,0.98994949,-0.98994949,0.98994949,65,-735)"
       gradientUnits="userSpaceOnUse">
      <stop
         offset="0"
         stop-color="#0f4a7c"
         id="stop20" />
      <stop
         offset="1"
         stop-color="#ffd927"
         id="stop22" />
    </linearGradient>
  </defs>
  <g
     id="Layer6_0_MEMBER_1_MEMBER_0_FILL"
     transform="translate(-348.2,-125.8)"
     style="stroke:none;stroke-width:30;stroke-miterlimit:4;stroke-dasharray:none;stroke-opacity:1">
    <path
       class="st8"
       d="m 437.4,514.1 c -6,-2.2 -14.7,-3.4 -26.1,-3.4 -11.4,0 -20.6,1 -26.1,3 -10.7,3.5 -17.1,9.7 -19.4,18.6 -1.7,6.2 -2.6,17.6 -2.6,34.3 0,16.7 0.4,15 1.1,19 1.7,9.4 6.3,16.4 13.8,20.9 6,3.5 15.9,5.2 29.8,5.2 13.9,0 21.4,-1 27.6,-3 6.5,-2.2 11.3,-6 14.5,-11.2 2.5,-3.7 4.1,-7.9 4.8,-12.7 0.7,-4.5 1.1,-12.2 1.1,-23.1 0,-10.9 -0.5,-21.7 -1.5,-25.7 -2.2,-10.4 -7.9,-17.8 -17.1,-22 m -10.4,25.8 c 1,3.2 1.5,10.1 1.5,20.5 0,10.4 -0.6,18.3 -1.9,21.2 -1,3 -2.6,5 -4.8,6 -2.2,0.7 -6.1,1.1 -11.6,1.1 -9.2,0 -14.7,-1.2 -16.4,-3.7 -2,-2.5 -3,-9.9 -3,-22.4 0,-12.5 0.6,-20.4 1.9,-23.1 1.2,-2.2 3.1,-3.7 5.6,-4.5 2.2,-0.7 6.3,-1.1 12.3,-1.1 6,0 8.9,0.4 11.2,1.1 2.5,0.7 4.2,2.4 5.2,4.8 v 0 z"
       id="path29"
       style="stroke:none;stroke-width:30;stroke-miterlimit:4;stroke-dasharray:none;stroke-opacity:1" />
  </g>
  <g
     id="Layer6_0_MEMBER_1_MEMBER_1_FILL"
     transform="translate(-348.2,-125.8)"
     style="stroke:none;stroke-width:30;stroke-miterlimit:4;stroke-dasharray:none;stroke-opacity:1">
    <path
       class="st8"
       d="m 549.5,527.9 c -1.7,-5.2 -5,-9.2 -9.7,-11.9 -3.2,-1.7 -6.2,-3 -8.9,-3.7 -2.7,-0.5 -7,-0.7 -12.7,-0.7 h -49.9 v 99.5 h 26.8 v -25.3 l 35.4,-0.7 c 7,-1 12,-3.6 15.3,-7.8 4.5,-5.2 6.7,-14.4 6.7,-27.6 0,-13.2 -1,-16.6 -3,-21.6 m -54.4,5.4 h 16.8 c 3.5,0 6.3,0.4 8.6,1.1 3,1.2 4.5,5.7 4.5,13.4 0,7.7 -0.6,10.6 -1.9,12.3 -1.5,1.5 -5.2,2.2 -11.2,2.2 h -16.8 v -29.1 0 z"
       id="path32"
       style="stroke:none;stroke-width:30;stroke-miterlimit:4;stroke-dasharray:none;stroke-opacity:1" />
  </g>
  <g
     id="Layer6_0_MEMBER_1_MEMBER_2_FILL"
     transform="translate(-348.2,-125.8)"
     style="stroke:none;stroke-width:30;stroke-miterlimit:4;stroke-dasharray:none;stroke-opacity:1">
    <path
       class="st8"
       d="m 603.5,510.8 c -9.7,0 -17,0.5 -22,1.5 -4.7,0.7 -8.8,2.4 -12.3,4.8 -5.5,4 -8.2,11.8 -8.2,23.5 0,11.7 1.2,15.2 3.7,19.4 2.5,4.2 6.8,7.2 13,8.9 4.2,1 14,2 29.4,3 5.2,0.2 8.7,0.9 10.4,1.9 1.5,1.2 2.2,3.6 2.2,7.1 0,3.5 -1,6.3 -3,7.8 -1,1 -2.2,1.6 -3.7,1.9 -1,0.2 -3.7,0.4 -8.2,0.4 -4.5,0 -10.1,0 -11.6,-0.4 -1.7,0 -3.1,-0.5 -4.1,-1.5 -2,-1.2 -3,-4 -3,-8.2 V 579 h -25.7 c 0,10.2 1.4,17.6 4.1,22.4 2.7,4 6.8,6.7 12.3,8.2 6,1.5 15.3,2.2 27.9,2.2 12.6,0 17,-0.5 22,-1.5 4.7,-1.2 8.7,-3.2 11.9,-6 4.7,-4 7.1,-12.2 7.1,-24.6 0,-12.4 -1,-14.2 -3,-17.9 -2.2,-3.7 -6.1,-6.5 -11.6,-8.2 -4,-1.2 -14.2,-2.5 -30.6,-3.7 -6.2,-0.5 -9.8,-1.2 -10.8,-2.2 -1.5,-1 -2.2,-3.2 -2.2,-6.7 0,-3.5 1,-6.6 3,-7.8 2,-1.2 6.3,-1.9 13,-1.9 6.7,0 9.4,0.6 11.2,1.9 1.7,1.2 2.6,3.9 2.6,7.8 v 1.5 l 25.3,0.4 0.4,-4.5 c 0,-8.2 -1.9,-14.5 -5.6,-19 -2.5,-3.2 -6.2,-5.5 -11.2,-6.7 -5,-1.2 -12.7,-1.9 -23.1,-1.9 z"
       id="path35"
       style="stroke:none;stroke-width:30;stroke-miterlimit:4;stroke-dasharray:none;stroke-opacity:1" />
  </g>
  <g
     id="Layer6_0_MEMBER_1_MEMBER_3_FILL"
     transform="translate(-348.2,-125.8)"
     style="stroke:none;stroke-width:30;stroke-miterlimit:4;stroke-dasharray:none;stroke-opacity:1">
    <path
       class="st8"
       d="m 731,533.5 v -22 H 659.1 V 611 h 72.7 v -22 h -46.2 v -19.4 h 42.5 v -18.3 h -42.5 v -17.9 h 45.5 v 0 z"
       id="path38"
       style="stroke:none;stroke-width:30;stroke-miterlimit:4;stroke-dasharray:none;stroke-opacity:1" />
  </g>
  <g
     id="Layer6_0_MEMBER_1_MEMBER_4_FILL"
     transform="translate(-348.2,-125.8)"
     style="stroke:none;stroke-width:30;stroke-miterlimit:4;stroke-dasharray:none;stroke-opacity:1">
    <path
       class="st8"
       d="m 789.8,510.8 c -11.9,0 -20.5,0.6 -25.7,1.9 -5,1.2 -9.6,3.9 -13.8,7.8 -6.2,6.2 -9.3,16.9 -9.3,32 0,15.1 0.6,29.7 1.9,35.4 1.7,9.4 7.1,16.3 16,20.5 4.5,2.2 14,3.4 28.7,3.4 14.7,0 14.2,-0.2 18.6,-0.7 5.5,-1.2 10.1,-3.4 13.8,-6.3 3.5,-3 5.8,-6.3 7.1,-10.1 1,-3.5 1.5,-9.6 1.5,-18.3 v -3 h -26.1 v 3 c 0,5 -1.1,8.3 -3.4,10.1 -2.2,1.7 -6.6,2.6 -13,2.6 -6.4,0 -11.9,-1.2 -14.2,-3.7 -2.2,-2.2 -3.4,-7.3 -3.4,-15.3 0,-16.6 0.5,-26.5 1.5,-29.4 1.5,-4.5 6.5,-6.7 14.9,-6.7 8.4,0 14,1.4 15.3,4.1 1,1.7 1.5,4.8 1.5,9.3 h 26.5 c 0,-5.2 -0.2,-10.1 -0.7,-14.5 -1,-8.9 -5.1,-15.2 -12.3,-18.6 -5.2,-2.2 -13.7,-3.4 -25.3,-3.4 v 0 z"
       id="path41"
       style="stroke:none;stroke-width:30;stroke-miterlimit:4;stroke-dasharray:none;stroke-opacity:1" />
  </g>
  <g
     id="Layer6_0_MEMBER_2_MEMBER_1_FILL"
     transform="translate(-348.2,-125.8)"
     style="stroke:none;stroke-width:10;stroke-miterlimit:4;stroke-dasharray:none;stroke-opacity:1">
    <path
       class="st8"
       d="M 760.8,346.1 V 140.8 H 430.3 v 205.3 c 0,10.2 4.5,17.5 13.4,22 l 142,71.2 c 6.7,3.2 13.2,3.2 19.4,0 l 142,-71.2 c 9.2,-4.5 13.8,-11.8 13.8,-22 z"
       id="path44"
       style="stroke:none;stroke-width:10;stroke-miterlimit:4;stroke-dasharray:none;stroke-opacity:1" />
  </g>
  <g
     id="Layer6_0_MEMBER_2_MEMBER_2_MEMBER_0_FILL"
     transform="translate(-348.2,-125.8)">
    <path
       class="st6"
       d="m 723.2,249.2 c -8.2,-28.1 -23.8,-51.1 -47,-68.9 -23.8,-18.1 -50.7,-27.2 -80.5,-27.2 -29.8,0 -68.2,13 -94.3,39.1 -26.1,25.8 -39.1,57.1 -39.1,93.9 0,36.8 5.5,43.7 16.4,63.3 z"
       id="path47" />
  </g>
  <g
     id="Layer6_0_MEMBER_2_MEMBER_2_MEMBER_1_FILL"
     transform="translate(-348.2,-125.8)">
    <path
       class="st0"
       d="m 728.4,286.1 c 0,-11.9 -1.5,-23.5 -4.5,-34.7 L 479.8,351.6 c 11.7,20.6 27.6,36.9 47.7,48.8 20.9,12.4 43.6,18.6 68.2,18.6 36.8,0 68.1,-13 93.9,-39.1 25.8,-25.8 38.8,-57.1 38.8,-93.9 v 0 z"
       id="path50" />
  </g>
  <g
     id="Layer6_0_MEMBER_2_MEMBER_2_MEMBER_2_MEMBER_0_FILL"
     transform="translate(-348.2,-125.8)">
    <path
       class="st9"
       d="M 484.7,227.9 592,286.8 653.5,175 c -30.3,-15.9 -61.7,-18.9 -94.3,-8.9 -32.5,9.7 -57.1,29.6 -73.8,59.6 z"
       id="path53" />
  </g>
  <g
     id="Layer6_0_MEMBER_2_MEMBER_2_MEMBER_2_MEMBER_1_FILL"
     transform="translate(-348.2,-125.8)">
    <path
       class="st8"
       d="m 629.2,406.8 c 33,-9.4 58,-28.9 74.9,-58.5 l -112.2,-61.5 -59.2,107.7 2.2,1.5 c 30.1,16.4 61.5,20 94.3,10.8 z"
       id="path56" />
  </g>
  <g
     id="Layer6_0_MEMBER_2_MEMBER_2_MEMBER_2_MEMBER_2_FILL"
     transform="translate(-348.2,-125.8)">
    <path
       class="st3"
       d="m 704.1,348.3 v 0.4 l 1.1,-2.2 c 16.6,-30.3 20.1,-62.1 10.4,-95.4 -9.7,-33 -29.7,-58 -60,-74.9 l -2.2,-1.1 -61.5,111.8 112.2,61.5 v 0 z"
       id="path59" />
  </g>
  <g
     id="Layer6_0_MEMBER_2_MEMBER_2_MEMBER_2_MEMBER_3_FILL"
     transform="translate(-348.2,-125.8)">
    <path
       class="st5"
       d="M 592,286.8 484.7,227.9 c -15.6,29.8 -18.8,60.9 -9.3,93.2 9.2,32.3 28.4,56.8 57.8,73.4 l 58.9,-107.7 z"
       id="path62" />
  </g>
  <g
     id="Layer6_0_MEMBER_2_MEMBER_2_MEMBER_3_FILL"
     transform="translate(-348.2,-125.8)">
    <path
       class="st8"
       d="m 707.5,286.1 c 0,-30.1 -10.9,-55.6 -32.8,-76.8 -21.9,-21.4 -48.2,-32 -79,-32 -30.8,0 -57.4,10.6 -79,31.7 -21.9,21.4 -32.8,47.1 -32.8,77.1 0,30 10.9,55.8 32.8,77.1 21.6,21.1 47.9,31.7 79,31.7 31.1,0 57.1,-10.6 79,-31.7 21.9,-21.4 32.8,-47.1 32.8,-77.1 m -36.1,0 c 0,20.9 -7.3,38.8 -22,53.7 -14.9,14.7 -32.8,22 -53.7,22 -20.9,0 -39,-7.3 -53.7,-22 -14.9,-14.9 -22.4,-32.8 -22.4,-53.7 0,-20.9 7.5,-38.6 22.4,-53.3 14.7,-14.9 32.5,-22.4 53.7,-22.4 21.2,0 38.8,7.5 53.7,22.4 14.9,14.9 22,32.4 22,53.3 z"
       id="path65" />
  </g>
  <g
     id="Layer6_0_MEMBER_2_MEMBER_2_MEMBER_4_MEMBER_0_FILL"
     transform="translate(-348.2,-125.8)">
    <path
       class="st11"
       d="m 693,217.1 c -13.9,-19.6 -32.4,-33.7 -55.5,-42.1 -27.1,-9.9 -54.4,-10.1 -82,-0.4 -28.1,9.7 -49.2,27 -63.3,51.8 -16.9,29.3 -20.2,60.2 -10.1,92.8 9.9,32.3 30.2,55.8 60.7,70.4 33.5,16.4 67.4,16.9 101.7,1.5 34.8,-15.4 56.8,-41 66,-76.8 2.2,-7.7 3.6,-17.1 4.1,-28.3 -0.5,-0.5 -1.7,-0.6 -3.7,-0.4 -1.7,0 -2.7,0.1 -3,0.4 -1,10.9 -1.7,17.5 -2.2,19.7 -2,9.2 -5.5,18.9 -10.4,29.1 -5.5,10.2 -11.3,18.6 -17.5,25.3 -1.5,0.5 -2.4,1 -2.6,1.5 -11.4,11.4 -24.6,20 -39.5,25.7 -14.9,5.7 -30.4,8.1 -46.6,7.1 -30.6,-1.5 -55.8,-13.2 -75.6,-35 -19.1,-20.1 -29.1,-44.6 -29.8,-73.4 l -1.5,-1.5 c 0.7,-0.5 1.1,-1 1.1,-1.5 0.7,-18.6 5.7,-36.3 14.9,-52.9 4.2,-7.2 9.3,-13.8 15.3,-19.7 l -0.4,-0.7 c -0.2,-0.2 0,-0.6 0.4,-1.1 21.4,-22.1 48.7,-33.4 82,-33.9 33.5,-0.5 60.7,10.4 81.6,32.8 0.7,0.7 1.1,1.4 1.1,1.9 l -0.4,0.4 0.4,1.1 c 9.2,9.4 16.3,20.5 21.2,33.2 5.2,12.7 7.8,25.6 7.8,38.8 l 6.7,1.1 c -0.2,-24.6 -7.2,-46.8 -20.9,-66.7 z"
       id="path68" />
  </g>
  <g
     id="Layer6_0_MEMBER_2_MEMBER_2_MEMBER_4_MEMBER_1_FILL"
     transform="translate(-348.2,-125.8)">
    <path
       class="st1"
       d="m 658.7,345 c -4,-4.5 -6.7,-7.3 -8.2,-8.6 -14.2,14.7 -32,22.4 -53.7,23.1 v 13.4 l 1.1,-0.7 c 0.5,-0.2 1.1,-0.6 1.9,-1.1 0.5,0 1,0.9 1.5,2.6 0.5,1.5 1.1,1.6 1.9,0.4 -0.7,0.2 -1.4,-0.9 -1.9,-3.4 0.7,-0.5 1.4,-0.4 1.9,0.4 l 2.6,0.7 c 0,-1.7 0.4,-2.2 1.1,-1.5 0.7,0.7 1,1.7 0.7,3 l 2.2,-1.5 c 0.2,-0.5 0,-1.2 -0.7,-2.2 0.7,-0.5 1.1,-0.4 1.1,0.4 1.2,-0.5 2.2,-0.6 3,-0.4 0.2,0 0.6,-0.1 1.1,-0.4 0.5,0 0.6,0.6 0.4,1.9 l 2.2,-1.5 1.5,-0.7 1.9,-0.4 1.5,-1.1 c 0.7,0 0.7,1.1 0,3.4 1.2,0 1.7,-0.5 1.5,-1.5 0.2,0 0.4,0.1 0.4,0.4 0.2,0.2 1,0.1 2.2,-0.4 -0.7,-1.5 -1,-2.6 -0.7,-3.4 0.2,-0.5 0.9,0.2 1.9,2.2 0.7,-0.5 1.5,-0.7 2.2,-0.7 l -1.1,-2.6 2.2,1.1 c 0.5,-0.7 1.2,-1.1 2.2,-1.1 v -1.9 c 0,-0.7 0.5,0 1.5,2.2 l 2.2,-0.4 c -0.7,-1.7 -0.9,-2.9 -0.4,-3.4 0.5,-0.5 0.7,0.5 1.5,2.2 l 1.9,-1.9 c 0,-0.2 0,-0.6 -0.4,-1.1 -0.5,-0.5 -0.5,-0.9 0,-1.1 l 2.6,1.9 c 0,-0.2 0.4,-0.6 1.1,-1.1 v -3 c 0.7,0.2 1.2,0.9 1.5,1.9 h 2.2 c -1.2,-1.2 -1.6,-2.2 -1.1,-3 0.2,-0.7 1,-0.4 2.2,1.1 l 1.1,-1.5 c 0,-0.2 0,-0.6 -0.4,-1.1 0,-0.5 0.2,-0.9 0.7,-1.1 l 1.5,1.5 c 0,-0.2 0.5,-0.6 1.5,-1.1 -1,-1 -1.4,-1.7 -1.1,-2.2 0.5,-0.2 1.2,0.1 2.2,1.1 0.7,-0.5 1.1,-1 1.1,-1.5 -0.5,-0.7 -0.9,-1.2 -1.1,-1.5 -0.2,-0.5 0.7,-0.2 3,0.7 L 657,349 c 0,-0.7 0,-1.4 0.4,-1.9 l 1.1,-2.2 h 0.2 z"
       id="path71" />
  </g>
  <g
     id="Layer6_0_MEMBER_2_MEMBER_2_MEMBER_4_MEMBER_2_FILL"
     transform="translate(-348.2,-125.8)">
    <path
       class="st1"
       d="m 682.9,286.1 v -0.7 c -6.5,0 -9.8,0.1 -10.1,0.4 0,16.6 -6.2,32.2 -18.6,46.6 -1.2,1.5 -0.7,3.4 1.5,5.6 2.2,2.2 3.1,3 5.6,5.2 0.5,0 1.2,-0.2 2.2,-0.7 -0.7,-0.2 -1.1,-0.7 -1.1,-1.5 0,-0.8 0.4,-0.7 1.1,0 0.5,-0.2 1.2,-0.5 2.2,-0.7 l -1.5,-1.1 c 0.5,-1 1,-1.2 1.5,-0.7 0.5,0.2 1.1,0.7 1.9,1.5 l 1.1,-2.2 c -1.7,-1 -2.5,-1.6 -2.2,-1.9 0.2,0 1,-0.1 2.2,-0.4 l 1.5,-1.1 V 331 l 1.1,-2.2 c 0.5,-0.5 1.1,-0.9 1.9,-1.1 v -1.1 c 0,-0.7 0.7,-1.5 2.2,-2.2 -0.5,-0.5 -0.6,-0.9 -0.4,-1.1 0.2,-0.2 0.5,-0.4 0.7,-0.4 l 0.4,-1.9 1.1,-1.5 c -0.5,0.2 -0.5,-0.4 0,-1.9 l 1.1,-1.5 1.9,-5.2 0.7,-3 v -0.4 c -0.2,-0.2 0,-0.9 0.7,-1.9 l 1.5,-1.9 c -1.2,0.2 -1.7,0 -1.5,-0.7 l 0.4,-0.7 0.7,-2.2 V 299 c 0.5,-1.2 0.9,-2.2 1.1,-3 -1.2,0.7 -1.5,0.2 -0.7,-1.5 0.2,-0.2 1.2,-0.9 3,-1.9 -2.5,-1.2 -3.2,-2.1 -2.2,-2.6 0.7,-0.2 1.6,-0.5 2.6,-0.7 0,-0.2 -0.4,-0.6 -1.1,-1.1 -0.7,-0.5 -0.9,-1.1 -0.4,-1.9 h -2.2 v -0.2 z"
       id="path74" />
  </g>
  <g
     id="Layer6_0_MEMBER_2_MEMBER_2_MEMBER_4_MEMBER_3_MEMBER_0_FILL"
     transform="translate(-348.2,-125.8)">
    <path
       class="st1"
       d="M 678.1,210.8 677.7,209.7 652,235 c 12.4,13.7 19.3,29.7 20.5,48.1 0.5,0.5 4.6,0.7 12.3,0.7 14.4,0 21.7,-0.5 22,-1.5 -1.7,-13.2 -3.1,-21.9 -4.1,-26.1 -3.2,-12.9 -11.4,-28.1 -24.6,-45.5 v 0 z"
       id="path77" />
  </g>
  <g
     id="Layer6_0_MEMBER_2_MEMBER_2_MEMBER_4_MEMBER_3_MEMBER_1_MEMBER_0_FILL"
     transform="translate(-348.2,-125.8)">
    <path
       class="st8"
       d="m 670.2,234.6 c -0.5,0 -1,0.5 -1.5,1.5 -0.5,1.2 -0.4,2 0.4,2.2 1.7,-0.2 2.9,-1 3.4,-2.2 0.5,-1.2 -0.2,-1.7 -2.2,-1.5 z"
       id="path80" />
  </g>
  <g
     id="Layer6_0_MEMBER_2_MEMBER_2_MEMBER_4_MEMBER_3_MEMBER_1_MEMBER_1_FILL"
     transform="translate(-348.2,-125.8)">
    <path
       class="st8"
       d="m 684,265.9 c -0.2,-0.2 -0.9,0 -1.9,0.7 -1,0.7 -1.1,1.4 -0.4,1.9 1,0.7 2,0.6 3,-0.4 0.7,-1 0.5,-1.7 -0.7,-2.2 z"
       id="path83" />
  </g>
  <g
     id="Layer6_0_MEMBER_2_MEMBER_2_MEMBER_4_MEMBER_3_MEMBER_1_MEMBER_2_FILL"
     transform="translate(-348.2,-125.8)">
    <path
       class="st8"
       d="m 668,230.2 c -0.5,0 -1.1,0.7 -1.9,2.2 -0.5,1.2 0.6,1.4 3.4,0.4 z"
       id="path86" />
  </g>
  <g
     id="Layer6_0_MEMBER_2_MEMBER_2_MEMBER_4_MEMBER_3_MEMBER_1_MEMBER_3_FILL"
     transform="translate(-348.2,-125.8)">
    <path
       class="st8"
       d="m 676.9,245.1 -1.9,1.5 c -1.2,1.7 -0.6,1.9 1.9,0.4 2.2,-1.2 2.2,-1.9 0,-1.9 z"
       id="path89" />
  </g>
  <g
     id="Layer6_0_MEMBER_2_MEMBER_2_MEMBER_4_MEMBER_3_MEMBER_1_MEMBER_4_FILL"
     transform="translate(-348.2,-125.8)">
    <path
       class="st8"
       d="m 665,227.6 c -0.2,0.2 -0.6,0.6 -1.1,1.1 -0.5,0.7 -0.6,1.2 -0.4,1.5 1,0 1.9,-0.5 2.6,-1.5 0.5,-1 0,-1.4 -1.1,-1.1 z"
       id="path92" />
  </g>
  <g
     id="Layer6_0_MEMBER_2_MEMBER_2_MEMBER_4_MEMBER_3_MEMBER_1_MEMBER_5_FILL"
     transform="translate(-348.2,-125.8)">
    <path
       class="st8"
       d="m 678.4,248.4 -2.6,1.5 c -0.2,1.5 0.6,1.7 2.6,0.7 1.7,-1 1.7,-1.7 0,-2.2 z"
       id="path95" />
  </g>
  <g
     id="Layer6_0_MEMBER_2_MEMBER_2_MEMBER_4_MEMBER_3_MEMBER_1_MEMBER_6_FILL"
     transform="translate(-348.2,-125.8)">
    <path
       class="st8"
       d="m 681.4,258.5 c -0.7,0.2 -1.2,0.6 -1.5,1.1 0,0.5 0.2,0.9 0.7,1.1 0.7,0.2 1.5,-0.1 2.2,-1.1 0.7,-1 0.2,-1.4 -1.5,-1.1 v 0 z"
       id="path98" />
  </g>
  <g
     id="Layer6_0_MEMBER_2_MEMBER_2_MEMBER_4_MEMBER_3_MEMBER_1_MEMBER_7_FILL"
     transform="translate(-348.2,-125.8)">
    <path
       class="st8"
       d="m 683.6,270.8 c -0.5,0.2 -0.7,0.6 -0.7,1.1 -0.2,0.5 -0.2,0.9 0,1.1 1,0.5 1.9,0.1 2.6,-1.1 0.5,-1.2 0,-1.6 -1.9,-1.1 z"
       id="path101" />
  </g>
  <g
     id="Layer6_0_MEMBER_2_MEMBER_2_MEMBER_4_MEMBER_3_MEMBER_1_MEMBER_8_FILL"
     transform="translate(-348.2,-125.8)">
    <path
       class="st8"
       d="m 682.9,261.8 -2.2,1.5 c 0.5,1 1.4,1.1 2.6,0.4 1.2,-0.7 1.1,-1.4 -0.4,-1.9 z"
       id="path104" />
  </g>
  <g
     id="Layer6_0_MEMBER_2_MEMBER_2_MEMBER_4_MEMBER_3_MEMBER_1_MEMBER_9_FILL"
     transform="translate(-348.2,-125.8)">
    <path
       class="st8"
       d="m 683.6,280.5 c -0.5,1 0,1.5 1.1,1.5 1.1,0 1.9,-0.2 1.9,-0.7 0,-0.5 -0.5,-0.7 -1.5,-0.7 h -1.5 z"
       id="path107" />
  </g>
  <g
     id="Layer6_0_MEMBER_2_MEMBER_2_MEMBER_4_MEMBER_3_MEMBER_1_MEMBER_10_FILL"
     transform="translate(-348.2,-125.8)">
    <path
       class="st8"
       d="m 679.2,255.9 c -0.7,0.5 -0.6,0.9 0.4,1.1 1,0.2 1.6,0 1.9,-0.7 l -2.2,-0.4 z"
       id="path110" />
  </g>
  <g
     id="Layer6_0_MEMBER_2_MEMBER_2_MEMBER_4_MEMBER_3_MEMBER_1_MEMBER_11_FILL"
     transform="translate(-348.2,-125.8)">
    <path
       class="st8"
       d="m 700.8,260.7 c -0.2,0.2 -0.4,1 -0.4,2.2 0,1.2 0.4,1.4 1.1,1.1 0.2,-0.2 0,-1.4 -0.7,-3.4 v 0 z"
       id="path113" />
  </g>
  <g
     id="Layer6_0_MEMBER_2_MEMBER_2_MEMBER_4_MEMBER_3_MEMBER_1_MEMBER_12_FILL"
     transform="translate(-348.2,-125.8)">
    <path
       class="st8"
       d="m 663.5,225.7 -0.7,1.1 c 0.7,0 1.2,-0.2 1.5,-0.7 0.3,-0.5 0,-0.6 -0.7,-0.4 v 0 z"
       id="path116" />
  </g>
  <g
     id="Layer6_0_MEMBER_2_MEMBER_2_MEMBER_4_MEMBER_3_MEMBER_1_MEMBER_13_FILL"
     transform="translate(-348.2,-125.8)">
    <path
       class="st8"
       d="m 700.4,258.1 c -0.5,0.5 -0.7,0.9 -0.7,1.1 0.5,0.5 0.9,0.6 1.1,0.4 0.2,-0.5 0,-1 -0.4,-1.5 z"
       id="path119" />
  </g>
  <g
     id="Layer6_0_MEMBER_2_MEMBER_2_MEMBER_4_MEMBER_4_MEMBER_0_FILL"
     transform="translate(-348.2,-125.8)">
    <path
       class="st10"
       d="m 677.7,209.7 h 0.4 c 0.5,-0.2 0,-1 -1.1,-2.2 -20.9,-22.4 -48.1,-33.3 -81.6,-32.8 -33,0.5 -60.2,11.8 -81.6,33.9 -0.5,0.5 -0.7,0.9 -0.7,1.1 l 0.4,0.7 c -5.7,6.2 -10.7,12.8 -14.9,19.7 l 0.4,0.4 c 1.2,-2 3.9,-5.6 7.8,-10.8 4.5,-6 7.2,-8.8 8.2,-8.6 l 24.2,22.7 c -13.9,15.7 -21,32 -21.2,49.2 l 0.4,3.4 c 0.7,16.9 7.5,33.2 20.1,48.8 -5,5.5 -12.9,13.2 -23.8,23.1 l -1.1,1.1 c 9.7,10.4 21.1,18.8 34.3,25 13.2,6 27,9.3 41.4,10.1 v -1.1 c -13.2,-0.2 -26.3,-3.5 -39.5,-9.7 -13.2,-6 -24.1,-13.8 -32.8,-23.5 l 23.5,-23.5 c 14.7,15.2 32.8,22.7 54.4,22.7 h 2.2 c 21.1,-0.2 39,-7.8 53.7,-22.7 l 3.4,-4.1 c 12.4,-14.4 18.8,-29.9 19,-46.6 0.2,-0.2 3.6,-0.4 10.1,-0.4 0.2,-0.2 0.9,-0.4 1.9,-0.4 0.5,-0.2 0.6,-0.9 0.4,-1.9 -7.9,0 -12,-0.2 -12.3,-0.7 -1.5,-18.6 -8.4,-34.5 -20.9,-47.7 l 25.7,-25.3 h -0.4 z"
       id="path122"
       style="fill:url(#linear-gradient)" />
  </g>
  <g
     id="Layer6_0_MEMBER_2_MEMBER_2_MEMBER_4_MEMBER_4_MEMBER_1_FILL"
     transform="translate(-348.2,-125.8)">
    <path
       class="st4"
       d="m 612.9,280.1 c 7.2,-8.7 8.2,-17.8 3,-27.2 -5.5,-9.2 -13.8,-13 -25,-11.6 -10.7,1.5 -16.9,7.9 -18.6,19.4 -1.7,11.4 2.4,19.5 12.3,24.2 l -6,41 32.4,0.7 c 0.7,-2.2 0,-9.4 -2.2,-21.6 -2.2,-11.9 -3.1,-18.6 -2.6,-20.1 0.2,-0.2 2.5,-1.9 6.7,-4.8 z"
       id="path125" />
  </g>
  <g
     id="Layer6_0_MEMBER_2_MEMBER_2_MEMBER_4_MEMBER_4_MEMBER_2_MEMBER_0_FILL"
     transform="translate(-348.2,-125.8)">
    <path
       class="st11"
       d="m 588.6,175.4 v 0.4 c -12.4,0 -25.5,3.2 -39.1,9.7 -13.4,6.2 -24.6,14 -33.5,23.5 l 23.8,23.5 c 18.9,-15.6 37,-23.2 54.4,-22.7 l 0.4,-33.9 c -0.2,-0.2 -2.2,-0.4 -6,-0.4 v 0 z"
       id="path128" />
  </g>
  <g
     id="Layer6_0_MEMBER_2_MEMBER_2_MEMBER_4_MEMBER_4_MEMBER_2_MEMBER_1_MEMBER_0_FILL"
     transform="translate(-348.2,-125.8)">
    <path
       class="st8"
       d="m 575.2,196.6 c -0.5,0.2 -0.6,1 -0.4,2.2 0.2,1 0.6,1.6 1.1,1.9 0.7,0.2 1.1,-0.4 1.1,-1.9 -0.2,-1.5 -0.9,-2.2 -1.9,-2.2 z"
       id="path131" />
  </g>
  <g
     id="Layer6_0_MEMBER_2_MEMBER_2_MEMBER_4_MEMBER_4_MEMBER_2_MEMBER_1_MEMBER_1_FILL"
     transform="translate(-348.2,-125.8)">
    <path
       class="st8"
       d="m 590.9,194.4 c -0.5,0 -0.7,0.7 -0.7,2.2 0,1.5 0.2,1.9 0.7,1.9 0.5,0 0.7,-0.6 0.7,-1.9 0,-1.3 -0.2,-2.2 -0.7,-2.2 z"
       id="path134" />
  </g>
  <g
     id="Layer6_0_MEMBER_2_MEMBER_2_MEMBER_4_MEMBER_4_MEMBER_2_MEMBER_1_MEMBER_2_FILL"
     transform="translate(-348.2,-125.8)">
    <path
       class="st8"
       d="m 568.1,198.9 c -0.7,1 -0.6,1.9 0.4,2.6 1,1 1.5,0.7 1.5,-0.7 -0.7,-1.5 -1.4,-2.1 -1.9,-1.9 z"
       id="path137" />
  </g>
  <g
     id="Layer6_0_MEMBER_2_MEMBER_2_MEMBER_4_MEMBER_4_MEMBER_2_MEMBER_1_MEMBER_3_FILL"
     transform="translate(-348.2,-125.8)">
    <path
       class="st8"
       d="m 571.9,197.7 c -0.7,0.2 -0.9,0.9 -0.4,1.9 0.2,1 0.6,1.5 1.1,1.5 0.5,0 0.7,-0.5 0.7,-1.5 -0.2,-1.2 -0.7,-1.9 -1.5,-1.9 z"
       id="path140" />
  </g>
  <g
     id="Layer6_0_MEMBER_2_MEMBER_2_MEMBER_4_MEMBER_4_MEMBER_2_MEMBER_1_MEMBER_4_FILL"
     transform="translate(-348.2,-125.8)">
    <path
       class="st8"
       d="m 526.4,203 c -0.2,0 -0.9,0.5 -1.9,1.5 -1,1.2 -1.5,2 -1.5,2.2 l 4.5,-3.4 -1.1,-0.4 v 0 z"
       id="path143" />
  </g>
  <g
     id="Layer6_0_MEMBER_2_MEMBER_2_MEMBER_4_MEMBER_4_MEMBER_2_MEMBER_1_MEMBER_5_FILL"
     transform="translate(-348.2,-125.8)">
    <path
       class="st8"
       d="m 542.4,211.2 c -0.7,0 -0.9,0.5 -0.4,1.5 0.7,1 1.4,1.5 1.9,1.5 1,0 1.1,-0.5 0.4,-1.5 -0.5,-1 -1.1,-1.5 -1.9,-1.5 z"
       id="path146" />
  </g>
  <g
     id="Layer6_0_MEMBER_2_MEMBER_2_MEMBER_4_MEMBER_4_MEMBER_2_MEMBER_1_MEMBER_6_FILL"
     transform="translate(-348.2,-125.8)">
    <path
       class="st8"
       d="m 587.1,195.1 c -0.2,0.2 -0.4,0.9 -0.4,1.9 0.2,1 0.5,1.5 0.7,1.5 0.7,0 1,-0.7 0.7,-2.2 -0.2,-1.2 -0.6,-1.6 -1.1,-1.1 v 0 z"
       id="path149" />
  </g>
  <g
     id="Layer6_0_MEMBER_2_MEMBER_2_MEMBER_4_MEMBER_4_MEMBER_2_MEMBER_1_MEMBER_7_FILL"
     transform="translate(-348.2,-125.8)">
    <path
       class="st8"
       d="m 556.9,203 c -0.5,0.2 -0.5,0.9 0,1.9 0.2,1 0.6,1.5 1.1,1.5 1,0 0.6,-1.1 -1.1,-3.4 z"
       id="path152" />
  </g>
  <g
     id="Layer6_0_MEMBER_2_MEMBER_2_MEMBER_4_MEMBER_4_MEMBER_2_MEMBER_1_MEMBER_8_FILL"
     transform="translate(-348.2,-125.8)">
    <path
       class="st8"
       d="m 534.2,217.9 c -0.2,0 -0.5,0.2 -0.7,0.7 -0.2,0.2 0,0.5 0.4,0.7 0.5,0.7 1.1,1.2 1.9,1.5 0.7,0.5 0.9,0.1 0.4,-1.1 l -1.9,-1.9 h -0.1 z"
       id="path155" />
  </g>
  <g
     id="Layer6_0_MEMBER_2_MEMBER_2_MEMBER_4_MEMBER_4_MEMBER_2_MEMBER_1_MEMBER_9_FILL"
     transform="translate(-348.2,-125.8)">
    <path
       class="st8"
       d="m 583,195.5 1.1,3.4 c 0.5,-0.5 0.6,-1.2 0.4,-2.2 -0.2,-1 -0.7,-1.4 -1.5,-1.1 v 0 z"
       id="path158" />
  </g>
  <g
     id="Layer6_0_MEMBER_2_MEMBER_2_MEMBER_4_MEMBER_4_MEMBER_2_MEMBER_1_MEMBER_10_FILL"
     transform="translate(-348.2,-125.8)">
    <path
       class="st8"
       d="m 565.5,200 c -0.7,0 -1,0.6 -0.7,1.9 0.2,1 0.6,1.5 1.1,1.5 1,0 0.9,-1.1 -0.4,-3.4 z"
       id="path161" />
  </g>
  <g
     id="Layer6_0_MEMBER_2_MEMBER_2_MEMBER_4_MEMBER_4_MEMBER_2_MEMBER_1_MEMBER_11_FILL"
     transform="translate(-348.2,-125.8)">
    <path
       class="st8"
       d="m 560.3,201.8 c -0.7,0.2 -0.9,0.9 -0.4,1.9 0.5,1 1,1.5 1.5,1.5 z"
       id="path164" />
  </g>
  <g
     id="Layer6_0_MEMBER_2_MEMBER_2_MEMBER_4_MEMBER_4_MEMBER_2_MEMBER_1_MEMBER_12_FILL"
     transform="translate(-348.2,-125.8)">
    <path
       class="st8"
       d="m 539.8,213.4 -1.1,0.7 2.2,2.2 0.7,-1.1 c -0.7,-1.2 -1.4,-1.9 -1.9,-1.9 v 0 z"
       id="path167" />
  </g>
  <g
     id="Layer6_0_MEMBER_2_MEMBER_2_MEMBER_4_MEMBER_4_MEMBER_2_MEMBER_1_MEMBER_13_FILL"
     transform="translate(-348.2,-125.8)">
    <path
       class="st8"
       d="m 536.8,215.6 c -0.7,0 -0.9,0.5 -0.4,1.5 0.5,0.7 1.1,1.2 1.9,1.5 0.7,-0.5 0.2,-1.5 -1.5,-3 z"
       id="path170" />
  </g>
  <g
     id="Layer6_0_MEMBER_2_MEMBER_2_MEMBER_4_MEMBER_4_MEMBER_2_MEMBER_1_MEMBER_14_FILL"
     transform="translate(-348.2,-125.8)">
    <path
       class="st8"
       d="m 551,206.3 c -0.5,0 -0.5,0.5 0,1.5 0.2,1 0.6,1.6 1.1,1.9 1,-0.5 0.6,-1.6 -1.1,-3.4 z"
       id="path173" />
  </g>
  <g
     id="Layer6_0_MEMBER_2_MEMBER_2_MEMBER_4_MEMBER_4_MEMBER_2_MEMBER_1_MEMBER_15_FILL"
     transform="translate(-348.2,-125.8)">
    <path
       class="st8"
       d="m 548,207.8 1.1,3 c 0.5,-0.5 0.6,-1.1 0.4,-1.9 -0.2,-1 -0.7,-1.4 -1.5,-1.1 z"
       id="path176" />
  </g>
  <g
     id="Layer6_0_MEMBER_2_MEMBER_2_MEMBER_4_MEMBER_4_MEMBER_2_MEMBER_1_MEMBER_16_FILL"
     transform="translate(-348.2,-125.8)">
    <path
       class="st8"
       d="m 546.1,189.9 -1.9,1.5 c 0.2,0.5 1,0.4 2.2,-0.4 1,-0.7 0.9,-1.1 -0.4,-1.1 z"
       id="path179" />
  </g>
  <g
     id="Layer6_0_MEMBER_2_MEMBER_2_MEMBER_4_MEMBER_4_MEMBER_2_MEMBER_1_MEMBER_17_FILL"
     transform="translate(-348.2,-125.8)">
    <path
       class="st8"
       d="m 584.1,178.7 -1.1,1.1 h 2.6 c 0,-0.7 -0.5,-1.1 -1.5,-1.1 z"
       id="path182" />
  </g>
  <g
     id="Layer6_0_MEMBER_2_MEMBER_2_MEMBER_4_MEMBER_4_MEMBER_2_MEMBER_1_MEMBER_18_FILL"
     transform="translate(-348.2,-125.8)">
    <path
       class="st8"
       d="m 564.8,182.8 -1.5,0.7 c 1,0.5 1.9,0.5 2.6,0 0.7,-0.7 0.4,-1 -1.1,-0.7 z"
       id="path185" />
  </g>
  <g
     id="Layer6_0_MEMBER_2_MEMBER_2_MEMBER_4_MEMBER_4_MEMBER_2_MEMBER_1_MEMBER_19_FILL"
     transform="translate(-348.2,-125.8)">
    <path
       class="st8"
       d="m 543.2,191.8 -2.2,1.5 c 0.2,0.5 0.9,0.5 1.9,0 0.7,-0.7 0.9,-1.2 0.4,-1.5 z"
       id="path188" />
  </g>
  <g
     id="Layer6_0_MEMBER_2_MEMBER_2_MEMBER_4_MEMBER_4_MEMBER_2_MEMBER_1_MEMBER_20_FILL"
     transform="translate(-348.2,-125.8)">
    <path
       class="st8"
       d="m 580.8,179.5 c -0.5,0 -0.7,0.2 -0.7,0.7 0.2,0.5 0.7,0.6 1.5,0.4 0.2,-0.2 0,-0.6 -0.7,-1.1 v 0 z"
       id="path191" />
  </g>
  <g
     id="Layer6_0_MEMBER_2_MEMBER_2_MEMBER_4_MEMBER_4_MEMBER_2_MEMBER_1_MEMBER_21_FILL"
     transform="translate(-348.2,-125.8)">
    <path
       class="st8"
       d="m 532,220.1 -0.7,0.7 v 0.4 l 1.1,-0.4 z"
       id="path194" />
  </g>
  <g
     id="Layer6_0_MEMBER_2_MEMBER_2_MEMBER_4_MEMBER_4_MEMBER_3_MEMBER_0_FILL"
     transform="translate(-348.2,-125.8)">
    <path
       class="st11"
       d="m 650.1,233.2 25,-25 c -21.4,-21.1 -47.2,-32 -77.5,-32.8 l -0.7,33.9 c 21.6,1.2 39.4,9.2 53.3,23.8 v 0 z"
       id="path197" />
  </g>
  <g
     id="Layer6_0_MEMBER_2_MEMBER_2_MEMBER_4_MEMBER_4_MEMBER_3_MEMBER_1_MEMBER_0_FILL"
     transform="translate(-348.2,-125.8)">
    <path
       class="st8"
       d="m 602.8,195.1 c -0.2,0 -0.5,0.7 -0.7,2.2 0,1.5 0.4,2 1.1,1.5 1.2,-0.7 1.1,-2 -0.4,-3.7 z"
       id="path200" />
  </g>
  <g
     id="Layer6_0_MEMBER_2_MEMBER_2_MEMBER_4_MEMBER_4_MEMBER_3_MEMBER_1_MEMBER_1_FILL"
     transform="translate(-348.2,-125.8)">
    <path
       class="st8"
       d="m 653.1,215.3 c -0.5,0 -1.1,0.5 -1.9,1.5 -0.5,1.2 -0.4,2 0.4,2.2 2.7,-2.7 3.2,-4 1.5,-3.7 z"
       id="path203" />
  </g>
  <g
     id="Layer6_0_MEMBER_2_MEMBER_2_MEMBER_4_MEMBER_4_MEMBER_3_MEMBER_1_MEMBER_2_FILL"
     transform="translate(-348.2,-125.8)">
    <path
       class="st8"
       d="m 644.1,208.6 c -0.5,-0.2 -1.1,0.4 -1.9,1.9 -0.5,1.2 -0.4,1.9 0.4,1.9 2,-2.5 2.5,-3.7 1.5,-3.7 v 0 z"
       id="path206" />
  </g>
  <g
     id="Layer6_0_MEMBER_2_MEMBER_2_MEMBER_4_MEMBER_4_MEMBER_3_MEMBER_1_MEMBER_3_FILL"
     transform="translate(-348.2,-125.8)">
    <path
       class="st8"
       d="m 634.1,203.3 c -0.5,0.2 -0.9,0.9 -1.1,1.9 -0.5,0.7 -0.5,1.2 0,1.5 0.7,0.5 1.4,0 1.9,-1.5 0.5,-1.5 0.2,-2.1 -0.7,-1.9 z"
       id="path209" />
  </g>
  <g
     id="Layer6_0_MEMBER_2_MEMBER_2_MEMBER_4_MEMBER_4_MEMBER_3_MEMBER_1_MEMBER_4_FILL"
     transform="translate(-348.2,-125.8)">
    <path
       class="st8"
       d="m 616.2,180.6 c -1.5,0.2 -1.2,0.7 0.7,1.5 2,0.7 3.2,0.9 3.7,0.4 0.2,-0.7 -1.2,-1.4 -4.5,-1.9 v 0 z"
       id="path212" />
  </g>
  <g
     id="Layer6_0_MEMBER_2_MEMBER_2_MEMBER_4_MEMBER_4_MEMBER_3_MEMBER_1_MEMBER_5_FILL"
     transform="translate(-348.2,-125.8)">
    <path
       class="st8"
       d="m 623.3,198.9 c -0.5,0 -0.9,0.7 -1.1,2.2 -0.2,1.2 0,1.9 0.7,1.9 1.5,-2.7 1.6,-4.1 0.4,-4.1 z"
       id="path215" />
  </g>
  <g
     id="Layer6_0_MEMBER_2_MEMBER_2_MEMBER_4_MEMBER_4_MEMBER_3_MEMBER_1_MEMBER_6_FILL"
     transform="translate(-348.2,-125.8)">
    <path
       class="st8"
       d="m 612.1,196.3 c -0.2,0 -0.5,0.6 -0.7,1.9 -0.5,1 -0.4,1.6 0.4,1.9 1.7,-1.7 1.9,-3 0.4,-3.7 h -0.1 z"
       id="path218" />
  </g>
  <g
     id="Layer6_0_MEMBER_2_MEMBER_2_MEMBER_4_MEMBER_4_MEMBER_3_MEMBER_1_MEMBER_7_FILL"
     transform="translate(-348.2,-125.8)">
    <path
       class="st8"
       d="m 615.4,197.4 -0.7,2.6 1.5,0.7 0.7,-3 -1.5,-0.4 v 0 z"
       id="path221" />
  </g>
  <g
     id="Layer6_0_MEMBER_2_MEMBER_2_MEMBER_4_MEMBER_4_MEMBER_3_MEMBER_1_MEMBER_8_FILL"
     transform="translate(-348.2,-125.8)">
    <path
       class="st8"
       d="m 619.5,197.7 c -0.5,0 -0.7,0.7 -0.7,2.2 0,1.5 0.2,1.9 0.7,1.9 0.5,0 0.7,-0.6 0.7,-1.9 0,-1.3 -0.2,-2.2 -0.7,-2.2 z"
       id="path224" />
  </g>
  <g
     id="Layer6_0_MEMBER_2_MEMBER_2_MEMBER_4_MEMBER_4_MEMBER_3_MEMBER_1_MEMBER_9_FILL"
     transform="translate(-348.2,-125.8)">
    <path
       class="st8"
       d="m 646.7,210.8 c -0.2,0 -0.5,0.5 -0.7,1.5 -0.5,1.2 -0.5,2 0,2.2 l 1.9,-2.6 c 0.2,-0.2 0,-0.6 -0.4,-1.1 -0.2,-0.2 -0.5,-0.2 -0.7,0 v 0 z"
       id="path227" />
  </g>
  <g
     id="Layer6_0_MEMBER_2_MEMBER_2_MEMBER_4_MEMBER_4_MEMBER_3_MEMBER_1_MEMBER_10_FILL"
     transform="translate(-348.2,-125.8)">
    <path
       class="st8"
       d="m 650.1,213 c -0.5,0 -1,0.6 -1.5,1.9 -0.5,1 -0.4,1.5 0.4,1.5 0.8,0 1.6,-0.5 1.9,-1.5 0.2,-1.2 0,-1.9 -0.7,-1.9 z"
       id="path230" />
  </g>
  <g
     id="Layer6_0_MEMBER_2_MEMBER_2_MEMBER_4_MEMBER_4_MEMBER_3_MEMBER_1_MEMBER_11_FILL"
     transform="translate(-348.2,-125.8)">
    <path
       class="st8"
       d="m 626.6,200 c -0.2,0 -0.5,0.6 -0.7,1.9 -0.5,1.2 -0.4,2 0.4,2.2 1.2,-2.5 1.4,-3.9 0.4,-4.1 z"
       id="path233" />
  </g>
  <g
     id="Layer6_0_MEMBER_2_MEMBER_2_MEMBER_4_MEMBER_4_MEMBER_3_MEMBER_1_MEMBER_12_FILL"
     transform="translate(-348.2,-125.8)">
    <path
       class="st8"
       d="m 637.1,205.2 c -0.2,0 -0.5,0.6 -0.7,1.9 -0.5,1 -0.4,1.5 0.4,1.5 1.2,-2.2 1.4,-3.4 0.4,-3.4 z"
       id="path236" />
  </g>
  <g
     id="Layer6_0_MEMBER_2_MEMBER_2_MEMBER_4_MEMBER_4_MEMBER_3_MEMBER_1_MEMBER_13_FILL"
     transform="translate(-348.2,-125.8)">
    <path
       class="st8"
       d="m 630.7,201.8 -1.5,3.4 c 0.5,0.2 1.1,-0.2 1.9,-1.5 0.5,-1 0.4,-1.6 -0.4,-1.9 z"
       id="path239" />
  </g>
  <g
     id="Layer6_0_MEMBER_2_MEMBER_2_MEMBER_4_MEMBER_4_MEMBER_3_MEMBER_1_MEMBER_14_FILL"
     transform="translate(-348.2,-125.8)">
    <path
       class="st8"
       d="m 655.7,217.9 c -0.2,0 -0.6,0.4 -1.1,1.1 -0.5,0.7 -0.5,1.4 0,1.9 2,-2 2.4,-3 1.1,-3 z"
       id="path242" />
  </g>
  <g
     id="Layer6_0_MEMBER_2_MEMBER_2_MEMBER_4_MEMBER_4_MEMBER_3_MEMBER_1_MEMBER_15_FILL"
     transform="translate(-348.2,-125.8)">
    <path
       class="st8"
       d="m 656.4,197.4 c -0.2,0.5 0,1 1.1,1.5 1,0.7 1.6,0.9 1.9,0.4 -0.7,-1.2 -1.7,-1.9 -3,-1.9 z"
       id="path245" />
  </g>
  <g
     id="Layer6_0_MEMBER_2_MEMBER_2_MEMBER_4_MEMBER_4_MEMBER_3_MEMBER_1_MEMBER_16_FILL"
     transform="translate(-348.2,-125.8)">
    <path
       class="st8"
       d="m 663.5,203 0.4,1.1 c 1,-0.2 1.4,-0.5 1.1,-0.7 -0.2,-0.5 -0.7,-0.6 -1.5,-0.4 z"
       id="path248" />
  </g>
  <g
     id="Layer6_0_MEMBER_2_MEMBER_2_MEMBER_4_MEMBER_4_MEMBER_3_MEMBER_1_MEMBER_17_FILL"
     transform="translate(-348.2,-125.8)">
    <path
       class="st8"
       d="m 660.5,200 c -0.2,0.2 -0.2,0.6 0,1.1 0.2,0.5 0.6,0.7 1.1,0.7 0.5,-0.2 0,-0.9 -1.1,-1.9 v 0 z"
       id="path251" />
  </g>
  <g
     id="Layer6_0_MEMBER_2_MEMBER_2_MEMBER_4_MEMBER_4_MEMBER_3_MEMBER_1_MEMBER_18_FILL"
     transform="translate(-348.2,-125.8)">
    <path
       class="st8"
       d="m 649,192.9 0.4,1.1 c 1,-0.2 1.4,-0.5 1.1,-0.7 -0.2,-0.5 -0.7,-0.6 -1.5,-0.4 z"
       id="path254" />
  </g>
  <g
     id="Layer6_0_MEMBER_2_MEMBER_2_MEMBER_4_MEMBER_4_MEMBER_3_MEMBER_1_MEMBER_19_FILL"
     transform="translate(-348.2,-125.8)">
    <path
       class="st8"
       d="m 612.8,179.9 c -0.5,0.2 -0.5,0.6 0,1.1 0.5,0.5 1,0.5 1.5,0 z"
       id="path257" />
  </g>
  <g
     id="Layer6_0_MEMBER_2_MEMBER_2_MEMBER_4_MEMBER_4_MEMBER_3_MEMBER_1_MEMBER_20_FILL"
     transform="translate(-348.2,-125.8)">
    <path
       class="st8"
       d="m 625.5,182.8 c -0.5,0.2 -0.5,0.6 0,1.1 0.5,0.2 1,0.1 1.5,-0.4 z"
       id="path260" />
  </g>
  <g
     id="Layer6_0_MEMBER_2_MEMBER_2_MEMBER_4_MEMBER_4_MEMBER_3_MEMBER_1_MEMBER_21_FILL"
     transform="translate(-348.2,-125.8)">
    <path
       class="st8"
       d="m 629.2,184 c -0.5,0 -0.7,0.2 -0.7,0.7 0.2,0.5 0.7,0.6 1.5,0.4 0.5,-0.2 0.2,-0.6 -0.7,-1.1 v 0 z"
       id="path263" />
  </g>
  <g
     id="Layer6_0_MEMBER_2_MEMBER_2_MEMBER_4_MEMBER_5_MEMBER_0_FILL"
     transform="translate(-348.2,-125.8)">
    <path
       class="st1"
       d="m 594.6,359.5 c -22.4,0 -40.5,-7.6 -54.4,-22.7 l -23.5,23.8 c 8.7,9.7 19.6,17.5 32.8,23.5 13.2,6.2 26.3,9.4 39.5,9.7 0.5,0 1.5,0.1 3,0.4 1.5,0 2.4,-0.2 2.6,-0.7 v -33.9 0 z"
       id="path266" />
  </g>
  <g
     id="Layer6_0_MEMBER_2_MEMBER_2_MEMBER_4_MEMBER_5_MEMBER_1_MEMBER_0_FILL"
     transform="translate(-348.2,-125.8)">
    <path
       class="st8"
       d="m 541.3,353.5 c -0.2,0 -0.6,1.1 -1.1,3.4 0.7,0.2 1.5,-0.4 2.2,-1.9 0.7,-1.2 0.4,-1.7 -1.1,-1.5 z"
       id="path269" />
  </g>
  <g
     id="Layer6_0_MEMBER_2_MEMBER_2_MEMBER_4_MEMBER_5_MEMBER_1_MEMBER_1_FILL"
     transform="translate(-348.2,-125.8)">
    <path
       class="st8"
       d="m 535.7,349 c -0.2,0 -0.6,0.5 -1.1,1.5 -0.7,1 -0.7,1.6 0,1.9 0.7,0 1.4,-0.5 1.9,-1.5 0.5,-1.2 0.2,-1.9 -0.7,-1.9 z"
       id="path272" />
  </g>
  <g
     id="Layer6_0_MEMBER_2_MEMBER_2_MEMBER_4_MEMBER_5_MEMBER_1_MEMBER_2_FILL"
     transform="translate(-348.2,-125.8)">
    <path
       class="st8"
       d="m 556.9,362.8 c -0.5,0.2 -0.9,0.7 -1.1,1.5 -0.2,1 0,1.6 0.7,1.9 1,0.2 1.5,-0.4 1.5,-1.9 0.2,-1.2 0,-1.7 -1.1,-1.5 z"
       id="path275" />
  </g>
  <g
     id="Layer6_0_MEMBER_2_MEMBER_2_MEMBER_4_MEMBER_5_MEMBER_1_MEMBER_3_FILL"
     transform="translate(-348.2,-125.8)">
    <path
       class="st8"
       d="m 575.9,369.5 c -0.5,0.2 -0.7,0.9 -0.7,1.9 0,1 0.4,1.7 1.1,1.5 l 1.1,-3 z"
       id="path278" />
  </g>
  <g
     id="Layer6_0_MEMBER_2_MEMBER_2_MEMBER_4_MEMBER_5_MEMBER_1_MEMBER_4_FILL"
     transform="translate(-348.2,-125.8)">
    <path
       class="st8"
       d="m 538.7,351.3 c -0.2,0 -0.9,1.1 -1.9,3.4 0.7,0.5 1.5,0 2.2,-1.5 0.7,-1.2 0.6,-1.9 -0.4,-1.9 z"
       id="path281" />
  </g>
  <g
     id="Layer6_0_MEMBER_2_MEMBER_2_MEMBER_4_MEMBER_5_MEMBER_1_MEMBER_5_FILL"
     transform="translate(-348.2,-125.8)">
    <path
       class="st8"
       d="m 579.3,370.3 c -0.2,0 -0.4,0.6 -0.4,1.9 0,1.3 0.2,1.5 0.7,1.5 0.5,0 1.1,-0.7 1.1,-2.2 0,-1.5 -0.5,-1.9 -1.5,-1.1 h 0.1 z"
       id="path284" />
  </g>
  <g
     id="Layer6_0_MEMBER_2_MEMBER_2_MEMBER_4_MEMBER_5_MEMBER_1_MEMBER_6_FILL"
     transform="translate(-348.2,-125.8)">
    <path
       class="st8"
       d="m 587.1,370.6 c -0.7,0 -1.1,0.7 -1.1,2.2 0,1.5 0.5,1.9 1.5,1.1 0.5,-0.2 0.6,-0.9 0.4,-1.9 0,-1 -0.2,-1.5 -0.7,-1.5 h -0.1 z"
       id="path287" />
  </g>
  <g
     id="Layer6_0_MEMBER_2_MEMBER_2_MEMBER_4_MEMBER_5_MEMBER_1_MEMBER_7_FILL"
     transform="translate(-348.2,-125.8)">
    <path
       class="st8"
       d="m 573.3,368.4 c -0.5,0.2 -1,0.7 -1.5,1.5 -0.2,1 -0.2,1.6 0,1.9 0.7,0.5 1.2,0.2 1.5,-0.7 0.2,-1 0.2,-1.9 0,-2.6 v 0 z"
       id="path290" />
  </g>
  <g
     id="Layer6_0_MEMBER_2_MEMBER_2_MEMBER_4_MEMBER_5_MEMBER_1_MEMBER_8_FILL"
     transform="translate(-348.2,-125.8)">
    <path
       class="st8"
       d="m 583,370.6 c -0.7,0.7 -0.7,1.9 0,3.4 l 1.5,-3 z"
       id="path293" />
  </g>
  <g
     id="Layer6_0_MEMBER_2_MEMBER_2_MEMBER_4_MEMBER_5_MEMBER_1_MEMBER_9_FILL"
     transform="translate(-348.2,-125.8)">
    <path
       class="st8"
       d="m 547.3,358 c -0.5,0 -0.9,0.6 -1.1,1.9 -0.2,1 0,1.5 0.7,1.5 0.7,0 0.9,-0.6 1.1,-1.9 0.2,-1.2 0,-1.7 -0.7,-1.5 z"
       id="path296" />
  </g>
  <g
     id="Layer6_0_MEMBER_2_MEMBER_2_MEMBER_4_MEMBER_5_MEMBER_1_MEMBER_10_FILL"
     transform="translate(-348.2,-125.8)">
    <path
       class="st8"
       d="m 554.3,361.3 -1.5,3.4 c 0.5,0.2 1.1,-0.2 1.9,-1.5 0.5,-1 0.4,-1.6 -0.4,-1.9 z"
       id="path299" />
  </g>
  <g
     id="Layer6_0_MEMBER_2_MEMBER_2_MEMBER_4_MEMBER_5_MEMBER_1_MEMBER_11_FILL"
     transform="translate(-348.2,-125.8)">
    <path
       class="st8"
       d="m 568.9,368 c -0.2,0 -0.5,0.4 -0.7,1.1 -0.2,0.7 -0.2,1.2 0,1.5 0.7,0.5 1.2,0 1.5,-1.5 0.5,-1.5 0.2,-1.9 -0.7,-1.1 v 0 z"
       id="path302" />
  </g>
  <g
     id="Layer6_0_MEMBER_2_MEMBER_2_MEMBER_4_MEMBER_5_MEMBER_1_MEMBER_12_FILL"
     transform="translate(-348.2,-125.8)">
    <path
       class="st8"
       d="m 544.3,356.1 -0.7,3 c 0.5,0.2 1,-0.2 1.5,-1.5 0.5,-1 0.2,-1.5 -0.7,-1.5 v 0 z"
       id="path305" />
  </g>
  <g
     id="Layer6_0_MEMBER_2_MEMBER_2_MEMBER_4_MEMBER_5_MEMBER_1_MEMBER_13_FILL"
     transform="translate(-348.2,-125.8)">
    <path
       class="st8"
       d="m 533.1,346.8 c -0.2,0 -0.6,0.4 -1.1,1.1 -0.2,0.7 -0.2,1.2 0,1.5 l 1.9,-1.9 c 0,-0.7 -0.2,-1 -0.7,-0.7 z"
       id="path308" />
  </g>
  <g
     id="Layer6_0_MEMBER_2_MEMBER_2_MEMBER_4_MEMBER_5_MEMBER_1_MEMBER_14_FILL"
     transform="translate(-348.2,-125.8)">
    <path
       class="st8"
       d="m 564,365.8 -1.1,3.4 c 0.7,0.2 1.4,-0.2 1.9,-1.5 0.2,-1.2 0,-1.9 -0.7,-1.9 z"
       id="path311" />
  </g>
  <g
     id="Layer6_0_MEMBER_2_MEMBER_2_MEMBER_4_MEMBER_5_MEMBER_1_MEMBER_15_FILL"
     transform="translate(-348.2,-125.8)">
    <path
       class="st8"
       d="m 559.9,364.7 c 0,0.5 -0.2,1.1 -0.7,1.9 0,0.5 0.2,1 0.7,1.5 l 0.7,-2.2 c 0,-0.7 -0.2,-1.1 -0.7,-1.1 v 0 z"
       id="path314" />
  </g>
  <g
     id="Layer6_0_MEMBER_2_MEMBER_2_MEMBER_4_MEMBER_5_MEMBER_1_MEMBER_16_FILL"
     transform="translate(-348.2,-125.8)">
    <path
       class="st8"
       d="m 533.1,370.6 c -0.2,0.5 0,1.1 1.1,1.9 1,0.5 1.6,0.5 1.9,0 z"
       id="path317" />
  </g>
  <g
     id="Layer6_0_MEMBER_2_MEMBER_2_MEMBER_4_MEMBER_5_MEMBER_1_MEMBER_17_FILL"
     transform="translate(-348.2,-125.8)">
    <path
       class="st8"
       d="m 566.3,366.9 -0.4,2.6 1.5,-2.6 z"
       id="path320" />
  </g>
  <g
     id="Layer6_0_MEMBER_2_MEMBER_2_MEMBER_4_MEMBER_5_MEMBER_1_MEMBER_18_FILL"
     transform="translate(-348.2,-125.8)">
    <path
       class="st8"
       d="m 529,368 c 0,0.5 0.5,1 1.5,1.5 1,0.5 1.6,0.6 1.9,0.4 -1.2,-1.2 -2.4,-1.9 -3.4,-1.9 z"
       id="path323" />
  </g>
  <g
     id="Layer6_0_MEMBER_2_MEMBER_2_MEMBER_4_MEMBER_5_MEMBER_1_MEMBER_19_FILL"
     transform="translate(-348.2,-125.8)">
    <path
       class="st8"
       d="m 560.7,384.8 c -0.5,0.5 -0.4,0.9 0.4,1.1 0.7,0.2 1.4,0.1 1.9,-0.4 -0.5,-1 -1.2,-1.2 -2.2,-0.7 z"
       id="path326" />
  </g>
  <g
     id="Layer6_0_MEMBER_2_MEMBER_2_MEMBER_4_MEMBER_5_MEMBER_1_MEMBER_20_FILL"
     transform="translate(-348.2,-125.8)">
    <path
       class="st8"
       d="m 568.1,387 0.4,1.1 c 1,0.2 1.5,0.1 1.5,-0.4 -0.2,-0.7 -0.9,-1 -1.9,-0.7 z"
       id="path329" />
  </g>
  <g
     id="Layer6_0_MEMBER_2_MEMBER_2_MEMBER_4_MEMBER_5_MEMBER_1_MEMBER_21_FILL"
     transform="translate(-348.2,-125.8)">
    <path
       class="st8"
       d="m 551,359.5 -0.7,1.1 c 0.2,0.7 0.6,0.7 1.1,0 0.2,-0.5 0,-0.9 -0.4,-1.1 z"
       id="path332" />
  </g>
  <g
     id="Layer6_0_MEMBER_2_MEMBER_2_MEMBER_4_MEMBER_5_MEMBER_1_MEMBER_22_FILL"
     transform="translate(-348.2,-125.8)">
    <path
       class="st8"
       d="m 556.9,382.9 -0.7,0.7 0.4,0.4 0.7,-0.4 z"
       id="path335" />
  </g>
  <g
     id="Layer6_0_MEMBER_2_MEMBER_2_MEMBER_4_MEMBER_5_MEMBER_1_MEMBER_23_FILL"
     transform="translate(-348.2,-125.8)">
    <path
       class="st8"
       d="m 548,379.2 v 1.1 h 0.7 v -0.7 z"
       id="path338" />
  </g>
  <g
     id="Layer6_0_MEMBER_2_MEMBER_2_MEMBER_4_MEMBER_6_MEMBER_0_FILL"
     transform="translate(-348.2,-125.8)">
    <path
       class="st11"
       d="m 518.2,286.4 -33.9,0.4 c 0.7,28.6 10.8,52.5 30.2,71.9 10.9,-10.2 18.9,-18 23.8,-23.5 -12.7,-15.6 -19.4,-31.9 -20.1,-48.8 z"
       id="path341" />
  </g>
  <g
     id="Layer6_0_MEMBER_2_MEMBER_2_MEMBER_4_MEMBER_6_MEMBER_1_MEMBER_0_FILL"
     transform="translate(-348.2,-125.8)">
    <path
       class="st8"
       d="m 518.6,328.2 -2.2,3 c 1,0.2 2,0 3,-0.7 1,-1 0.7,-1.7 -0.7,-2.2 v 0 z"
       id="path344" />
  </g>
  <g
     id="Layer6_0_MEMBER_2_MEMBER_2_MEMBER_4_MEMBER_6_MEMBER_1_MEMBER_1_FILL"
     transform="translate(-348.2,-125.8)">
    <path
       class="st8"
       d="m 512.2,315.5 -2.2,1.9 c -0.2,1.7 0.5,2 2.2,0.7 1.7,-1.3 1.7,-2.1 0,-2.6 z"
       id="path347" />
  </g>
  <g
     id="Layer6_0_MEMBER_2_MEMBER_2_MEMBER_4_MEMBER_6_MEMBER_1_MEMBER_2_FILL"
     transform="translate(-348.2,-125.8)">
    <path
       class="st8"
       d="m 507.4,302.1 c -0.5,0 -0.9,0.2 -1.1,0.7 -0.5,0.7 -0.5,1.2 0,1.5 1.5,0.2 2.5,-0.1 3,-1.1 0.5,-1 -0.1,-1.4 -1.9,-1.1 z"
       id="path350" />
  </g>
  <g
     id="Layer6_0_MEMBER_2_MEMBER_2_MEMBER_4_MEMBER_6_MEMBER_1_MEMBER_3_FILL"
     transform="translate(-348.2,-125.8)">
    <path
       class="st8"
       d="m 508.5,306.2 c -0.5,0 -0.9,0.2 -1.1,0.7 -0.5,0.7 -0.5,1.2 0,1.5 1,0.5 1.9,0.1 2.6,-1.1 0.7,-1.2 0.2,-1.6 -1.5,-1.1 z"
       id="path353" />
  </g>
  <g
     id="Layer6_0_MEMBER_2_MEMBER_2_MEMBER_4_MEMBER_6_MEMBER_1_MEMBER_4_FILL"
     transform="translate(-348.2,-125.8)">
    <path
       class="st8"
       d="m 507.4,298.3 v -0.4 l -2.6,1.5 c 0.5,1 1.9,0.9 4.1,-0.4 z"
       id="path356" />
  </g>
  <g
     id="Layer6_0_MEMBER_2_MEMBER_2_MEMBER_4_MEMBER_6_MEMBER_1_MEMBER_5_FILL"
     transform="translate(-348.2,-125.8)">
    <path
       class="st8"
       d="m 505.5,295 c -1.5,0.5 -1.4,1 0.4,1.5 1.5,0.5 2.2,0.2 2.2,-0.7 0,-0.9 -0.4,-0.5 -1.1,-0.7 -0.5,-0.2 -1,-0.2 -1.5,0 v 0 z"
       id="path359" />
  </g>
  <g
     id="Layer6_0_MEMBER_2_MEMBER_2_MEMBER_4_MEMBER_6_MEMBER_1_MEMBER_6_FILL"
     transform="translate(-348.2,-125.8)">
    <path
       class="st8"
       d="m 516.7,325.5 -1.5,0.7 c -0.7,0.5 -1,0.9 -0.7,1.1 0.5,0.7 1.2,0.6 2.2,-0.4 1.2,-0.7 1.2,-1.2 0,-1.5 v 0 z"
       id="path362" />
  </g>
  <g
     id="Layer6_0_MEMBER_2_MEMBER_2_MEMBER_4_MEMBER_6_MEMBER_1_MEMBER_7_FILL"
     transform="translate(-348.2,-125.8)">
    <path
       class="st8"
       d="m 508.9,309.9 c -1,1.5 -1.2,2.2 -0.7,2.2 0.5,0 1.6,-0.5 2.6,-1.5 z"
       id="path365" />
  </g>
  <g
     id="Layer6_0_MEMBER_2_MEMBER_2_MEMBER_4_MEMBER_6_MEMBER_1_MEMBER_8_FILL"
     transform="translate(-348.2,-125.8)">
    <path
       class="st8"
       d="m 520.1,331.5 c -0.2,0 -0.6,0.4 -1.1,1.1 -0.7,0.7 -0.9,1.4 -0.4,1.9 0.7,-0.7 1.4,-1.2 1.9,-1.5 0.7,-0.7 0.6,-1.2 -0.4,-1.5 z"
       id="path368" />
  </g>
  <g
     id="Layer6_0_MEMBER_2_MEMBER_2_MEMBER_4_MEMBER_6_MEMBER_1_MEMBER_9_FILL"
     transform="translate(-348.2,-125.8)">
    <path
       class="st8"
       d="m 524.5,338.2 -1.5,1.5 c 0,1.7 0.6,2 1.9,0.7 1.3,-1.3 1.1,-2 -0.4,-2.2 z"
       id="path371" />
  </g>
  <g
     id="Layer6_0_MEMBER_2_MEMBER_2_MEMBER_4_MEMBER_6_MEMBER_1_MEMBER_10_FILL"
     transform="translate(-348.2,-125.8)">
    <path
       class="st8"
       d="m 505.5,291.6 c -0.2,0 -0.5,0.2 -0.7,0.7 0,0.2 0.1,0.5 0.4,0.7 l 2.6,-0.7 c -0.7,-0.7 -1.5,-1 -2.2,-0.7 v 0 z"
       id="path374" />
  </g>
  <g
     id="Layer6_0_MEMBER_2_MEMBER_2_MEMBER_4_MEMBER_6_MEMBER_1_MEMBER_11_FILL"
     transform="translate(-348.2,-125.8)">
    <path
       class="st8"
       d="m 495.8,323.7 c -0.5,0.5 -0.6,1.2 -0.4,2.2 0.5,0.7 1,1 1.5,0.7 l -1.1,-3 v 0 z"
       id="path377" />
  </g>
  <g
     id="Layer6_0_MEMBER_2_MEMBER_2_MEMBER_4_MEMBER_6_MEMBER_1_MEMBER_12_FILL"
     transform="translate(-348.2,-125.8)">
    <path
       class="st8"
       d="m 502.2,338.2 c -0.2,0.2 -0.2,0.6 0,1.1 0.5,0.5 0.9,0.7 1.1,0.7 0.5,-0.2 0.5,-0.6 0,-1.1 -0.2,-0.5 -0.6,-0.7 -1.1,-0.7 z"
       id="path380" />
  </g>
  <g
     id="Layer6_0_MEMBER_2_MEMBER_2_MEMBER_4_MEMBER_6_MEMBER_1_MEMBER_13_FILL"
     transform="translate(-348.2,-125.8)">
    <path
       class="st8"
       d="m 490.3,308.8 c -0.5,0 -0.6,0.2 -0.4,0.7 0.2,0.7 0.5,1 0.7,0.7 0.5,0 0.6,-0.2 0.4,-0.7 0,-0.7 -0.2,-1 -0.7,-0.7 z"
       id="path383" />
  </g>
  <g
     id="Layer6_0_MEMBER_2_MEMBER_2_MEMBER_4_MEMBER_7_MEMBER_0_FILL"
     transform="translate(-348.2,-125.8)">
    <path
       class="st11"
       d="m 517.5,283.1 c 0.7,-16.6 7.8,-33 21.2,-49.2 l -24.2,-22.7 c -1,0 -3.7,3 -8.2,8.9 -4,5.2 -6.5,8.8 -7.5,10.8 -8.9,14.9 -13.8,32.3 -14.5,52.2 7.2,-0.2 18.3,-0.2 33.2,0 z"
       id="path386" />
  </g>
  <g
     id="Layer6_0_MEMBER_2_MEMBER_2_MEMBER_4_MEMBER_7_MEMBER_1_MEMBER_0_FILL"
     transform="translate(-348.2,-125.8)">
    <path
       class="st8"
       d="m 498.8,230.9 v -0.4 l -0.7,-0.4 c -9.2,15.9 -14.2,33.5 -14.9,52.9 0.7,0.7 1.1,0.7 1.1,0 0.7,-19.9 5.6,-37.3 14.5,-52.2 v 0 z"
       id="path389" />
  </g>
  <g
     id="Layer6_0_MEMBER_2_MEMBER_2_MEMBER_4_MEMBER_7_MEMBER_1_MEMBER_1_FILL"
     transform="translate(-348.2,-125.8)">
    <path
       class="st8"
       d="m 505.2,274.9 -0.4,1.5 c 2.2,1 3.2,0.9 3,-0.4 -0.2,-1.2 -1.1,-1.6 -2.6,-1.1 z"
       id="path392" />
  </g>
  <g
     id="Layer6_0_MEMBER_2_MEMBER_2_MEMBER_4_MEMBER_7_MEMBER_1_MEMBER_2_FILL"
     transform="translate(-348.2,-125.8)">
    <path
       class="st8"
       d="m 505.5,225.3 -2.6,4.8 c 0.7,0 1.5,-0.6 2.2,-1.9 1,-1.5 1.1,-2.5 0.4,-3 v 0 z"
       id="path395" />
  </g>
  <g
     id="Layer6_0_MEMBER_2_MEMBER_2_MEMBER_4_MEMBER_7_MEMBER_1_MEMBER_3_FILL"
     transform="translate(-348.2,-125.8)">
    <path
       class="st8"
       d="m 508.9,255.9 c -1.2,0.2 -1.1,0.7 0.4,1.5 1.5,0.8 2.2,0.7 2.2,0 0,-1.5 -0.9,-2 -2.6,-1.5 z"
       id="path398" />
  </g>
  <g
     id="Layer6_0_MEMBER_2_MEMBER_2_MEMBER_4_MEMBER_7_MEMBER_1_MEMBER_4_FILL"
     transform="translate(-348.2,-125.8)">
    <path
       class="st8"
       d="m 516.3,239.1 c -1.2,0 -1.1,0.5 0.4,1.5 1.2,1.2 2.1,1.4 2.6,0.4 -1.5,-1.2 -2.5,-1.9 -3,-1.9 z"
       id="path401" />
  </g>
  <g
     id="Layer6_0_MEMBER_2_MEMBER_2_MEMBER_4_MEMBER_7_MEMBER_1_MEMBER_5_FILL"
     transform="translate(-348.2,-125.8)">
    <path
       class="st8"
       d="m 514.5,242.5 c -1,0.2 -0.9,0.7 0.4,1.5 1.2,1 2,1.1 2.2,0.4 0.5,-1.2 -0.4,-1.9 -2.6,-1.9 z"
       id="path404" />
  </g>
  <g
     id="Layer6_0_MEMBER_2_MEMBER_2_MEMBER_4_MEMBER_7_MEMBER_1_MEMBER_6_FILL"
     transform="translate(-348.2,-125.8)">
    <path
       class="st8"
       d="m 518.6,235.8 c -1.5,0.7 -1.4,1.4 0.4,1.9 1.7,0.7 2.4,0.6 1.9,-0.4 -1.2,-0.5 -2,-1 -2.2,-1.5 z"
       id="path407" />
  </g>
  <g
     id="Layer6_0_MEMBER_2_MEMBER_2_MEMBER_4_MEMBER_7_MEMBER_1_MEMBER_7_FILL"
     transform="translate(-348.2,-125.8)">
    <path
       class="st8"
       d="m 507.4,262.6 c -1.2,0.2 -1.2,0.7 0,1.5 1,1 1.9,1 2.6,0 z"
       id="path410" />
  </g>
  <g
     id="Layer6_0_MEMBER_2_MEMBER_2_MEMBER_4_MEMBER_7_MEMBER_1_MEMBER_8_FILL"
     transform="translate(-348.2,-125.8)">
    <path
       class="st8"
       d="m 505.2,278.6 c -1,0.7 -1,1.4 0,1.9 1.2,0.2 2.1,0.1 2.6,-0.4 0.2,-0.5 -0.1,-0.9 -1.1,-1.1 z"
       id="path413" />
  </g>
  <g
     id="Layer6_0_MEMBER_2_MEMBER_2_MEMBER_4_MEMBER_7_MEMBER_1_MEMBER_9_FILL"
     transform="translate(-348.2,-125.8)">
    <path
       class="st8"
       d="m 505.2,271.5 c -0.2,0.7 0.1,1.2 1.1,1.5 1.2,0 1.9,-0.2 1.9,-0.7 l -3,-0.7 v 0 z"
       id="path416" />
  </g>
  <g
     id="Layer6_0_MEMBER_2_MEMBER_2_MEMBER_4_MEMBER_7_MEMBER_1_MEMBER_10_FILL"
     transform="translate(-348.2,-125.8)">
    <path
       class="st8"
       d="m 513,245.8 c -1.2,0.2 -1.2,0.7 0,1.5 1.2,1 2.1,1 2.6,0 -1,-1 -1.9,-1.5 -2.6,-1.5 z"
       id="path419" />
  </g>
  <g
     id="Layer6_0_MEMBER_2_MEMBER_2_MEMBER_4_MEMBER_7_MEMBER_1_MEMBER_11_FILL"
     transform="translate(-348.2,-125.8)">
    <path
       class="st8"
       d="m 505.5,267.4 c 0,0.7 0.5,1.2 1.5,1.5 1,0.2 1.6,0.1 1.9,-0.4 z"
       id="path422" />
  </g>
  <g
     id="Layer6_0_MEMBER_2_MEMBER_2_MEMBER_4_MEMBER_7_MEMBER_1_MEMBER_12_FILL"
     transform="translate(-348.2,-125.8)">
    <path
       class="st8"
       d="m 511.9,249.2 -0.7,1.1 2.6,0.4 c 0.5,-1 0,-1.5 -1.9,-1.5 z"
       id="path425" />
  </g>
  <g
     id="Layer6_0_MEMBER_2_MEMBER_2_MEMBER_4_MEMBER_7_MEMBER_1_MEMBER_13_FILL"
     transform="translate(-348.2,-125.8)">
    <path
       class="st8"
       d="m 510,252.5 c -0.2,0.5 0.1,0.9 1.1,1.1 0.5,0.2 1,0.4 1.5,0.4 0,-1 -0.9,-1.5 -2.6,-1.5 z"
       id="path428" />
  </g>
  <g
     id="Layer6_0_MEMBER_2_MEMBER_2_MEMBER_4_MEMBER_7_MEMBER_1_MEMBER_14_FILL"
     transform="translate(-348.2,-125.8)">
    <path
       class="st8"
       d="m 523.1,229.1 c -0.7,0.2 -0.6,0.7 0.4,1.5 0.7,0.5 1.2,0.5 1.5,0 0.2,-0.5 -0.4,-1 -1.9,-1.5 z"
       id="path431" />
  </g>
  <g
     id="Layer6_0_MEMBER_2_MEMBER_2_MEMBER_4_MEMBER_7_MEMBER_1_MEMBER_15_FILL"
     transform="translate(-348.2,-125.8)">
    <path
       class="st8"
       d="m 507.8,222.3 c -0.5,0.2 -0.7,0.6 -0.7,1.1 0,0.5 0.1,0.9 0.4,1.1 1.2,-2 1.4,-2.7 0.4,-2.2 v 0 z"
       id="path434" />
  </g>
  <g
     id="Layer6_0_MEMBER_2_MEMBER_2_MEMBER_4_MEMBER_7_MEMBER_1_MEMBER_16_FILL"
     transform="translate(-348.2,-125.8)">
    <path
       class="st8"
       d="m 493.2,250.3 -0.4,2.2 c 0.5,-0.5 0.9,-1 1.1,-1.5 0.2,-0.7 0,-1 -0.7,-0.7 z"
       id="path437" />
  </g>
  <g
     id="Layer6_0_MEMBER_2_MEMBER_2_MEMBER_4_MEMBER_7_MEMBER_1_MEMBER_17_FILL"
     transform="translate(-348.2,-125.8)">
    <path
       class="st8"
       d="m 525.7,226.4 c -0.5,0 -0.7,0.2 -0.7,0.7 0.2,0.5 0.7,0.6 1.5,0.4 0.2,-0.2 0,-0.6 -0.7,-1.1 v 0 z"
       id="path440" />
  </g>
  <g
     id="Layer6_0_MEMBER_2_MEMBER_2_MEMBER_4_MEMBER_7_MEMBER_1_MEMBER_18_FILL"
     transform="translate(-348.2,-125.8)">
    <path
       class="st8"
       d="m 487.7,279.7 -0.7,0.7 0.4,0.4 0.7,-0.4 z"
       id="path443" />
  </g>
  <g
     id="Layer6_0_MEMBER_2_MEMBER_2_MEMBER_4_MEMBER_7_MEMBER_1_MEMBER_19_FILL"
     transform="translate(-348.2,-125.8)">
    <path
       class="st8"
       d="m 514.5,214.5 -0.7,0.7 0.4,0.4 0.7,-0.4 z"
       id="path446" />
  </g>
  <g
     id="Layer6_0_MEMBER_2_MEMBER_2_MEMBER_4_MEMBER_8_MEMBER_0_FILL"
     transform="translate(-348.2,-125.8)">
    <path
       class="st1"
       d="m 698.2,325.6 c 5.5,-13.2 7.9,-26.2 7.5,-39.1 h -21.2 c -0.5,1 -0.4,1.7 0.4,2.2 l 1.5,0.7 c -1.2,0.2 -2.1,0.5 -2.6,0.7 -1.2,0.5 -0.6,1.4 1.9,2.6 -1.2,0.2 -2.1,1 -2.6,2.2 2,-0.5 3,-0.2 3,0.7 -0.2,1.2 -1.1,1.5 -2.6,0.7 l -1.1,2.6 3,1.1 h -3 l -0.4,2.2 c 2,0.2 2.9,0.5 2.6,0.7 -0.7,0.5 -1.2,0.9 -1.5,1.1 l -1.5,1.5 c 1.5,0.7 2.2,1.4 2.2,1.9 -0.2,0.5 -1.2,0.6 -3,0.4 l -0.4,1.9 c 1.7,-0.2 2.4,0.2 1.9,1.5 -0.2,1 -1.1,1 -2.6,0 l -0.4,1.5 2.2,1.5 -2.6,-0.4 -0.7,2.2 c 1.7,0.7 2.5,1.4 2.2,1.9 -0.5,0.5 -1.6,0.5 -3.4,0 -0.5,1.5 -0.5,2 0,1.5 1.7,0.5 2.4,1.1 1.9,1.9 -0.7,0.7 -1.7,0.7 -3,0 l -0.4,1.5 c 2,1.2 2.5,1.9 1.5,1.9 -1.2,-0.2 -2,-0.4 -2.2,-0.4 l -2.2,2.2 3,1.1 c -0.5,0.5 -1,0.7 -1.5,0.7 l -1.5,-0.7 c -0.2,0.2 -0.7,0.6 -1.5,1.1 l 2.6,2.6 -3.7,-0.4 v 1.9 c 1.5,1 2,1.5 1.5,1.5 H 670 l -1.5,1.1 c 2.2,1.5 2.2,2.2 0,2.2 l -1.5,2.2 -1.5,0.7 -2.2,0.4 c 1.5,2.2 1.5,2.7 0,1.5 l -0.7,1.1 -1.5,-0.4 14.9,14.9 v 0.7 c 9.4,-9.2 16.9,-20.4 22.4,-33.5 z"
       id="path449" />
  </g>
  <g
     id="Layer6_0_MEMBER_2_MEMBER_2_MEMBER_4_MEMBER_8_MEMBER_1_MEMBER_0_FILL"
     transform="translate(-348.2,-125.8)">
    <path
       class="st8"
       d="m 669.8,331.1 4.1,0.4 -3,-2.6 z"
       id="path452" />
  </g>
  <g
     id="Layer6_0_MEMBER_2_MEMBER_2_MEMBER_4_MEMBER_8_MEMBER_1_MEMBER_1_FILL"
     transform="translate(-348.2,-125.8)">
    <path
       class="st8"
       d="m 683.6,296.1 c 1.7,0.7 2.6,0.5 2.6,-0.7 0,-1.2 -1,-1.4 -3,-1.1 -0.7,1.7 -0.6,2.4 0.4,1.9 v 0 z"
       id="path455" />
  </g>
  <g
     id="Layer6_0_MEMBER_2_MEMBER_2_MEMBER_4_MEMBER_8_MEMBER_1_MEMBER_2_FILL"
     transform="translate(-348.2,-125.8)">
    <path
       class="st8"
       d="m 679.9,311 c 1.5,1 2.4,1 2.6,0 0.5,-1.2 0,-1.7 -1.9,-1.5 z"
       id="path458" />
  </g>
  <g
     id="Layer6_0_MEMBER_2_MEMBER_2_MEMBER_4_MEMBER_8_MEMBER_1_MEMBER_3_FILL"
     transform="translate(-348.2,-125.8)">
    <path
       class="st8"
       d="m 668.4,335.6 c -1.2,0.2 -2,0.4 -2.2,0.4 -0.2,0.2 0.5,0.9 2.2,1.9 l 1.1,-0.4 c 0.7,-0.2 0.4,-0.9 -1.1,-1.9 z"
       id="path461" />
  </g>
  <g
     id="Layer6_0_MEMBER_2_MEMBER_2_MEMBER_4_MEMBER_8_MEMBER_1_MEMBER_4_FILL"
     transform="translate(-348.2,-125.8)">
    <path
       class="st8"
       d="m 681,307.7 c 1.7,0.2 2.7,0.1 3,-0.4 0,-0.5 -0.9,-1.1 -2.6,-1.9 -0.5,1 -0.7,1.6 -0.7,1.9 l 0.4,0.4 z"
       id="path464" />
  </g>
  <g
     id="Layer6_0_MEMBER_2_MEMBER_2_MEMBER_4_MEMBER_8_MEMBER_1_MEMBER_5_FILL"
     transform="translate(-348.2,-125.8)">
    <path
       class="st8"
       d="m 677.3,319.2 c -0.7,0.7 -1.2,1.4 -1.5,1.9 1.5,0.7 2.5,0.9 3,0.4 0.5,-0.7 0,-1.5 -1.5,-2.2 v 0 z"
       id="path467" />
  </g>
  <g
     id="Layer6_0_MEMBER_2_MEMBER_2_MEMBER_4_MEMBER_8_MEMBER_1_MEMBER_6_FILL"
     transform="translate(-348.2,-125.8)">
    <path
       class="st8"
       d="m 683.3,303.9 c 0.2,-0.2 0.7,-0.6 1.5,-1.1 0.2,-0.2 -0.6,-0.5 -2.6,-0.7 0,0.2 0,0.6 -0.4,1.1 -0.2,0.7 0.2,1 1.5,0.7 z"
       id="path470" />
  </g>
  <g
     id="Layer6_0_MEMBER_2_MEMBER_2_MEMBER_4_MEMBER_8_MEMBER_1_MEMBER_7_FILL"
     transform="translate(-348.2,-125.8)">
    <path
       class="st8"
       d="m 677.3,317.7 c 1.5,0.5 2.5,0.6 3,0.4 0.5,-0.5 0,-1.1 -1.9,-1.9 -0.5,0 -0.9,0.5 -1.1,1.5 z"
       id="path473" />
  </g>
  <g
     id="Layer6_0_MEMBER_2_MEMBER_2_MEMBER_4_MEMBER_8_MEMBER_1_MEMBER_8_FILL"
     transform="translate(-348.2,-125.8)">
    <path
       class="st8"
       d="m 675.1,324.4 c 3.2,1 3.4,0.5 0.4,-1.5 -0.2,0 -0.5,0.1 -0.7,0.4 -0.2,0.3 0,0.6 0.4,1.1 z"
       id="path476" />
  </g>
  <g
     id="Layer6_0_MEMBER_2_MEMBER_2_MEMBER_4_MEMBER_8_MEMBER_1_MEMBER_9_FILL"
     transform="translate(-348.2,-125.8)">
    <path
       class="st8"
       d="m 678.8,314 h 2.6 l -1.9,-1.1 z"
       id="path479" />
  </g>
  <g
     id="Layer6_0_MEMBER_2_MEMBER_2_MEMBER_4_MEMBER_8_MEMBER_1_MEMBER_10_FILL"
     transform="translate(-348.2,-125.8)">
    <path
       class="st8"
       d="m 663.1,341.2 c -0.7,-0.7 -1.1,-0.7 -1.1,0 0,0.7 0.4,1.2 1.1,1.5 0.2,0 0.6,0.1 1.1,0.4 0.2,0 0,-0.6 -1.1,-1.9 z"
       id="path482" />
  </g>
  <g
     id="Layer6_0_MEMBER_2_MEMBER_2_MEMBER_4_MEMBER_8_MEMBER_1_MEMBER_11_FILL"
     transform="translate(-348.2,-125.8)">
    <path
       class="st8"
       d="m 682.9,299.8 2.6,-0.4 -2.6,-0.7 z"
       id="path485" />
  </g>
  <g
     id="Layer6_0_MEMBER_2_MEMBER_2_MEMBER_4_MEMBER_8_MEMBER_1_MEMBER_12_FILL"
     transform="translate(-348.2,-125.8)">
    <path
       class="st8"
       d="m 672.4,327.8 c 0.2,0 0.7,0.1 1.5,0.4 0.5,0.2 1,0 1.5,-0.7 l -3,-0.7 v 1.1 0 z"
       id="path488" />
  </g>
  <g
     id="Layer6_0_MEMBER_2_MEMBER_2_MEMBER_4_MEMBER_8_MEMBER_1_MEMBER_13_FILL"
     transform="translate(-348.2,-125.8)">
    <path
       class="st8"
       d="m 669.8,334.5 c 0.2,0 0.7,-0.1 1.5,-0.4 0.5,0 0,-0.5 -1.5,-1.5 z"
       id="path491" />
  </g>
  <g
     id="Layer6_0_MEMBER_2_MEMBER_2_MEMBER_4_MEMBER_8_MEMBER_1_MEMBER_14_FILL"
     transform="translate(-348.2,-125.8)">
    <path
       class="st8"
       d="m 694.8,324.8 -5.6,11.9 c 3.2,-4.7 5,-7.6 5.2,-8.6 1,-2.2 1.1,-3.4 0.4,-3.4 v 0 z"
       id="path494" />
  </g>
  <g
     id="Layer6_0_MEMBER_2_MEMBER_2_MEMBER_4_MEMBER_8_MEMBER_1_MEMBER_15_FILL"
     transform="translate(-348.2,-125.8)">
    <path
       class="st8"
       d="m 679.5,349.4 c -0.2,0.2 -0.2,0.5 0,0.7 0.2,0.5 0.5,0.6 0.7,0.4 0.2,-1 0,-1.4 -0.7,-1.1 z"
       id="path497" />
  </g>
  <g
     id="Layer6_0_MEMBER_2_MEMBER_2_MEMBER_4_MEMBER_9_MEMBER_0_FILL"
     transform="translate(-348.2,-125.8)">
    <path
       class="st1"
       d="m 658.3,345.7 -1.1,2.2 c 1.5,1.5 1.4,2 -0.4,1.5 l -1.1,1.5 c 0,0.2 0,0.6 0.4,1.1 0.2,0.5 -0.4,0.4 -1.9,-0.4 -0.2,0.5 -0.6,1 -1.1,1.5 l 0.4,0.7 c -0.5,0.7 -0.9,1 -1.1,0.7 l -0.4,-0.4 c -1.2,0.5 -1.9,0.9 -1.9,1.1 0.7,1.7 0.2,2 -1.5,0.7 l -1.1,1.5 c 0.2,0.5 0,1 -1.1,1.5 h -2.2 c 0.2,1.2 0,1.9 -0.7,1.9 -0.5,-0.5 -0.9,-0.7 -1.1,-0.7 l -1.1,1.1 c 0,0.7 0,1.2 -0.4,1.5 -0.2,0.5 -0.9,0.2 -1.9,-0.7 l -2.6,2.6 -2.2,0.7 c -0.2,0.2 -0.5,0.4 -0.7,0.4 -0.2,0 -0.5,-0.4 -0.7,-1.1 l -2.2,1.1 c 0.2,0.2 0,0.9 -1.1,1.9 l -2.2,0.4 c 0.2,0.2 0,0.6 -1.1,1.1 -1.2,0.5 -2,0.6 -2.2,0.4 l -0.4,-0.4 c 0.2,1.2 -0.2,1.7 -1.5,1.5 -0.5,0 -0.9,-0.4 -1.1,-1.1 0,-0.7 0,-1.1 -0.4,-1.1 l -1.9,0.7 c 0.5,1.2 0.2,2 -0.7,2.2 -0.7,0.2 -1,-0.4 -0.7,-1.9 -0.5,0.2 -1.2,0.9 -2.2,1.9 0,1 -0.2,1.4 -0.7,1.1 -0.7,-0.5 -1.1,-1.5 -1.1,-3 -1,0 -1.9,0.2 -2.6,0.7 l 0.4,2.2 -1.1,-0.7 -2.2,1.9 c -1,0.2 -1.5,0 -1.5,-0.7 v -1.1 l -2.6,-0.4 v 2.6 c -0.7,1.2 -1.4,1.2 -1.9,0 -0.5,-1.7 -1,-2.6 -1.5,-2.6 -0.2,0.7 -0.5,1.6 -0.7,2.6 0,0.5 -0.4,0 -1.1,-1.5 l -1.1,0.4 v 20.5 c 28.2,0.7 53.9,-9.8 77.1,-31.7 -0.7,-2 -6,-7.3 -15.6,-16 h -0.6 z"
       id="path500" />
  </g>
  <g
     id="Layer6_0_MEMBER_2_MEMBER_2_MEMBER_4_MEMBER_9_MEMBER_1_MEMBER_0_FILL"
     transform="translate(-348.2,-125.8)">
    <path
       class="st8"
       d="m 641.5,361.3 -2.6,-1.9 c -0.2,0.2 -0.2,0.6 0,1.1 0.2,0.5 0.4,0.9 0.4,1.1 1,1 1.6,1.4 1.9,1.1 0.2,-0.2 0.4,-0.7 0.4,-1.5 h -0.1 z"
       id="path503" />
  </g>
  <g
     id="Layer6_0_MEMBER_2_MEMBER_2_MEMBER_4_MEMBER_9_MEMBER_1_MEMBER_1_FILL"
     transform="translate(-348.2,-125.8)">
    <path
       class="st8"
       d="m 621.8,370.6 c 0.7,-2.2 0.7,-3.4 0,-3.4 -0.7,0.7 -1.2,1.1 -1.5,1.1 0.2,0 0.5,0.4 0.7,1.1 0,0.7 0.2,1.1 0.7,1.1 v 0 z"
       id="path506" />
  </g>
  <g
     id="Layer6_0_MEMBER_2_MEMBER_2_MEMBER_4_MEMBER_9_MEMBER_1_MEMBER_2_FILL"
     transform="translate(-348.2,-125.8)">
    <path
       class="st8"
       d="m 607.2,373.6 c 0.5,-1.2 0.4,-2.2 -0.4,-3 -0.7,-1 -1.1,-0.6 -1.1,1.1 v 1.1 c 0,0.7 0.5,1 1.5,0.7 v 0 z"
       id="path509" />
  </g>
  <g
     id="Layer6_0_MEMBER_2_MEMBER_2_MEMBER_4_MEMBER_9_MEMBER_1_MEMBER_3_FILL"
     transform="translate(-348.2,-125.8)">
    <path
       class="st8"
       d="m 614.7,371.4 c 0.2,-1.2 0,-1.9 -0.4,-1.9 h -1.5 c 0,1.5 0.4,2.5 1.1,3 0.5,0.2 0.7,-0.1 0.7,-1.1 z"
       id="path512" />
  </g>
  <g
     id="Layer6_0_MEMBER_2_MEMBER_2_MEMBER_4_MEMBER_9_MEMBER_1_MEMBER_4_FILL"
     transform="translate(-348.2,-125.8)">
    <path
       class="st8"
       d="m 603.1,371.4 c -0.5,-1 -1.1,-1.1 -1.9,-0.4 0.7,2.2 1.4,3.2 1.9,3 z"
       id="path515" />
  </g>
  <g
     id="Layer6_0_MEMBER_2_MEMBER_2_MEMBER_4_MEMBER_9_MEMBER_1_MEMBER_5_FILL"
     transform="translate(-348.2,-125.8)">
    <path
       class="st8"
       d="m 656.1,350.5 c -2.2,-1 -3.2,-1.2 -3,-0.7 0.2,0.2 0.6,0.7 1.1,1.5 2.5,1 3.1,0.7 1.9,-0.7 v 0 z"
       id="path518" />
  </g>
  <g
     id="Layer6_0_MEMBER_2_MEMBER_2_MEMBER_4_MEMBER_9_MEMBER_1_MEMBER_6_FILL"
     transform="translate(-348.2,-125.8)">
    <path
       class="st8"
       d="m 618.4,369.1 c -0.5,0 -1,0.1 -1.5,0.4 -0.2,1.5 0,2.1 0.7,1.9 1,-0.2 1.2,-1 0.7,-2.2 v 0 z"
       id="path521" />
  </g>
  <g
     id="Layer6_0_MEMBER_2_MEMBER_2_MEMBER_4_MEMBER_9_MEMBER_1_MEMBER_7_FILL"
     transform="translate(-348.2,-125.8)">
    <path
       class="st8"
       d="m 650.5,355 -1.5,-1.5 c -0.5,0.2 -0.7,0.6 -0.7,1.1 0.2,0.5 0.4,0.9 0.4,1.1 2,1.2 2.6,1 1.9,-0.7 z"
       id="path524" />
  </g>
  <g
     id="Layer6_0_MEMBER_2_MEMBER_2_MEMBER_4_MEMBER_9_MEMBER_1_MEMBER_8_FILL"
     transform="translate(-348.2,-125.8)">
    <path
       class="st8"
       d="m 630.3,365.8 -2.2,-1.1 1.1,2.6 c 1.2,-0.7 1.6,-1.2 1.1,-1.5 z"
       id="path527" />
  </g>
  <g
     id="Layer6_0_MEMBER_2_MEMBER_2_MEMBER_4_MEMBER_9_MEMBER_1_MEMBER_9_FILL"
     transform="translate(-348.2,-125.8)">
    <path
       class="st8"
       d="m 653.1,352.7 c -1,-1 -1.7,-1.4 -2.2,-1.1 -0.2,0.5 0,1.2 1.1,2.2 l 0.4,0.4 c 0.2,0.2 0.6,0 1.1,-0.7 0.2,0 0,-0.2 -0.4,-0.7 v 0 z"
       id="path530" />
  </g>
  <g
     id="Layer6_0_MEMBER_2_MEMBER_2_MEMBER_4_MEMBER_9_MEMBER_1_MEMBER_10_FILL"
     transform="translate(-348.2,-125.8)">
    <path
       class="st8"
       d="m 599.4,371.4 c -0.2,0 -0.7,0.4 -1.5,1.1 0.7,1.2 1.1,1.6 1.1,1.1 0.2,-1 0.4,-1.7 0.4,-2.2 z"
       id="path533" />
  </g>
  <g
     id="Layer6_0_MEMBER_2_MEMBER_2_MEMBER_4_MEMBER_9_MEMBER_1_MEMBER_11_FILL"
     transform="translate(-348.2,-125.8)">
    <path
       class="st8"
       d="m 657.5,347.2 c -0.2,0.5 -0.4,1.1 -0.4,1.9 1.2,0.2 1.7,0.2 1.5,0 -0.2,-0.5 -0.6,-1.1 -1.1,-1.9 z"
       id="path536" />
  </g>
  <g
     id="Layer6_0_MEMBER_2_MEMBER_2_MEMBER_4_MEMBER_9_MEMBER_1_MEMBER_12_FILL"
     transform="translate(-348.2,-125.8)">
    <path
       class="st8"
       d="m 652.3,374 -2.6,1.9 c 0.2,0.5 0.9,0.5 1.9,0 0.7,-0.5 1.2,-1 1.5,-1.5 l -0.7,-0.4 z"
       id="path539" />
  </g>
  <g
     id="Layer6_0_MEMBER_2_MEMBER_2_MEMBER_4_MEMBER_9_MEMBER_1_MEMBER_13_FILL"
     transform="translate(-348.2,-125.8)">
    <path
       class="st8"
       d="m 670.6,359.5 -0.7,0.7 c -0.5,0.7 -0.6,1.2 -0.4,1.5 1.7,-1.5 2.1,-2.2 1.1,-2.2 z"
       id="path542" />
  </g>
  <g
     id="Layer6_0_MEMBER_2_MEMBER_2_MEMBER_4_MEMBER_9_MEMBER_1_MEMBER_14_FILL"
     transform="translate(-348.2,-125.8)">
    <path
       class="st8"
       d="m 656.8,371.4 -2.6,1.9 2.6,-0.7 v -1.1 0 z"
       id="path545" />
  </g>
  <g
     id="Layer6_0_MEMBER_2_MEMBER_2_MEMBER_4_MEMBER_9_MEMBER_1_MEMBER_15_FILL"
     transform="translate(-348.2,-125.8)">
    <path
       class="st8"
       d="m 605.4,389.6 -1.1,0.7 c 0.7,0.5 1.4,0.5 1.9,0 0.7,-0.5 0.5,-0.7 -0.7,-0.7 z"
       id="path548" />
  </g>
  <g
     id="Layer4_0_FILL"
     transform="translate(-348.2,-125.8)">
    <path
       class="st2"
       d="m 683.4,369.3 c 23.7,-23.7 35.5,-52.2 35.5,-85.7 0,-33.5 -11.8,-62 -35.5,-85.6 -23.7,-23.7 -52.2,-35.5 -85.7,-35.5 -33.5,0 -62,11.9 -85.7,35.5 -23.7,23.7 -35.5,52.2 -35.5,85.6 0,33.4 11.8,62.1 35.5,85.7 23.7,23.7 52.2,35.5 85.7,35.4 33.5,0 62,-11.8 85.7,-35.4 z"
       id="path551"
       style="fill:url(#linear-gradient1)" />
  </g>
  <g
     id="Layer3_0_FILL"
     transform="translate(-348.2,-125.8)">
    <path
       class="st11"
       d="m 681.8,200.8 c -0.5,-0.5 -1,-1.1 -1.6,-1.6 -23.4,-23.4 -51.7,-35.1 -84.8,-35.1 -33.1,0 -61.3,11.7 -84.8,35.1 -23.4,23.4 -35.1,51.7 -35.1,84.8 0,33.1 11.5,60.8 34.4,84.1 l 0.7,0.7 c 23.4,23.4 51.7,35.1 84.8,35.1 33.1,0 61.4,-11.7 84.8,-35.1 1.6,-1.6 3.2,-3.2 4.7,-4.9 20.3,-22.4 30.5,-49.1 30.5,-79.9 0,-30.8 -11.2,-60.1 -33.5,-83.1 m -6.7,3.3 c 0.4,0.4 0.9,0.9 1.3,1.3 0,0 0,0.1 0.2,0.2 1,1 1.9,2 2.9,3.1 18.8,20.8 28.3,45.3 28.6,73.7 v 4.6 c -0.7,27.5 -10.1,51.4 -28.3,71.6 -1.2,1.4 -2.5,2.7 -3.8,4 -1.3,1.3 -0.5,0.6 -0.8,0.9 -21.5,21.5 -47.4,32.5 -77.6,33 h -3.8 c -30.3,-0.4 -56.3,-11.4 -77.9,-33 l -0.8,-0.8 c -1.2,-1.2 -2.4,-2.5 -3.5,-3.8 -19.1,-21.1 -28.7,-46.1 -28.7,-75.1 0,-29 11,-57.6 33,-79.6 22,-22 48.5,-33 79.6,-33 31.1,0 57.6,11 79.6,33 m -81.3,-29.9 c -7.6,0 -15,0.9 -22.1,2.3 -20.4,4.2 -38.4,14.1 -54,29.7 -0.3,0.3 -0.7,0.7 -1,1 l 24.8,24.8 0.2,-0.2 c 0,-0.1 0.3,-0.3 0.4,-0.4 14.3,-14.3 31.6,-21.8 51.8,-22.2 V 174.6 M 538.7,235 c 0,0 0,-0.1 0.2,-0.2 l -4,-3.9 0.3,0.2 c -0.2,-0.2 -0.4,-0.4 -0.6,-0.7 l -3.4,-3.2 c -1.3,-1.2 -1.9,-1.9 -1.8,-1.9 L 514.2,210 c -18.9,20.4 -28.5,44.5 -28.8,72.5 h 34.3 c 0.6,-18.2 6.9,-34 19,-47.5 m -24.8,121.9 v 0 l 23,-23 C 525.7,320.6 520,305 519.7,287.1 h -34.2 c 0.7,26.9 10.2,50.2 28.4,69.8 M 674.7,207.3 c -0.3,-0.3 -0.6,-0.6 -1,-0.9 -15.7,-15.5 -33.7,-25.4 -54,-29.7 -7.1,-1.5 -14.5,-2.3 -22.1,-2.3 v 34.8 c 20.2,0.5 37.4,8 51.8,22.3 0.2,0.2 0.4,0.4 0.6,0.6 0.5,-0.5 1,-0.9 1.5,-1.4 0.8,-0.8 1.7,-1.7 2.5,-2.5 0.3,-0.3 0.6,-0.5 0.9,-0.8 0.5,-0.6 1.1,-1.1 1.6,-1.7 0,0 0,-0.1 0.2,-0.2 l 0.5,-0.6 c 0,0 0,0 0.2,-0.1 l 17.4,-17.4 h -0.1 z"
       id="path554" />
    <path
       class="st1"
       d="m 706,287 h -34.3 c -0.3,17.6 -5.9,33 -16.8,46.2 0,0.2 -0.3,0.4 -0.5,0.6 l 9.9,9.8 v 0 l 13.2,13.2 c 0,-0.1 0.2,-0.2 0.2,-0.3 18.1,-19.6 27.5,-42.8 28.2,-69.6 m -28.1,-76.3 c -0.2,-0.2 -0.3,-0.4 -0.5,-0.6 L 662,225.2 v 0 l -9.6,9.5 c 0,0.1 0.2,0.3 0.4,0.4 11.9,13.4 18.2,29.2 18.8,47.4 H 706 c -0.3,-27.7 -9.7,-51.7 -28.2,-71.9 M 542.1,339.5 c -0.6,-0.6 -1.2,-1.2 -1.8,-1.8 l -22.9,22.9 0.2,0.2 c 6.5,6.5 13.5,12 20.8,16.5 16.4,10.1 34.9,15.2 55.4,15.5 v -31 c -16.6,-0.4 -31.3,-5.6 -44,-15.5 -2.7,-2.1 -5.2,-4.4 -7.8,-6.9 m 109.1,-1.8 c -0.5,0.6 -1.1,1.2 -1.7,1.8 -2.5,2.5 -5.1,4.8 -7.8,6.9 -12.7,9.9 -27.4,15 -44,15.4 v 31.1 c 20.5,-0.3 38.9,-5.4 55.3,-15.5 7.4,-4.5 14.3,-10 20.8,-16.5 l 0.2,-0.2 -22.9,-23 z"
       id="path556" />
  </g>
  <g
     id="Layer2_0_FILL"
     transform="translate(-348.2,-125.8)">
    <path
       class="st5"
       d="m 482.9,227.6 c -8.9,17.2 -13.3,36.2 -13.3,57.1 0,20.9 4.9,41.9 14.7,59.8 0.6,1.2 1.3,2.3 1.9,3.5 5.4,9.2 12.2,17.8 20.2,25.8 8,8 17.5,15.4 27.1,21 l 2.9,-5.3 c -9.1,-5.3 -17.7,-11.9 -25.8,-20 -8.7,-8.7 -15.8,-18.1 -21.2,-28.1 -9.2,-17 -13.8,-35.9 -13.8,-56.7 0,-20.8 4.2,-37.9 12.5,-54.2 l -5.3,-2.9 v 0 z"
       id="path559" />
    <path
       class="st8"
       d="m 703.9,349.4 -5.1,-3.4 c -5,8.3 -11.2,16.1 -18.6,23.5 -23.4,23.4 -51.7,35.1 -84.8,35.1 -33.1,0 -41.4,-5 -59,-15.1 l -2.9,5.3 c 18.4,10.6 39.1,16 61.9,16 34.8,0 64.5,-12.3 89.1,-36.9 7.6,-7.6 14.1,-15.8 19.3,-24.4 v 0 z"
       id="path561" />
    <path
       class="st9"
       d="m 651.1,178.1 2.9,-5.3 c -17.6,-9.3 -37.1,-14 -58.5,-14 -34.8,0 -64.4,12.3 -89,36.9 -9.8,9.8 -17.7,20.5 -23.6,31.9 l 5.3,2.9 c 5.6,-11 13.1,-21.1 22.5,-30.6 23.4,-23.4 51.7,-35.1 84.8,-35.1 33.1,0 38.9,4.4 55.7,13.3 z"
       id="path563" />
    <path
       class="st3"
       d="M 684.6,195.7 C 675.2,186.3 665,178.6 654,172.8 l -2.9,5.3 c 10.4,5.5 20.1,12.8 29.1,21.8 23.4,23.4 35.1,51.7 35.1,84.8 0,33.1 -5.5,43.1 -16.5,61.3 l 5.1,3.4 c 11.7,-19.1 17.5,-40.7 17.5,-64.7 0,-24 -1,-19.4 -3,-28.6 -0.4,-1.8 -0.8,-3.5 -1.3,-5.3 -5.5,-20.6 -16.4,-39 -32.6,-55.2 h 0.1 z"
       id="path565" />
  </g>
  <g
     id="Layer1_0_FILL"
     transform="translate(-348.2,-125.8)">
    <path
       class="st4"
       d="m 594.9,235 h -0.2 c -7.4,0 -13.8,2.8 -19.1,8.1 -5.4,5.3 -8,11.8 -8,19.4 0,7.6 2.7,14.1 8,19.5 2.4,2.3 4.9,4.2 7.7,5.5 l -6.9,42 h 36.7 l -6.9,-42 c 2.8,-1.3 5.3,-3.2 7.7,-5.5 5.4,-5.4 8,-11.9 8,-19.5 0,-7.6 -2.7,-14.1 -8,-19.4 -5.3,-5.3 -11.7,-8 -19.1,-8.1 v 0 z"
       id="path568" />
  </g>
</svg>
