<?xml version="1.0" encoding="UTF-8" standalone="no"?>
<svg
   xmlns:dc="http://purl.org/dc/elements/1.1/"
   xmlns:cc="http://creativecommons.org/ns#"
   xmlns:rdf="http://www.w3.org/1999/02/22-rdf-syntax-ns#"
   xmlns:svg="http://www.w3.org/2000/svg"
   xmlns="http://www.w3.org/2000/svg"
   xmlns:xlink="http://www.w3.org/1999/xlink"
   xmlns:sodipodi="http://sodipodi.sourceforge.net/DTD/sodipodi-0.dtd"
   xmlns:inkscape="http://www.inkscape.org/namespaces/inkscape"
   version="1.1"
   preserveAspectRatio="none"
   x="0px"
   y="0px"
   width="200"
   height="200"
   viewBox="0 0 200 200"
   id="svg14"
   sodipodi:docname="qa-bubbles-icon-blk.svg"
   inkscape:version="1.0.2 (1.0.2+r75+1)">
  <metadata
     id="metadata18">
    <rdf:RDF>
      <cc:Work
         rdf:about="">
        <dc:format>image/svg+xml</dc:format>
        <dc:type
           rdf:resource="http://purl.org/dc/dcmitype/StillImage" />
        <dc:title />
      </cc:Work>
    </rdf:RDF>
  </metadata>
  <sodipodi:namedview
     pagecolor="#ffffff"
     bordercolor="#666666"
     borderopacity="1"
     objecttolerance="10"
     gridtolerance="10"
     guidetolerance="10"
     inkscape:pageopacity="0"
     inkscape:pageshadow="2"
     inkscape:window-width="1237"
     inkscape:window-height="969"
     id="namedview16"
     showgrid="false"
     inkscape:zoom="2.6704565"
     inkscape:cx="37.324692"
     inkscape:cy="52.003421"
     inkscape:window-x="43"
     inkscape:window-y="27"
     inkscape:window-maximized="1"
     inkscape:current-layer="g12"
     inkscape:document-rotation="0" />
  <defs
     id="defs6">
    <g
       id="Layer0_0_FILL">
      <path
         fill="#000000"
         stroke="none"
         d="m 200.4,82.35 q 0,-20 -20,-20 H 141.2 V 26.05 Q 141.2,15.25 133.85,7.6 126.55,0 116.2,0 H 25 Q 14.65,0 7.3,7.6 0,15.25 0,26.05 v 79.9 q 0,10.75 7.3,18.35 7.35,7.65 17.7,7.65 h 6.85 l -14.25,23.2 37.1,-23.2 h 30.5 v 14 q 0,20 20,20 H 154 l 36.6,22.3 -15.4,-22.3 h 5.2 q 20,0 20,-20 V 82.35 M 124.05,16.7 q 6.2,6.45 6.2,15.6 V 62.35 H 105.2 q -20,0 -20,20 v 39.4 H 32.1 q -8.75,0 -14.95,-6.45 Q 11,108.85 11,99.8 V 32.3 q 0,-9.15 6.15,-15.6 6.2,-6.4 14.95,-6.4 h 77.05 q 8.75,0 14.9,6.4 M 134,84.75 h 16.8 l 18.4,57.2 h -14.6 l -4.4,-15.6 h -16.7 l -3.8,15.6 H 116.35 L 134,84.75 m 2.1,31 h 11.1 l -5.9,-21 -5.2,21 M 76,47.65 q 0,-12.05 -7.75,-20.6 -7.75,-8.5 -18.75,-8.5 -11,0 -18.75,8.5 Q 23,35.6 23,47.65 q 0,12.05 7.75,20.55 7.75,8.55 18.75,8.55 0.15,0 0.3,0 10.75,5.2 22.25,8.55 L 76.15,75.9 63.4,72.5 Q 65.95,70.75 68.25,68.2 76,59.7 76,47.65 M 49.65,29.3 q 5,0 8.5,5.5 3.55,5.5 3.55,13.25 0,7.75 -3.55,13.2 -3.5,5.5 -8.5,5.5 -5,0 -8.5,-5.5 -3.5,-5.45 -3.5,-13.2 0,-7.75 3.5,-13.25 3.5,-5.5 8.5,-5.5 z"
         id="path2" />
    </g>
    <path
       id="Layer0_0_1_STROKES"
       stroke="#333f46"
       stroke-width="2"
       stroke-linejoin="round"
       stroke-linecap="round"
       fill="none"
       d="m 61.7,48.05 q 0,7.75 -3.55,13.2 -3.5,5.5 -8.5,5.5 -5,0 -8.5,-5.5 -3.5,-5.45 -3.5,-13.2 0,-7.75 3.5,-13.25 3.5,-5.5 8.5,-5.5 5,0 8.5,5.5 3.55,5.5 3.55,13.25 z" />
  </defs>
  <g
     id="g12"
     transform="translate(-0.2,5.875)">
    <use
       xlink:href="#Layer0_0_FILL"
       id="use8"
       x="0"
       y="0"
       width="100%"
       height="100%" />
  </g>
</svg>
