<?xml version="1.0" encoding="UTF-8" standalone="no"?>
<svg
   xmlns:dc="http://purl.org/dc/elements/1.1/"
   xmlns:cc="http://creativecommons.org/ns#"
   xmlns:rdf="http://www.w3.org/1999/02/22-rdf-syntax-ns#"
   xmlns:svg="http://www.w3.org/2000/svg"
   xmlns="http://www.w3.org/2000/svg"
   xmlns:xlink="http://www.w3.org/1999/xlink"
   xmlns:sodipodi="http://sodipodi.sourceforge.net/DTD/sodipodi-0.dtd"
   xmlns:inkscape="http://www.inkscape.org/namespaces/inkscape"
   version="1.1"
   preserveAspectRatio="none"
   x="0px"
   y="0px"
   width="195.95"
   height="195.95"
   viewBox="0 0 195.95 195.95"
   id="svg14"
   sodipodi:docname="rocket_launch.svg"
   inkscape:version="1.0.2 (1.0.2+r75+1)">
  <metadata
     id="metadata18">
    <rdf:RDF>
      <cc:Work
         rdf:about="">
        <dc:format>image/svg+xml</dc:format>
        <dc:type
           rdf:resource="http://purl.org/dc/dcmitype/StillImage" />
        <dc:title></dc:title>
      </cc:Work>
    </rdf:RDF>
  </metadata>
  <sodipodi:namedview
     pagecolor="#ffffff"
     bordercolor="#666666"
     borderopacity="1"
     objecttolerance="10"
     gridtolerance="10"
     guidetolerance="10"
     inkscape:pageopacity="0"
     inkscape:pageshadow="2"
     inkscape:window-width="1237"
     inkscape:window-height="969"
     id="namedview16"
     showgrid="false"
     fit-margin-top="0"
     fit-margin-left="0"
     fit-margin-right="0"
     fit-margin-bottom="0"
     inkscape:zoom="0.96994535"
     inkscape:cx="-106.55902"
     inkscape:cy="172.95121"
     inkscape:window-x="43"
     inkscape:window-y="27"
     inkscape:window-maximized="1"
     inkscape:current-layer="svg14"
     inkscape:document-rotation="0" />
  <defs
     id="defs6">
    <g
       id="Layer0_0_FILL">
      <path
         fill="#000000"
         stroke="none"
         d="m 105.1,119.8 4.9,-0.05 -2.8,-25.95 -2.1,26 m 17.75,27.2 q 1.9,-7.95 0.6,-13.2 -1.35,-5.25 -3.25,-7.3 -1.9,-2.05 -3.8,-2.3 -10.5,-1 -19.9,-0.2 -2.95,1.1 -4.7,5.65 -1.8,4.5 -0.55,8.7 1.25,4.1 5.8,9.1 6.6,7.1 7.45,8.3 3,4.15 3.6,8.95 0.7,5.2 -1.75,9.15 6.2,-5.15 10.5,-12.1 4.3,-7 6,-14.75 M 2.3,177.6 q -0.05,0.75 -0.05,1.6 h 96.5 q -0.65,-2.15 -1.85,-4.15 -2.65,-4.4 -7.05,-6.55 -4.3,-2.15 -9.4,-1.6 -4.05,0.45 -7.2,2.45 -3.9,-4.85 -9.9,-6.85 -3.4,-1.05 -7,-0.95 -2.4,0.1 -4.65,0.75 -2.35,-6.6 -8.8,-10.9 -6.95,-4.65 -14.9,-4.15 -7.7,0.45 -14.3,5.6 -6.45,5.05 -9.2,12.5 -1.95,5.3 -2.2,12.25 m 73.25,-69.9 q -0.65,3.45 -0.5,5.65 4.65,4.15 11.95,5.75 5.55,1.35 12.4,0.95 -6.15,-9 -9.8,-19.5 -3.45,-9.9 -4.3,-20.15 -3.65,8.9 -6.35,16.4 -2.75,7.4 -3.4,10.9 m 60.3,-11.5 q -2.7,-7.5 -6.35,-16.4 -0.85,10.25 -4.3,20.15 -3.65,10.5 -9.8,19.5 6.85,0.4 12.4,-0.95 7.3,-1.6 11.95,-5.75 0.15,-2.2 -0.5,-5.65 -0.65,-3.5 -3.4,-10.9 M 120.6,15.15 Q 115.3,1.4 107.95,1.4 100.45,1.35 95,15.5 q 13.1,8.95 25.6,-0.35 m 1.85,5.5 q -0.1,-0.35 -0.2,-0.65 -13.9,9.9 -28.75,-0.1 -0.05,0.1 -0.1,0.2 -5.75,17.7 -5.45,42.05 0.15,23.15 5.7,39.5 3.55,10.45 8.05,14.5 l 4.3,-32.3 q 0.2,-2.3 1.4,-2.4 1.2,-0.1 1.6,1.6 0.35,1.65 0.75,3.9 0.35,2.25 1.4,9.1 0.95,6.85 2.1,19.8 3.55,-2.25 7.15,-11.35 6.25,-15.8 7,-39.8 0.75,-25.3 -4.95,-44.05 m 2,15.85 q 0.4,2.9 -0.5,5.1 -0.95,2.2 -2.6,2.45 -1.7,0.25 -3.15,-1.65 -1.5,-1.9 -1.9,-4.8 -0.4,-2.9 0.5,-5.1 0.9,-2.15 2.6,-2.4 1.65,-0.25 3.15,1.6 1.5,1.9 1.9,4.8 m 52.5,117.4 q -6.55,-0.4 -12.3,3.3 -5.3,3.45 -7.25,8.65 -1.85,-0.5 -3.85,-0.55 -2.95,-0.1 -5.75,0.75 -4.95,1.55 -8.2,5.45 -2.55,-1.6 -5.9,-1.95 -4.2,-0.45 -7.75,1.25 -3.65,1.7 -5.85,5.2 -0.95,1.6 -1.5,3.3 h 79.6 q 0,-0.65 -0.05,-1.25 -0.2,-5.55 -1.8,-9.75 -2.3,-5.9 -7.6,-9.95 -5.45,-4.1 -11.8,-4.45 z"
         id="path2" />
    </g>
    <path
       id="Layer0_0_1_STROKES"
       stroke="#333f46"
       stroke-width="2"
       stroke-linejoin="round"
       stroke-linecap="round"
       fill="none"
       d="m 124.45,36.5 q 0.4,2.9 -0.5,5.1 -0.95,2.2 -2.6,2.45 -1.7,0.25 -3.15,-1.65 -1.5,-1.9 -1.9,-4.8 -0.4,-2.9 0.5,-5.1 0.9,-2.15 2.6,-2.4 1.65,-0.25 3.15,1.6 1.5,1.9 1.9,4.8 z M 91.8,129.65 q -1.8,4.5 -0.55,8.7 1.25,4.1 5.8,9.1 6.6,7.1 7.45,8.3 3,4.15 3.6,8.95 0.7,5.2 -1.75,9.15 6.2,-5.15 10.5,-12.1 4.3,-7 6,-14.75 1.9,-7.95 0.6,-13.2 -1.35,-5.25 -3.25,-7.3 -1.9,-2.05 -3.8,-2.3 -10.5,-1 -19.9,-0.2 -2.95,1.1 -4.7,5.65 z" />
  </defs>
  <g
     id="g12"
     transform="translate(-2.2500015,7.6250865)">
    <use
       xlink:href="#Layer0_0_FILL"
       id="use8"
       x="0"
       y="0"
       width="100%"
       height="100%" />
  </g>
</svg>
