<?xml version="1.0" encoding="UTF-8" standalone="no"?>
<svg
   xmlns:dc="http://purl.org/dc/elements/1.1/"
   xmlns:cc="http://creativecommons.org/ns#"
   xmlns:rdf="http://www.w3.org/1999/02/22-rdf-syntax-ns#"
   xmlns:svg="http://www.w3.org/2000/svg"
   xmlns="http://www.w3.org/2000/svg"
   xmlns:xlink="http://www.w3.org/1999/xlink"
   xmlns:sodipodi="http://sodipodi.sourceforge.net/DTD/sodipodi-0.dtd"
   xmlns:inkscape="http://www.inkscape.org/namespaces/inkscape"
   version="1.1"
   preserveAspectRatio="none"
   x="0px"
   y="0px"
   width="249"
   height="249"
   viewBox="0 0 249 249"
   id="svg11"
   sodipodi:docname="training_resources.svg"
   inkscape:version="1.0.2 (1.0.2+r75+1)">
  <metadata
     id="metadata15">
    <rdf:RDF>
      <cc:Work
         rdf:about="">
        <dc:format>image/svg+xml</dc:format>
        <dc:type
           rdf:resource="http://purl.org/dc/dcmitype/StillImage" />
        <dc:title></dc:title>
      </cc:Work>
    </rdf:RDF>
  </metadata>
  <sodipodi:namedview
     pagecolor="#ffffff"
     bordercolor="#666666"
     borderopacity="1"
     objecttolerance="10"
     gridtolerance="10"
     guidetolerance="10"
     inkscape:pageopacity="0"
     inkscape:pageshadow="2"
     inkscape:window-width="1237"
     inkscape:window-height="969"
     id="namedview13"
     showgrid="false"
     inkscape:zoom="0.7866208"
     inkscape:cx="449.68673"
     inkscape:cy="-19.329205"
     inkscape:window-x="43"
     inkscape:window-y="27"
     inkscape:window-maximized="1"
     inkscape:current-layer="svg11" />
  <defs
     id="defs5">
    <g
       id="Layer0_0_FILL">
      <path
         fill="#000000"
         stroke="none"
         d="M 98,61.5 V 0.1 H 0.2 V 61.5 H 98 M 72.55,19.7 q 2.2,-2.2 3,-2.75 0.75,-0.45 1,-0.35 0.5,0 0.75,0.4 0.2,0.4 0.1,1.2 -0.15,0.8 -2.85,3.7 l -5.65,6.2 q 0.05,0.6 0.2,1.15 0.6,1.9 -0.6,3.1 -1.2,1.1 -5.7,1.15 -4.55,0.05 -9.1,0.2 -4.6,0.15 -5.3,0.65 -0.7,0.45 -0.7,3 -0.2,9.85 -0.15,16.1 0.25,2.65 -1.25,2.95 l -18.5,0.1 q -1.9,0.15 -1.55,-2.85 v -0.2 q -3.75,-4 -5.15,-6.1 -1.4,-2.1 -3.1,-4.7 -1.75,-2.65 -1.3,-4.1 0.45,-1.5 1.35,-2.65 0.9,-1.15 2.55,-2.8 1.6,-1.65 2.5,-2.8 0.9,-1.15 2.4,-1.75 1.5,-0.6 4.1,-1.8 2.6,-1.25 3.3,-0.7 l 2.15,5.7 0.2,-4.95 q -0.9,-0.95 -1.7,-1.75 -1.55,-1.7 -2.1,-3.35 -0.4,-1.25 -0.4,-4 -0.2,-3.3 0.4,-4.6 0.55,-1.3 2.25,-2.15 0.9,-0.5 1.75,-0.7 Q 36.9,9.9 38,10.2 q 1.1,0.35 2.25,0.95 1.7,0.85 2.25,2.15 0.6,1.3 0.4,4.6 0,2.75 -0.4,4 -0.55,1.65 -2.1,3.35 -0.7,0.7 -1.45,1.6 l 0.2,4.8 q 1.6,-3.85 2.2,-5.2 0.6,-1.4 6.1,-0.6 8.85,0.45 12.9,0.55 4.05,0.05 4.2,0.1 4.35,-3.15 8,-6.8 M 97.7,71.85 Q 97.15,71.3 96.35,71.3 H 25.6 v -2.7 q 0,-2 -2,-2 H 21 q -2,0 -2,2 v 2.7 H 1.95 q -0.8,0 -1.4,0.55 -0.55,0.6 -0.55,1.4 0,0.8 0.55,1.35 0.6,0.6 1.4,0.6 H 19 v 1.7 q 0,2 2,2 h 2.6 q 2,0 2,-2 v -1.7 h 70.75 q 0.8,0 1.35,-0.6 0.6,-0.55 0.6,-1.35 0,-0.8 -0.6,-1.4 M 143.6,45.4 h -11.9 v 21.3 h -6.5 l 12.1,18.2 11.65,-18.2 H 143.6 V 45.4 m 18.9,4.2 V 10.4 L 152.1,0 h -28 v 12.7 h -8.9 v 49.6 h 13.3 v -4.9 h -8.3 V 16.9 H 142 v 8.4 h 8 v 32.1 h -3.9 v 4.9 h 7.5 V 49.6 h 8.9 M 150.9,4.2 v 8.4 h 8 v 32.1 h -5.3 V 23.1 L 143.2,12.7 H 129.1 V 4.2 h 21.8 M 249.6,56 V 17.1 L 231.4,27.7 V 15.5 q 0,-5 -5,-5 h -43.6 q -5,0 -5,5 v 40.4 q 0,5 5,5 h 43.6 q 5,0 5,-5 V 47 Z"
         id="path2" />
    </g>
  </defs>
  <g
     id="g9"
     transform="translate(-0.3,82.05)">
    <use
       xlink:href="#Layer0_0_FILL"
       id="use7"
       x="0"
       y="0"
       width="100%"
       height="100%" />
  </g>
</svg>
